<svg width="553" height="531" viewBox="0 0 553 531" fill="none" xmlns="http://www.w3.org/2000/svg">
<g clip-path="url(#clip0_18_261)">
<path d="M74.1843 467.502V477.139H146.182V467.502H74.1843Z" fill="#E0E0E0"/>
<path d="M83.9928 467.899C84.2358 467.899 84.4404 469.924 84.4404 472.41C84.4404 474.896 84.2358 476.934 83.9928 476.934C83.7499 476.934 83.5325 474.909 83.5325 472.41C83.5325 469.911 83.7371 467.899 83.9928 467.899Z" fill="#FAFAFA"/>
<path d="M82.42 467.745C82.6758 467.745 82.8676 469.757 82.8676 472.256C82.8676 474.755 82.6758 476.767 82.42 476.767C82.1642 476.767 81.9724 474.755 81.9724 472.256C81.9724 469.757 82.1642 467.745 82.42 467.745Z" fill="#FAFAFA"/>
<path d="M140.67 467.899C140.926 467.899 141.131 469.924 141.131 472.41C141.131 474.896 140.926 476.934 140.67 476.934C140.414 476.934 140.223 474.909 140.223 472.41C140.223 469.911 140.363 467.899 140.67 467.899Z" fill="#FAFAFA"/>
<path d="M139.046 467.745C139.289 467.745 139.494 469.757 139.494 472.256C139.494 474.755 139.289 476.767 139.046 476.767C138.803 476.767 138.586 474.755 138.586 472.256C138.586 469.757 138.79 467.745 139.046 467.745Z" fill="#FAFAFA"/>
<path d="M129.634 472.615C129.634 472.859 121.386 473.064 111.219 473.064C101.052 473.064 92.804 472.859 92.804 472.615C92.804 472.372 101.052 472.154 111.219 472.154C121.386 472.154 129.634 472.359 129.634 472.615Z" fill="#FAFAFA"/>
<path d="M73.8647 510.893V530.167H145.862V510.893H73.8647Z" fill="#E0E0E0"/>
<path d="M146.783 524.746C146.783 524.746 146.668 524.836 146.399 524.977C146.131 525.118 145.734 525.297 145.197 525.528C143.63 526.187 141.99 526.656 140.312 526.925C137.621 527.414 134.845 527.018 132.396 525.797C130.881 524.984 129.59 523.809 128.636 522.376C127.541 520.748 127.085 518.771 127.358 516.827C127.515 515.771 127.957 514.778 128.636 513.956C129.013 513.51 129.487 513.155 130.021 512.92C130.555 512.685 131.135 512.574 131.718 512.598C132.314 512.649 132.892 512.822 133.418 513.106C133.944 513.391 134.406 513.78 134.775 514.251C135.562 515.177 136.048 516.321 136.169 517.532C136.267 518.784 136.096 520.042 135.668 521.223C135.241 522.403 134.565 523.478 133.688 524.375C131.864 526.302 129.407 527.503 126.769 527.758C124.051 528.032 121.307 527.691 118.738 526.758C115.986 525.906 113.544 524.262 111.718 522.03C110.774 520.838 110.205 519.393 110.081 517.878C110.004 517.087 110.102 516.289 110.367 515.541C110.632 514.792 111.059 514.111 111.615 513.546C112.22 512.951 113.02 512.596 113.866 512.547C114.699 512.528 115.519 512.76 116.219 513.213C117.564 514.104 118.513 515.481 118.866 517.057C119.168 518.597 119.064 520.188 118.567 521.675C118.069 523.163 117.194 524.495 116.027 525.541C113.742 527.474 110.903 528.632 107.92 528.847C105.093 529.177 102.228 528.897 99.5178 528.027C96.8583 527.188 94.5887 525.419 93.1237 523.042C92.397 521.913 91.9465 520.629 91.8088 519.293C91.671 517.957 91.8498 516.607 92.3308 515.353C92.572 514.726 92.9666 514.17 93.4783 513.735C93.99 513.301 94.6024 513.002 95.2593 512.867C95.8919 512.753 96.5412 512.772 97.1662 512.922C97.7913 513.072 98.3786 513.35 98.8911 513.738C99.7907 514.538 100.431 515.588 100.729 516.755C101.028 517.922 100.971 519.152 100.566 520.287C99.8696 522.308 98.6092 524.087 96.9345 525.413C94.1613 527.758 90.6877 529.11 87.0621 529.257C84.3608 529.341 81.6834 528.728 79.2868 527.476C77.7701 526.7 76.3917 525.678 75.2074 524.452C74.811 524.016 74.5168 523.683 74.3378 523.439C74.2346 523.329 74.1484 523.204 74.082 523.068C75.6022 524.749 77.4186 526.135 79.4403 527.156C81.8201 528.334 84.462 528.882 87.1132 528.745C90.6124 528.546 93.9481 527.194 96.602 524.9C98.1568 523.638 99.3266 521.964 99.9781 520.069C100.308 519.078 100.34 518.013 100.072 517.004C99.8038 515.995 99.2466 515.087 98.4691 514.392C98.0411 514.069 97.5502 513.839 97.0282 513.718C96.5062 513.596 95.9646 513.586 95.4383 513.687C94.9045 513.796 94.4076 514.04 93.9955 514.397C93.5833 514.754 93.2699 515.211 93.0853 515.725C92.6649 516.856 92.5164 518.072 92.6519 519.272C92.7874 520.472 93.2032 521.623 93.8654 522.632C95.218 524.817 97.3036 526.449 99.7479 527.232C102.341 528.052 105.079 528.31 107.779 527.989C110.572 527.786 113.231 526.705 115.375 524.9C116.418 523.958 117.201 522.763 117.649 521.43C118.097 520.097 118.195 518.67 117.933 517.288C117.645 515.929 116.843 514.735 115.695 513.956C115.174 513.579 114.539 513.394 113.898 513.434C113.256 513.474 112.648 513.735 112.178 514.174C111.712 514.644 111.355 515.212 111.134 515.837C110.913 516.462 110.833 517.128 110.899 517.788C111.009 519.13 111.512 520.409 112.344 521.466C114.064 523.555 116.352 525.1 118.93 525.913C121.382 526.812 124.004 527.15 126.603 526.899C129.036 526.664 131.304 525.564 132.997 523.798C133.803 522.989 134.427 522.018 134.829 520.948C135.23 519.879 135.399 518.736 135.325 517.596C135.146 515.468 133.534 513.405 131.591 513.277C131.106 513.254 130.623 513.344 130.179 513.539C129.736 513.735 129.343 514.031 129.033 514.405C128.405 515.13 127.993 516.019 127.844 516.968C127.584 518.762 127.999 520.588 129.007 522.094C129.894 523.459 131.102 524.585 132.524 525.374C134.882 526.604 137.568 527.052 140.197 526.656C141.859 526.409 143.489 525.979 145.057 525.374C146.22 524.964 146.77 524.721 146.783 524.746Z" fill="#FAFAFA"/>
<path d="M80.2971 477.408V510.855H145.862V477.408H80.2971Z" fill="#EBEBEB"/>
<path d="M91.1926 478.561C91.4355 478.561 91.6402 485.815 91.6402 494.747C91.6402 503.679 91.4355 510.932 91.1926 510.932C90.9496 510.932 90.7961 503.691 90.7961 494.747C90.7961 485.802 90.9368 478.561 91.1926 478.561Z" fill="#E0E0E0"/>
<path d="M96.1672 478.151C96.4101 478.151 96.6148 485.302 96.6148 494.131C96.6148 502.961 96.4101 510.112 96.1672 510.112C95.9242 510.112 95.7068 502.948 95.7068 494.131C95.7068 485.315 95.9114 478.151 96.1672 478.151Z" fill="#E0E0E0"/>
<path d="M138.458 477.075C138.701 477.075 138.906 484.61 138.906 493.901C138.906 503.192 138.701 510.727 138.458 510.727C138.215 510.727 137.998 503.192 137.998 493.901C137.998 484.61 138.202 477.075 138.458 477.075Z" fill="#E0E0E0"/>
<path d="M132.614 477.523C132.857 477.523 133.061 484.866 133.061 493.914C133.061 502.961 132.857 510.317 132.614 510.317C132.371 510.317 132.153 502.974 132.153 493.914C132.153 484.853 132.358 477.523 132.614 477.523Z" fill="#E0E0E0"/>
<path d="M485.555 404.401C492.358 400.89 500.351 400.429 507.909 401.684C511.963 402.351 516.183 403.568 518.945 406.618C521.707 409.668 522.219 415.038 519.06 417.665C517.168 419.228 514.546 419.459 512.091 419.433C506.182 419.369 499.635 418.318 494.916 421.881C492.218 423.918 490.427 427.289 487.243 428.288C484.059 429.288 480.542 427.404 478.88 424.559C477.342 421.592 477.003 418.146 477.933 414.935C478.31 412.71 479.193 410.602 480.515 408.775C481.837 406.948 483.562 405.451 485.555 404.401Z" fill="#EBEBEB"/>
<path d="M469.979 374.273C474.135 380.219 482.217 378.259 485.964 374.619C489.711 370.98 491.297 365.726 492.729 360.715C496.028 349.182 499.341 337.212 496.898 325.538C496.31 321.998 494.757 318.689 492.409 315.978C491.221 314.647 489.706 313.649 488.015 313.085C486.324 312.521 484.515 312.409 482.767 312.762C478.688 313.838 476.156 317.888 474.327 321.642C468.937 332.868 466.11 345.156 466.053 357.614C466.053 363.419 466.718 369.493 469.979 374.273Z" fill="#EBEBEB"/>
<path d="M458.572 382.808C463.086 377.451 463.943 369.621 461.935 362.894C459.927 356.166 455.388 350.45 450.157 345.786C444.007 340.291 436.843 336.055 429.069 333.317C426.065 332.097 422.832 331.546 419.593 331.702C417.977 331.798 416.408 332.287 415.022 333.126C413.636 333.966 412.475 335.131 411.639 336.52C409.414 340.762 411.55 345.914 413.852 350.104C417.905 357.5 422.532 364.566 427.688 371.236C431.845 376.593 436.64 381.885 442.919 384.307C449.198 386.729 455.822 386.447 459.173 382.052" fill="#EBEBEB"/>
<path d="M469.698 464.016C469.917 463.13 470.046 462.224 470.081 461.312C470.273 459.339 470.503 456.866 470.797 453.931C471.165 450.3 471.716 446.69 472.447 443.115C473.41 438.745 474.723 434.459 476.373 430.3C477.993 426.169 480.185 422.287 482.882 418.767C485.084 415.904 487.893 413.567 491.105 411.924C493.286 410.836 495.626 410.105 498.036 409.758C498.943 409.722 499.843 409.589 500.722 409.361C499.812 409.269 498.895 409.269 497.985 409.361C495.488 409.551 493.045 410.189 490.773 411.244C487.383 412.847 484.411 415.216 482.089 418.164C479.266 421.736 476.99 425.71 475.337 429.954C473.687 434.158 472.404 438.497 471.501 442.923C470.805 446.544 470.323 450.202 470.056 453.88C469.826 457.019 469.736 459.557 469.698 461.312C469.604 462.211 469.604 463.117 469.698 464.016Z" fill="#E0E0E0"/>
<path d="M470.209 458.339C470.286 457.917 470.312 457.487 470.286 457.058C470.286 456.11 470.286 454.931 470.286 453.47C470.286 450.356 470.286 445.858 470.439 440.296C470.721 429.16 471.718 417.229 473.521 400.313C475.273 384.436 477.613 365.969 480.094 353.962C480.619 351.232 481.156 348.772 481.667 346.619C482.179 344.466 482.55 342.608 482.946 341.095C483.343 339.583 483.56 338.532 483.777 337.61C483.892 337.19 483.97 336.761 484.008 336.328C483.81 336.695 483.664 337.088 483.573 337.494C483.291 338.404 482.946 339.532 482.524 340.929C482.102 342.326 481.591 344.273 481.054 346.426C480.516 348.579 479.903 351.014 479.327 353.744C476.255 367.945 473.946 382.301 472.409 396.751C470.567 413.666 469.736 429.07 469.659 440.219C469.595 445.793 469.659 450.317 469.851 453.431C469.941 454.879 470.017 456.071 470.068 457.019C470.062 457.463 470.109 457.907 470.209 458.339Z" fill="#E0E0E0"/>
<path d="M470.286 428.634C470.384 427.385 470.384 426.129 470.286 424.879C470.145 422.47 469.813 418.997 469.135 414.73C468.32 409.742 467.222 404.805 465.849 399.942C464.237 393.962 462.172 388.114 459.672 382.449C455.393 371.999 449.253 362.415 441.551 354.167C440.215 352.751 438.788 351.424 437.28 350.194C436.627 349.643 436.001 349.079 435.464 348.643C434.927 348.208 434.313 347.862 433.814 347.503C432.821 346.742 431.764 346.069 430.655 345.491C430.476 345.734 435.118 348.464 440.975 354.705C448.42 363.03 454.396 372.563 458.649 382.898C461.099 388.532 463.171 394.325 464.851 400.236C466.266 405.057 467.44 409.946 468.368 414.884C469.135 419.1 469.583 422.573 469.851 424.931C469.897 426.175 470.042 427.413 470.286 428.634Z" fill="#E0E0E0"/>
<path d="M439.646 476.524L442.625 517.301H494.89L497.87 476.524H439.646Z" fill="#EBEBEB"/>
<path d="M504.098 460.441H434.594V476.511H504.098V460.441Z" fill="#EBEBEB"/>
<path d="M434.594 515.737V520.197H437.868H502.96V515.737H434.594Z" fill="#E0E0E0"/>
<path d="M441.065 527.54L437.868 519.697H500.466L496.732 527.54H441.065Z" fill="#E0E0E0"/>
<path d="M496.898 489.851C496.827 489.981 496.745 490.105 496.655 490.223C496.438 490.492 496.182 490.838 495.875 491.261L492.819 495.105L492.691 495.272L492.563 495.093L485.082 484.725H485.504L478.138 495.169L477.908 495.503L477.652 495.195L468.918 484.777H469.416C469.263 484.956 469.109 485.174 468.943 485.379L461.13 495.195L460.861 495.515L460.631 495.182L453.252 484.725H453.687L444.607 495.08L444.454 495.272L444.326 495.067L441.487 490.274C441.18 489.762 440.95 489.339 440.758 488.993C440.662 488.85 440.584 488.694 440.528 488.531C440.644 488.657 440.746 488.795 440.835 488.941L441.64 490.223L444.62 494.913H444.339L453.29 484.431L453.508 484.161L453.712 484.443L461.155 494.849H460.644L468.444 485.02C468.611 484.815 468.777 484.61 468.918 484.418L469.173 484.097L469.429 484.405L478.138 494.849H477.652L485.095 484.456L485.312 484.149L485.517 484.456L492.844 494.939H492.576C493.919 493.337 494.967 492.055 495.747 491.094C496.093 490.697 496.374 490.377 496.591 490.108C496.809 489.838 496.885 489.838 496.898 489.851Z" fill="#F5F5F5"/>
<path d="M498.599 476.255C498.599 476.434 485.491 476.575 469.34 476.575C453.188 476.575 440.08 476.434 440.08 476.255C440.08 476.075 453.175 475.921 469.34 475.921C485.504 475.921 498.599 476.062 498.599 476.255Z" fill="#F5F5F5"/>
<path d="M200.557 51.4648C200.451 51.4494 200.348 51.4192 200.25 51.3751L199.406 51.0419L196.184 49.7604L184.355 44.6345L145.479 27.6547L144.123 27.0652H144.404L106.308 43.3786L94.799 48.2355L91.6531 49.517C91.293 49.6813 90.9211 49.8184 90.5405 49.927C90.881 49.7224 91.2357 49.5425 91.6019 49.3888L94.6327 47.9792L106.142 42.9301L144.123 26.3988H144.264L144.404 26.4629L145.76 27.0524L184.559 44.2116L196.286 49.4913L199.496 50.901L200.314 51.3111C200.402 51.3513 200.484 51.403 200.557 51.4648Z" fill="#E0E0E0"/>
<path d="M261.199 45.8647H11.4583V233.258H261.199V45.8647Z" fill="#E0E0E0"/>
<path d="M253.411 54.5789H20.1926V225.556H253.411V54.5789Z" fill="#FAFAFA"/>
<path d="M71.7034 129.277C71.7034 129.277 71.9463 157.983 73.4042 166.735L109.326 165.031C109.326 165.031 106.18 136.838 107.395 129.277H71.7034Z" fill="#E0E0E0"/>
<path d="M89.4022 133.339H89.9265C90.4266 133.321 90.9272 133.347 91.4228 133.416C93.2894 133.658 94.9946 134.602 96.1928 136.056C97.0157 137.071 97.6012 138.258 97.9064 139.529C98.1873 141.018 98.0591 142.555 97.5355 143.976C97.2702 144.746 96.932 145.488 96.5253 146.193C96.0986 146.922 95.7143 147.675 95.3743 148.448C94.6554 150.082 94.1648 151.807 93.9165 153.574V153.702H93.8014H90.259H86.5377H86.397V153.561C86.237 151.807 85.6437 150.12 84.6706 148.653C84.2358 147.91 83.7626 147.218 83.3918 146.513C82.9219 145.854 82.4948 145.164 82.113 144.45C81.4552 143.089 81.2577 141.551 81.5503 140.067C81.7612 138.787 82.236 137.565 82.9442 136.479C83.547 135.607 84.3438 134.888 85.2716 134.377C85.9661 133.99 86.7106 133.702 87.484 133.519C87.968 133.404 88.4594 133.322 88.9546 133.275H89.3383H88.9546C88.4676 133.345 87.9851 133.443 87.5096 133.57C86.7555 133.769 86.0294 134.061 85.3484 134.442C84.4493 134.962 83.6763 135.675 83.0849 136.53C82.4266 137.607 81.9916 138.806 81.806 140.054C81.526 141.492 81.7237 142.982 82.3687 144.296C82.7574 144.998 83.1843 145.679 83.6475 146.334C84.0951 147.026 84.5683 147.718 85.0031 148.461C86.0105 149.967 86.6219 151.704 86.7806 153.51L86.64 153.382H90.3613H93.9165L93.7758 153.497C94.0359 151.729 94.5349 150.005 95.2592 148.371C95.6076 147.593 96.0004 146.836 96.4357 146.103C96.8282 145.406 97.1619 144.677 97.4332 143.925C97.957 142.544 98.0941 141.046 97.8296 139.593C97.5353 138.354 96.9721 137.194 96.18 136.197C95.5237 135.381 94.6992 134.717 93.763 134.249C93.0556 133.903 92.3017 133.661 91.5251 133.532C91.0388 133.453 90.5469 133.415 90.0544 133.416H89.5301L89.4022 133.339Z" fill="white"/>
<path d="M91.2437 153.331C91.2411 153.292 91.2411 153.254 91.2437 153.215V152.882C91.2437 152.588 91.1286 152.152 91.0519 151.601C90.8857 150.486 90.6427 148.871 90.4892 146.859C90.4892 146.347 90.4125 145.821 90.3997 145.27C90.3676 144.698 90.3676 144.125 90.3997 143.553C90.4131 142.929 90.5523 142.315 90.8089 141.746C91.0578 141.155 91.5058 140.669 92.075 140.375C92.4026 140.244 92.7607 140.209 93.1073 140.275C93.4538 140.341 93.7745 140.504 94.0316 140.747C94.1628 140.875 94.2667 141.028 94.3371 141.198C94.4074 141.367 94.4427 141.55 94.4408 141.733C94.431 142.108 94.3059 142.47 94.0827 142.771C93.8469 143.063 93.5501 143.299 93.2131 143.463C92.8733 143.621 92.5174 143.741 92.1517 143.822C90.6516 144.112 89.1153 144.164 87.5991 143.976C87.225 143.914 86.8599 143.807 86.5121 143.656C86.1744 143.503 85.8701 143.286 85.6169 143.015C85.3579 142.748 85.1766 142.416 85.0926 142.054C85.0122 141.695 85.0573 141.319 85.2205 140.99C85.2915 140.824 85.3948 140.674 85.5244 140.549C85.6539 140.423 85.8071 140.325 85.975 140.26C86.1346 140.191 86.3064 140.155 86.4801 140.155C86.6538 140.155 86.8257 140.191 86.9853 140.26C87.2923 140.409 87.5564 140.633 87.7526 140.913C87.935 141.186 88.0651 141.49 88.1362 141.81C88.2445 142.415 88.3044 143.028 88.3152 143.643L88.4943 146.949C88.5966 148.961 88.6733 150.588 88.7245 151.716C88.7245 152.28 88.7245 152.716 88.7245 152.998V153.459C88.7272 153.421 88.7272 153.382 88.7245 153.344C88.7245 153.254 88.7245 153.151 88.7245 152.998C88.7245 152.844 88.7245 152.267 88.6477 151.716C88.6477 150.588 88.4815 148.961 88.3664 146.949C88.3664 145.937 88.2513 144.834 88.1874 143.656C88.1798 143.044 88.1156 142.435 87.9955 141.836C87.9356 141.528 87.8138 141.236 87.6375 140.977C87.4549 140.709 87.2029 140.497 86.9085 140.362C86.761 140.299 86.6022 140.266 86.4418 140.266C86.2813 140.266 86.1226 140.299 85.975 140.362C85.669 140.5 85.4203 140.74 85.2716 141.041C85.1253 141.353 85.0849 141.704 85.1565 142.041C85.2399 142.383 85.412 142.697 85.6553 142.951C86.1708 143.469 86.8477 143.794 87.5735 143.873C88.3234 143.976 89.0806 144.015 89.837 143.989C90.5936 143.965 91.3467 143.875 92.0878 143.72C92.4468 143.651 92.7952 143.534 93.1236 143.374C93.453 143.226 93.7391 142.997 93.9548 142.707C94.1675 142.431 94.2883 142.095 94.3001 141.746C94.2994 141.577 94.2651 141.409 94.1993 141.253C94.1334 141.096 94.0373 140.955 93.9165 140.836C93.6759 140.606 93.3745 140.45 93.0481 140.387C92.7218 140.323 92.384 140.355 92.075 140.477C91.5118 140.741 91.0591 141.195 90.7961 141.759C90.553 142.313 90.4185 142.909 90.3997 143.515C90.3997 144.104 90.3997 144.681 90.3997 145.232C90.3997 145.783 90.3997 146.308 90.4892 146.808C90.6427 148.82 90.8729 150.435 91.0135 151.562C91.0903 152.113 91.1542 152.549 91.1926 152.844V153.177C91.2148 153.226 91.232 153.278 91.2437 153.331Z" fill="white"/>
<path d="M86.5122 153.523C86.5694 153.918 86.6036 154.316 86.6145 154.715C86.6145 155.586 86.704 156.624 86.7679 157.842V157.765L89.1849 160.558H89.057L91.8577 160.392H91.7426L93.1237 158.687L93.827 157.842V157.944C93.827 156.304 93.7503 154.753 93.7247 153.331L93.8782 153.472H88.6478H87.0749H86.5122C86.6781 153.457 86.845 153.457 87.0109 153.472L88.4816 153.395L93.8015 153.19H93.9549V153.331C93.9549 154.753 94.0444 156.304 94.0956 157.944L93.3539 158.905L91.9472 160.597H91.8704L89.0698 160.738H88.9931L86.6145 157.906C86.6145 156.667 86.6145 155.603 86.6145 154.715C86.4994 153.907 86.4994 153.51 86.5122 153.523Z" fill="white"/>
<path d="M93.7376 157.624C93.7376 157.624 93.6353 157.624 93.469 157.521L92.7401 157.227C91.9175 156.946 91.0511 156.816 90.1825 156.842C89.3048 156.868 88.4387 157.05 87.6248 157.38L86.9599 157.624C86.8801 157.677 86.7942 157.72 86.7041 157.752L86.9599 157.624C87.1845 157.486 87.4197 157.366 87.6632 157.265C88.4687 156.901 89.3379 156.701 90.2209 156.675C91.0922 156.656 91.9596 156.799 92.7785 157.098C93.0245 157.193 93.2638 157.304 93.4946 157.432L93.7376 157.624Z" fill="white"/>
<path d="M93.7246 156.458L93.4688 156.342C93.2309 156.236 92.9876 156.142 92.7399 156.06C91.9188 155.773 91.0513 155.643 90.1823 155.676C89.3038 155.695 88.4366 155.878 87.6246 156.214C87.3177 156.342 87.0875 156.458 86.9213 156.547L86.6655 156.676C86.7314 156.606 86.8095 156.55 86.8957 156.509C87.1224 156.371 87.3573 156.247 87.5991 156.137C89.217 155.411 91.0559 155.356 92.7143 155.984C92.9599 156.074 93.1991 156.181 93.4305 156.304C93.5363 156.339 93.6357 156.391 93.7246 156.458Z" fill="white"/>
<path d="M93.6607 155.394L93.405 155.279C93.2259 155.202 92.983 155.099 92.676 154.997C91.0384 154.431 89.2504 154.485 87.6503 155.151C87.3434 155.266 87.1132 155.394 86.9469 155.471C86.8672 155.524 86.7813 155.567 86.6912 155.599C86.761 155.538 86.8383 155.486 86.9214 155.445C87.1465 155.305 87.3816 155.18 87.6247 155.074C88.4292 154.709 89.2995 154.513 90.1823 154.497C91.0545 154.466 91.9241 154.61 92.74 154.92C92.9855 155.011 93.2247 155.118 93.4561 155.24C93.584 155.33 93.6735 155.381 93.6607 155.394Z" fill="white"/>
<path d="M31.7019 82.3616C31.7019 82.3616 31.9705 111.067 33.4027 119.82L69.3248 118.115C69.3248 118.115 66.1661 89.9225 67.381 82.3616H31.7019Z" fill="#EBEBEB"/>
<path d="M61.9717 94.4205C57.9837 95.0044 53.9662 95.3637 49.938 95.497C45.9244 95.8526 41.8938 95.9767 37.866 95.8686C41.8452 95.2892 45.8547 94.9426 49.8741 94.8306C53.8945 94.4461 57.9346 94.3092 61.9717 94.4205Z" fill="white"/>
<path d="M61.9717 100.495C57.9848 101.088 53.9667 101.447 49.938 101.571C45.9249 101.935 41.8938 102.059 37.866 101.943C41.8454 101.359 45.8544 101 49.8741 100.866C53.8962 100.51 57.9354 100.386 61.9717 100.495Z" fill="white"/>
<path d="M55.8717 106.467C53.6228 106.953 51.3306 107.211 49.03 107.235C46.7386 107.473 44.4287 107.473 42.1372 107.235C44.386 106.75 46.6785 106.496 48.9789 106.479C51.2702 106.242 53.5796 106.237 55.8717 106.467Z" fill="white"/>
<path d="M30.0012 166.799C30.0012 166.799 30.2442 195.505 31.7021 204.257L67.6241 202.553C67.6241 202.553 64.4654 174.36 65.6803 166.799H30.0012Z" fill="#EBEBEB"/>
<path d="M60.2708 178.858C56.2838 179.45 52.2658 179.81 48.2371 179.935C44.224 180.298 40.1929 180.422 36.165 180.306C40.1477 179.713 44.1615 179.354 48.1859 179.23C52.2038 178.874 56.2387 178.75 60.2708 178.858Z" fill="white"/>
<path d="M60.2708 184.932C56.2889 185.534 52.2748 185.897 48.2499 186.022C44.232 186.377 40.1971 186.502 36.165 186.393C40.1521 185.801 44.1701 185.442 48.1987 185.317C52.2119 184.954 56.2427 184.825 60.2708 184.932Z" fill="white"/>
<path d="M54.1708 190.943C51.9219 191.429 49.6297 191.687 47.3291 191.712C45.0396 191.966 42.7301 191.988 40.4363 191.776C42.6955 191.265 45.0007 190.986 47.3163 190.943C49.5953 190.712 51.8918 190.712 54.1708 190.943Z" fill="white"/>
<path d="M128.176 89.9609L131.731 172.745L234.855 174.001L230.226 91.063L128.176 89.9609Z" fill="#EBEBEB"/>
<path d="M229.42 89.3714H126.974V166.889H229.42V89.3714Z" fill="#F5F5F5"/>
<path d="M229.42 166.889C229.42 166.889 229.42 166.389 229.42 165.454C229.42 164.518 229.42 163.109 229.42 161.315C229.42 157.675 229.42 152.344 229.344 145.629C229.344 132.109 229.254 112.772 229.19 89.3714L229.484 89.6662L126.987 89.7046L127.345 89.3458C127.345 117.231 127.345 143.617 127.345 166.863L127.025 166.543L200.928 166.71L221.939 166.786H227.528H228.973H227.553H222.029L201.095 166.876L126.987 167.03H126.603V166.71C126.603 143.463 126.603 117.077 126.603 89.192V88.846H126.961H229.395H229.689V89.1279C229.689 112.605 229.574 132.007 229.535 145.514C229.535 152.242 229.535 157.521 229.459 161.135C229.459 162.916 229.459 164.275 229.459 165.223C229.459 166.171 229.42 166.889 229.42 166.889Z" fill="#E0E0E0"/>
<path d="M180.863 105.8H139.34V158.175H180.863V105.8Z" fill="#F5F5F5"/>
<path d="M180.863 158.175C180.851 158.086 180.851 157.995 180.863 157.906V157.162C180.863 156.47 180.863 155.509 180.863 154.292C180.863 151.729 180.863 148.128 180.787 143.553C180.787 134.326 180.684 121.281 180.621 105.8L180.94 106.108H139.417L139.762 105.762V120.05C139.762 124.698 139.762 129.23 139.762 133.647C139.762 142.438 139.762 150.691 139.762 158.162L139.481 157.88L169.546 158.021L177.973 158.098H180.211H181.004H180.275H178.101L169.725 158.175L139.481 158.316H139.187V158.021C139.187 150.55 139.187 142.297 139.187 133.506C139.187 129.098 139.187 124.566 139.187 119.909V105.813L139.545 105.454H181.068H181.388V105.775C181.324 121.345 181.26 134.454 181.222 143.732L181.145 154.407C181.145 155.599 181.145 156.535 181.145 157.201C181.145 157.496 181.145 157.726 181.145 157.919C181.062 158.015 180.967 158.101 180.863 158.175Z" fill="#E0E0E0"/>
<path d="M220.507 93.8054H140.926V101.353H220.507V93.8054Z" fill="#F5F5F5"/>
<path d="M220.507 101.353C220.507 101.353 220.507 101.174 220.507 100.841C220.507 100.508 220.507 99.995 220.507 99.3799C220.507 98.0984 220.507 96.2018 220.417 93.8054L220.558 93.9592C207.143 94.0745 176.554 94.1642 140.977 94.1642C141.68 93.4594 141.169 93.972 141.335 93.8182V95.7404C141.335 96.3812 141.335 97.0219 141.335 97.6499V101.353L140.99 101.007L197.399 101.161L214.33 101.264H218.947H220.149H220.571C220.448 101.285 220.323 101.285 220.2 101.264H219.036H214.509L197.654 101.366L140.99 101.52H140.645V101.161C140.645 99.9694 140.645 98.7263 140.645 97.4576V93.6132L141.003 93.2543C176.579 93.2543 207.169 93.344 220.584 93.4594H220.737V93.6003C220.737 96.0352 220.711 97.919 220.66 99.2517C220.66 99.854 220.66 100.328 220.66 100.687C220.651 100.917 220.599 101.143 220.507 101.353Z" fill="#E0E0E0"/>
<path d="M220.52 105.8H185.953V137.363H220.52V105.8Z" fill="#F5F5F5"/>
<path d="M220.507 137.363C220.507 137.363 220.507 137.146 220.507 136.748V135.031C220.507 133.493 220.507 131.328 220.43 128.624C220.43 123.075 220.341 115.232 220.277 105.826L220.571 106.121H186.043L186.388 105.775V114.22C186.388 117 186.388 119.717 186.388 122.37C186.388 127.662 186.388 132.622 186.388 137.312L186.081 137.005L211.005 137.158L218.077 137.235H219.97H220.635C220.435 137.254 220.234 137.254 220.034 137.235H218.205L211.21 137.325L186.081 137.479H185.761V137.171C185.761 132.532 185.761 127.521 185.761 122.229C185.761 119.576 185.761 116.859 185.761 114.079V105.826C185.442 106.133 186.183 105.39 186.119 105.467H220.647H220.954V105.775C220.954 115.258 220.839 123.164 220.801 128.765C220.801 131.469 220.737 133.609 220.724 135.172C220.724 135.864 220.724 136.454 220.724 136.825C220.671 137.012 220.598 137.192 220.507 137.363Z" fill="#E0E0E0"/>
<path d="M220.52 142.31H185.953V158.175H220.52V142.31Z" fill="#F5F5F5"/>
<path d="M220.507 158.175C220.507 158.175 220.507 157.752 220.507 157.022V153.831C220.507 151.037 220.43 147.116 220.366 142.297L220.622 142.553L186.094 142.643L186.439 142.297V150.447C186.439 153.1 186.439 155.663 186.439 158.136L186.107 157.803L210.813 157.97L218.026 158.06H219.97C220.199 158.031 220.431 158.031 220.66 158.06C220.456 158.078 220.251 158.078 220.046 158.06H218.167L211.044 158.149L186.107 158.316H185.761V157.97C185.761 155.509 185.761 152.946 185.761 150.281V142.131L186.119 141.772L220.647 141.874H220.916V142.131C220.916 147 220.814 150.973 220.788 153.805C220.788 155.086 220.788 156.15 220.724 156.932C220.693 157.352 220.62 157.769 220.507 158.175Z" fill="#E0E0E0"/>
<path d="M179.84 105.89C166.976 123.677 152.18 140.375 139.391 158.175L179.84 105.89Z" fill="white"/>
<path d="M139.391 158.175C139.391 158.175 139.481 157.957 139.724 157.585L140.811 155.984C141.757 154.612 143.177 152.652 144.967 150.242C148.535 145.437 153.637 138.927 159.367 131.802C165.096 124.677 170.198 118.231 173.919 113.502L178.255 107.902L179.444 106.39C179.725 106.048 179.879 105.881 179.904 105.89C179.809 106.094 179.694 106.287 179.559 106.467L178.472 108.068C177.526 109.44 176.106 111.413 174.316 113.81C170.748 118.615 165.646 125.125 159.916 132.25C154.187 139.375 149.046 145.821 145.376 150.55L141.041 156.15L139.852 157.662C139.716 157.848 139.561 158.02 139.391 158.175Z" fill="#E0E0E0"/>
<path d="M180.864 158.162C180.71 158.29 171.285 146.629 159.827 132.199C148.369 117.769 139.187 105.916 139.366 105.8C139.545 105.685 148.931 117.334 160.402 131.763C171.873 146.193 181.017 158.047 180.864 158.162Z" fill="#E0E0E0"/>
<path d="M131.718 105.903C131.718 107.19 131.337 108.449 130.624 109.519C129.91 110.59 128.895 111.424 127.708 111.917C126.521 112.41 125.215 112.539 123.955 112.288C122.694 112.036 121.537 111.416 120.628 110.506C119.72 109.596 119.101 108.436 118.85 107.173C118.6 105.91 118.728 104.601 119.22 103.411C119.712 102.222 120.544 101.205 121.613 100.49C122.681 99.7745 123.937 99.3927 125.222 99.3927C126.945 99.3927 128.597 100.079 129.816 101.299C131.034 102.52 131.718 104.176 131.718 105.903Z" fill="#E0E0E0"/>
<path d="M237.988 90.1019C237.988 91.3884 237.608 92.646 236.895 93.716C236.183 94.786 235.17 95.6204 233.984 96.1139C232.798 96.6073 231.493 96.7377 230.234 96.4886C228.975 96.2395 227.817 95.622 226.907 94.7141C225.998 93.8063 225.377 92.6487 225.124 91.3876C224.87 90.1265 224.995 88.8183 225.483 87.6283C225.971 86.4384 226.799 85.4199 227.864 84.7015C228.929 83.9831 230.183 83.597 231.466 83.5919C232.322 83.5885 233.169 83.7544 233.96 84.0801C234.752 84.4057 235.471 84.8847 236.077 85.4896C236.683 86.0944 237.163 86.8132 237.491 87.6047C237.82 88.3962 237.988 89.2448 237.988 90.1019Z" fill="#E0E0E0"/>
<path d="M492.116 135.454H417.253V244.202H492.116V135.454Z" fill="#E0E0E0"/>
<path d="M488.368 135.454H413.506V244.202H488.368V135.454Z" fill="#F5F5F5"/>
<path d="M479.072 147.231H422.803V232.425H479.072V147.231Z" fill="white"/>
<path d="M479.071 232.412C479.071 232.412 479.071 232.271 479.071 232.002C479.071 231.733 479.071 231.31 479.071 230.784C479.071 229.721 479.071 228.157 479.071 226.12C479.071 222.032 479.071 216.086 479.071 208.563C479.071 193.544 479.071 172.271 478.982 147.231L479.174 147.41H422.906L423.11 147.205C423.11 179.332 423.11 208.973 423.11 232.386L422.944 232.232L463.866 232.309H475.184H478.151H479.187H478.189H475.248H463.969L422.918 232.399H422.752V232.232C422.752 208.82 422.752 179.179 422.752 147.051V146.846H479.404V147.039C479.404 172.13 479.34 193.454 479.314 208.55C479.314 216.047 479.314 221.98 479.314 226.056C479.314 228.08 479.314 229.631 479.314 230.695C479.314 231.207 479.314 231.604 479.314 231.874L479.071 232.412Z" fill="#E0E0E0"/>
<path d="M488.573 135.454C488.206 136.136 487.778 136.784 487.294 137.389C486.425 138.555 485.184 140.144 483.778 141.861C482.371 143.579 481.054 145.091 480.082 146.167C479.578 146.775 479.027 147.341 478.432 147.859C478.856 147.192 479.335 146.562 479.864 145.975L483.471 141.592C484.826 139.939 486.028 138.44 487.064 137.21C487.521 136.586 488.025 135.999 488.573 135.454Z" fill="#E0E0E0"/>
<path d="M479.353 232.143C482.149 236.601 485.44 240.728 489.161 244.445L479.353 232.143Z" fill="white"/>
<path d="M489.161 244.432C488.54 243.978 487.97 243.458 487.46 242.882C486.153 241.55 484.915 240.151 483.752 238.691C482.589 237.235 481.501 235.721 480.491 234.155C480.04 233.527 479.658 232.853 479.353 232.143C479.858 232.723 480.32 233.34 480.734 233.988C481.552 235.154 482.716 236.743 484.072 238.435C485.427 240.126 486.719 241.626 487.665 242.677C488.209 243.222 488.709 243.809 489.161 244.432Z" fill="#E0E0E0"/>
<path d="M413.494 244.112C416.75 240.062 420.02 236.017 423.302 231.976L413.494 244.112Z" fill="white"/>
<path d="M423.289 231.951C423.366 232.027 421.243 234.795 418.545 238.153C416.942 240.217 415.234 242.197 413.43 244.086C414.899 241.935 416.483 239.865 418.174 237.884C419.777 235.82 421.485 233.84 423.289 231.951Z" fill="#E0E0E0"/>
<path d="M413.506 135.454C415.194 137.267 416.782 139.171 418.264 141.157C419.846 143.059 421.327 145.044 422.701 147.103C421.009 145.294 419.421 143.39 417.944 141.4C416.357 139.501 414.875 137.516 413.506 135.454Z" fill="#E0E0E0"/>
<path d="M461.539 164.518H442.702V218.123H461.539V164.518Z" fill="#E0E0E0"/>
<path d="M474.863 19.9017L464.146 19.9598L464.435 73.3974L475.151 73.3393L474.863 19.9017Z" fill="#E0E0E0"/>
<path d="M399.056 20.044L371.306 20.1945L371.466 49.694L399.216 49.5436L399.056 20.044Z" fill="#EBEBEB"/>
<path d="M426.665 19.8943L398.915 20.0447L399.074 49.5443L426.824 49.3938L426.665 19.8943Z" fill="#F5F5F5"/>
<path d="M371.344 28.3594C389.784 28.5132 408.276 28.3594 426.717 28.1032C426.795 28.1032 426.869 28.0721 426.925 28.0168C426.98 27.9615 427.011 27.8866 427.011 27.8084C427.011 27.7302 426.98 27.6553 426.925 27.6C426.869 27.5447 426.795 27.5137 426.717 27.5137C408.259 27.4111 389.801 27.5265 371.344 27.8597C371.287 27.8726 371.237 27.9043 371.201 27.9497C371.164 27.9951 371.145 28.0515 371.145 28.1096C371.145 28.1676 371.164 28.224 371.201 28.2694C371.237 28.3148 371.287 28.3465 371.344 28.3594Z" fill="#E0E0E0"/>
<path d="M404.418 49.0533L353.995 49.3267L354.125 73.3671L404.548 73.0938L404.418 49.0533Z" fill="#EBEBEB"/>
<path d="M454.609 48.7811L404.186 49.0545L404.316 73.095L454.739 72.8216L454.609 48.7811Z" fill="#F5F5F5"/>
<path d="M354.029 56.0269C387.534 56.4114 421.141 56.0269 454.633 55.5399C454.702 55.5256 454.764 55.4878 454.809 55.4329C454.854 55.3781 454.878 55.3095 454.878 55.2388C454.878 55.1681 454.854 55.0995 454.809 55.0446C454.764 54.9898 454.702 54.952 454.633 54.9376C421.128 54.771 387.521 54.7839 354.029 55.5271C353.972 55.54 353.922 55.5718 353.885 55.6172C353.849 55.6626 353.83 55.7189 353.83 55.777C353.83 55.8351 353.849 55.8914 353.885 55.9368C353.922 55.9822 353.972 56.014 354.029 56.0269Z" fill="#E0E0E0"/>
<path d="M530.531 73.3912H335.179V82.0028H530.531V73.3912Z" fill="#E0E0E0"/>
<path d="M375.091 77.5304H367.162V106.915H375.091V77.5304Z" fill="#E0E0E0"/>
<path d="M493.471 77.5304H485.542V106.915H493.471V77.5304Z" fill="#E0E0E0"/>
<path d="M485.318 -0.0309423L474.602 0.0271606L474.998 73.5198L485.715 73.4617L485.318 -0.0309423Z" fill="#EBEBEB"/>
<path d="M502.055 13.6544L485.405 13.7446L485.726 73.3076L502.376 73.2173L502.055 13.6544Z" fill="#F5F5F5"/>
<path d="M501.95 25.1558C499.184 25.4442 496.403 25.5427 493.624 25.4505C490.846 25.5432 488.064 25.4447 485.299 25.1558C490.834 24.764 496.389 24.764 501.924 25.1558H501.95Z" fill="#E0E0E0"/>
<path d="M501.95 22.6568C499.184 22.9368 496.403 23.031 493.624 22.9387C490.846 23.0315 488.065 22.9373 485.299 22.6568C490.834 22.265 496.389 22.265 501.924 22.6568H501.95Z" fill="#E0E0E0"/>
<path d="M501.95 64.2798C499.184 64.5683 496.403 64.6667 493.624 64.5745C490.846 64.6672 488.064 64.5687 485.299 64.2798C490.834 63.888 496.389 63.888 501.924 64.2798H501.95Z" fill="#E0E0E0"/>
<path d="M501.95 61.7808C499.184 62.0608 496.403 62.155 493.624 62.0628C490.846 62.1555 488.065 62.0613 485.299 61.7808C490.834 61.3891 496.389 61.3891 501.924 61.7808H501.95Z" fill="#E0E0E0"/>
<path d="M493.893 56.3858C493.727 56.3858 493.599 50.3756 493.599 42.9685C493.599 35.5615 493.727 29.5385 493.893 29.5385C494.059 29.5385 494.174 35.5487 494.174 42.9685C494.174 50.3884 494.046 56.3858 493.893 56.3858Z" fill="#E0E0E0"/>
<path d="M520.249 28.3082H502.128V73.2631H520.249V28.3082Z" fill="#EBEBEB"/>
<path d="M511.707 61.6014C511.172 61.6272 510.637 61.5403 510.137 61.3464C509.638 61.1525 509.184 60.8558 508.806 60.4755C508.428 60.0952 508.133 59.6397 507.941 59.1384C507.749 58.6371 507.664 58.101 507.692 57.5647C507.66 56.9751 507.778 56.3871 508.035 55.8559C508.293 55.3246 508.68 54.8676 509.162 54.5276L509.571 55.0914C509.188 55.3761 508.879 55.75 508.672 56.1809C508.465 56.6118 508.365 57.0867 508.382 57.5647C508.382 58.4586 508.736 59.3159 509.367 59.9479C509.998 60.58 510.853 60.9351 511.745 60.9351C512.637 60.9351 513.493 60.58 514.124 59.9479C514.754 59.3159 515.109 58.4586 515.109 57.5647C515.126 57.0853 515.026 56.6088 514.816 56.1774C514.607 55.7461 514.294 55.3731 513.907 55.0914L514.329 54.5276C514.805 54.8723 515.187 55.3306 515.442 55.861C515.696 56.3913 515.815 56.9769 515.786 57.5647C515.815 58.1067 515.728 58.6485 515.532 59.1545C515.337 59.6605 515.036 60.1193 514.651 60.5006C514.265 60.8819 513.804 61.1771 513.297 61.3669C512.789 61.5566 512.247 61.6365 511.707 61.6014Z" fill="#FAFAFA"/>
<path d="M514.725 53.4127L514.085 53.0539C514.716 52.2309 515.053 51.2205 515.045 50.1833C515.045 48.4917 514.444 47.8254 513.548 47.8254C511.221 47.8254 512.935 53.1179 509.801 53.1179C508.599 53.1179 507.615 52.1055 507.615 50.0936C507.599 49.1223 507.87 48.1681 508.395 47.3512L509.009 47.6972C508.528 48.4072 508.278 49.2486 508.292 50.1064C508.292 51.6698 508.932 52.3618 509.789 52.3618C512.18 52.3618 510.492 47.0565 513.536 47.0565C514.814 47.0565 515.71 48.1714 515.71 50.2089C515.761 51.3589 515.413 52.4912 514.725 53.4127Z" fill="#FAFAFA"/>
<path d="M514.725 46.1338L514.124 45.775C514.754 44.9472 515.091 43.9328 515.083 42.8916C515.083 41.2129 514.482 40.5337 513.587 40.5337C511.259 40.5337 512.973 45.8391 509.84 45.8391C508.638 45.8391 507.653 44.8267 507.653 42.8019C507.637 41.8307 507.909 40.8765 508.433 40.0595L509.047 40.4183C508.566 41.1283 508.316 41.9697 508.331 42.8275C508.331 44.3781 508.97 45.0702 509.827 45.0702C512.218 45.0702 510.53 39.7776 513.574 39.7776C514.853 39.7776 515.748 40.8925 515.748 42.9301C515.789 44.0846 515.427 45.2174 514.725 46.1338Z" fill="#FAFAFA"/>
<path d="M479.8 15.6343C481.503 15.6343 482.882 14.2515 482.882 12.5459C482.882 10.8402 481.503 9.45746 479.8 9.45746C478.098 9.45746 476.719 10.8402 476.719 12.5459C476.719 14.2515 478.098 15.6343 479.8 15.6343Z" fill="#E0E0E0"/>
<path d="M480.747 21.0421H478.841V64.7667H480.747V21.0421Z" fill="#E0E0E0"/>
<path d="M553 529.693C553 529.872 429.479 530.026 277.146 530.026C124.813 530.026 1.27881 529.872 1.27881 529.693C1.27881 529.514 124.774 529.347 277.159 529.347C429.543 529.347 553 529.501 553 529.693Z" fill="#263238"/>
<path d="M150.645 89.1279C130.184 121.486 131.463 166.325 153.893 197.389C168.842 218.085 191.26 231.989 209.061 250.25C226.863 268.512 240.392 295.5 230.993 319.259C221.428 343.44 193.409 353.282 172.436 368.596C149.306 385.497 133.609 410.72 128.64 438.97C123.671 467.22 129.816 496.3 145.785 520.107H363.671C363.671 520.107 401.959 446.985 352.737 391.266C303.515 335.546 277.082 334.637 278.898 298.101C280.714 261.566 306.239 249.686 320.83 235.987C335.422 222.288 406.511 190.315 364.579 89.1279H150.645Z" fill="#FAFAFA"/>
<path d="M150.645 89.128H154.392H165.441L207.974 89.0639L364.579 88.9485H364.745V89.0895C367.939 96.7987 370.651 104.699 372.865 112.746C375.221 121.122 376.771 129.704 377.495 138.376C378.249 147.44 377.784 156.565 376.114 165.505C374.278 174.772 370.953 183.68 366.267 191.878C363.836 196.058 361.091 200.046 358.057 203.809C354.953 207.617 351.6 211.213 348.018 214.573C344.384 217.984 340.581 221.209 336.624 224.236C332.659 227.311 328.516 230.22 324.475 233.283C322.454 234.821 320.638 236.538 318.669 238.255C316.7 239.973 314.743 241.562 312.723 243.176C308.694 246.406 304.628 249.584 300.791 253.172C292.784 260.122 286.631 268.962 282.888 278.892C281.086 283.965 279.942 289.25 279.486 294.616C279.371 295.974 279.192 297.32 279.141 298.678C279.09 300.036 279.038 301.395 279.141 302.753C279.171 305.48 279.445 308.199 279.959 310.878C281.001 316.29 283.238 321.4 286.507 325.833C289.847 330.293 293.631 334.402 297.799 338.097C306.085 345.683 314.858 352.924 323.26 360.728C331.662 368.532 339.885 376.708 347.813 385.32C351.853 389.594 355.636 394.104 359.144 398.827C362.666 403.62 365.731 408.735 368.3 414.102C373.476 424.978 376.655 436.698 377.687 448.702C378.73 460.877 378.015 473.139 375.564 485.11C374.364 491.169 372.792 497.147 370.858 503.012C368.97 508.926 366.667 514.699 363.965 520.287L363.875 520.466H145.555L145.466 520.325C135.248 504.904 128.98 487.197 127.217 468.771C125.446 451.066 128.036 433.197 134.762 416.729C141.154 400.989 150.997 386.891 163.561 375.478C169.658 370.084 176.243 365.271 183.229 361.099C190.033 356.858 196.9 352.949 203.383 348.669C209.877 344.603 215.839 339.743 221.134 334.201C226.195 328.767 229.949 322.244 232.106 315.132C233.999 308.194 234.296 300.916 232.975 293.847C231.715 287.011 229.444 280.403 226.236 274.24C223.163 268.321 219.486 262.738 215.264 257.58C211.2 252.637 206.785 247.994 202.054 243.689C192.833 235.18 183.383 227.734 174.891 220.084C170.633 216.239 166.605 212.395 162.883 208.461C159.273 204.612 155.948 200.504 152.934 196.171C147.477 188.23 143.271 179.495 140.466 170.272C138.004 162.313 136.577 154.069 136.22 145.744C136.041 143.835 136.118 141.9 136.118 140.144C136.118 138.389 136.118 136.53 136.284 134.8C136.45 133.07 136.54 131.379 136.667 129.674C136.795 127.97 137.141 126.445 137.358 124.907C138.731 115.473 141.575 106.314 145.785 97.7652C146.364 96.4452 147.022 95.1613 147.755 93.9207L149.328 91.2552C150.159 89.82 150.607 89.1023 150.607 89.1023L149.328 91.2937L147.806 93.972C147.084 95.2145 146.435 96.4982 145.862 97.8165C141.657 106.383 138.81 115.553 137.422 124.997C137.205 126.548 136.949 128.124 136.757 129.764C136.565 131.404 136.501 133.096 136.373 134.89C136.245 136.684 136.245 138.401 136.233 140.221C136.22 142.041 136.233 143.899 136.348 145.808C136.739 154.085 138.192 162.277 140.67 170.182C143.477 179.367 147.678 188.063 153.126 195.966C156.132 200.286 159.453 204.376 163.062 208.204C166.771 212.151 170.735 215.983 175.058 219.738C183.549 227.427 192.961 234.795 202.245 243.317C207.023 247.626 211.481 252.277 215.583 257.234C219.838 262.419 223.537 268.037 226.62 273.996C229.857 280.189 232.15 286.832 233.423 293.706C234.762 300.847 234.465 308.2 232.553 315.209C230.387 322.404 226.598 329.003 221.479 334.496C216.161 340.07 210.173 344.96 203.652 349.053C197.143 353.359 190.276 357.281 183.485 361.51C176.529 365.666 169.975 370.463 163.906 375.837C151.417 387.184 141.632 401.199 135.274 416.845C128.606 433.25 126.068 451.048 127.882 468.668C129.645 486.989 135.882 504.594 146.041 519.928L145.785 519.787H363.671L363.377 519.966C366.072 514.421 368.372 508.692 370.257 502.82C372.173 496.993 373.727 491.052 374.912 485.033C377.351 473.126 378.062 460.928 377.022 448.818C376.01 436.879 372.852 425.222 367.699 414.41C365.155 409.08 362.119 404.001 358.632 399.237C355.141 394.516 351.375 390.006 347.353 385.73C339.467 377.118 331.295 368.929 322.838 361.164C314.449 353.359 305.689 346.132 297.39 338.532C293.185 334.806 289.368 330.663 285.995 326.166C282.684 321.652 280.416 316.456 279.358 310.955C278.846 308.241 278.567 305.489 278.527 302.727C278.463 301.356 278.527 299.985 278.527 298.614C278.527 297.243 278.757 295.884 278.859 294.526C279.326 289.107 280.486 283.77 282.312 278.648C286.087 268.623 292.298 259.699 300.382 252.685C304.218 249.135 308.323 245.906 312.352 242.677C314.372 241.062 316.354 239.447 318.285 237.768C320.216 236.09 322.122 234.321 324.117 232.783C328.184 229.708 332.314 226.812 336.266 223.736C340.215 220.722 344.009 217.51 347.634 214.112C351.199 210.773 354.535 207.198 357.622 203.412C360.635 199.668 363.366 195.706 365.794 191.558C370.451 183.415 373.759 174.569 375.589 165.364C377.273 156.482 377.759 147.413 377.034 138.401C376.322 129.731 374.784 121.149 372.443 112.772C370.234 104.745 367.535 96.8618 364.361 89.1664L364.579 89.3202L208.064 89.2561L165.505 89.192H154.43L150.645 89.128Z" fill="#263238"/>
<path d="M355.883 148.461C387.981 153.741 337.378 210.716 308.72 233.194C292.095 246.214 274.32 260.323 266.442 279.917C257.49 302.125 264.128 327.101 259.805 349.451C259.666 350.221 259.241 350.911 258.615 351.38C257.99 351.85 257.21 352.065 256.433 351.982C255.656 351.899 254.939 351.525 254.425 350.934C253.912 350.343 253.641 349.58 253.667 348.797C253.871 334.124 253.488 319.464 251.109 305.021C247.669 284.517 239.817 264.27 225.533 249.263C213.832 237.012 198.498 228.875 186.03 217.418C167.82 200.759 149.11 179.115 147.282 154.433C147.282 154.433 182.245 126.24 201.657 129.777C224.343 133.942 246.672 169.004 281.814 164.992C306.265 162.186 318.656 142.323 355.883 148.461Z" fill="#E8505B"/>
<path d="M358.734 453.38C357.929 445.345 355.78 436.234 348.657 432.44C344.348 430.146 339.092 430.403 334.36 431.646C329.629 432.889 325.191 435.042 320.511 436.439C311.207 439.178 301.272 438.864 292.159 435.542C283.45 432.338 275.982 426.571 267.862 421.983C259.741 417.396 250.316 414.025 241.313 416.281C225.788 420.125 217.706 438.873 202.36 443.397C195.531 445.409 188.204 444.281 181.273 442.705C174.341 441.129 167.372 439.104 160.274 439.373C154.699 439.591 148.906 441.513 145.005 445.332L144.903 445.46C144.251 446.09 143.66 446.781 143.138 447.524C138.381 453.931 137.614 462.44 139.084 470.206C140.721 478.895 144.775 486.929 149.123 494.631C154.238 503.704 160.07 512.739 168.536 518.787C178.996 526.246 192.13 521.094 204.931 522.107C234.766 524.464 266.864 526.079 296.712 523.76C312.48 522.542 327.25 524.247 339.757 514.558C348.555 507.741 354.284 497.463 357.046 486.66C359.809 475.857 359.847 464.478 358.734 453.38Z" fill="#E8505B"/>
<g opacity="0.24">
<path d="M302.415 437.976C300.74 440.539 300.011 444.025 301.648 446.652C303.285 449.279 305.485 451.663 306.162 454.661C307.275 459.39 304.436 464.003 302.326 468.361C298.421 476.174 296.946 484.982 298.093 493.644C299.3 502.336 303.779 510.236 310.613 515.725C313.643 518.07 317.582 519.889 321.24 518.749C324.68 517.66 326.892 514.161 327.634 510.624C328.375 507.087 327.749 503.422 327.301 499.834C325.219 483.175 325.65 466.297 328.58 449.766C329.066 446.998 329.526 443.858 327.787 441.667C326.532 440.392 324.939 439.503 323.196 439.104C316.546 436.887 309.372 439.348 302.479 438.04" fill="black"/>
</g>
<path d="M129.736 530.026C129.736 530.026 129.135 519.992 142.179 514.417H371.408C371.408 514.417 383.365 520.479 384.835 529.795L129.736 530.026Z" fill="#263238"/>
<path d="M366.561 90.3582L366.19 90.5247L150.645 89.1279C150.645 89.1279 149.878 88.641 148.74 87.7439C147.396 86.6891 146.415 85.2391 145.936 83.5975C145.457 81.9558 145.502 80.205 146.067 78.5907C146.631 76.9764 147.685 75.5796 149.082 74.5965C150.479 73.6134 152.148 73.0933 153.855 73.1092L363.07 74.8008C371.676 74.8649 374.362 86.6546 366.561 90.3582Z" fill="#263238"/>
<g opacity="0.24">
<path d="M332.058 172.745C332.493 173.578 330.869 175.385 327.787 178.128C324.705 180.87 320.114 184.65 314.411 189.302C307.563 194.972 300.295 200.113 292.671 204.68C287.935 207.397 282.956 209.662 277.798 211.447C275.001 212.422 272.143 213.214 269.243 213.817C266.2 214.478 263.107 214.881 259.997 215.022C253.697 215.365 247.389 214.494 241.416 212.459C236.137 210.529 231.119 207.946 226.479 204.77C222.182 201.912 218.486 199.093 214.97 196.402C211.453 193.711 208.32 191.084 205.481 188.636C194.163 178.807 188.204 171.579 189.355 170.182C190.506 168.786 198.562 173.335 211.095 181.024L221.325 187.303C224.995 189.533 228.921 191.993 232.937 194.275C236.922 196.619 241.144 198.53 245.533 199.977C250.022 201.337 254.715 201.893 259.396 201.617C269.217 201.118 278.744 197.645 286.993 193.659C295.241 189.674 302.709 184.984 309.18 181.357C314.301 178.326 319.655 175.707 325.191 173.527C329.181 172.207 331.636 171.951 332.058 172.745Z" fill="black"/>
</g>
<path d="M253.82 376.221C254.715 375.928 255.689 375.999 256.531 376.42C257.374 376.84 258.017 377.577 258.322 378.469C258.627 379.362 258.569 380.339 258.16 381.189C257.752 382.039 257.025 382.693 256.139 383.01C255.252 383.328 254.277 383.282 253.423 382.884C252.57 382.486 251.907 381.767 251.579 380.883C251.25 379.999 251.283 379.02 251.669 378.16C252.055 377.3 252.763 376.626 253.641 376.285" fill="#E8505B"/>
<path d="M176.733 208.499C176.457 208.264 176.2 208.007 175.965 207.73C175.454 207.154 174.751 206.449 173.881 205.436C173.011 204.424 171.835 203.232 170.646 201.733L166.579 196.607C165.185 194.633 163.612 192.519 162.026 190.199L159.686 186.47C159.29 185.83 158.868 185.189 158.484 184.522L157.359 182.434C153.948 176.37 151.282 169.916 149.417 163.211C147.535 156.535 146.52 149.644 146.399 142.707C146.399 141.118 146.489 139.555 146.514 138.043C146.514 137.287 146.514 136.543 146.617 135.813C146.719 135.082 146.77 134.352 146.847 133.647C147.013 132.237 147.115 130.866 147.307 129.572C147.499 128.278 147.768 127.009 147.985 125.83C148.343 123.446 148.982 121.345 149.43 119.422C149.673 118.5 149.865 117.628 150.108 116.859C150.351 116.091 150.594 115.373 150.811 114.732L151.796 111.785C151.896 111.438 152.025 111.099 152.179 110.772C152.128 111.13 152.043 111.482 151.924 111.823C151.706 112.566 151.425 113.553 151.054 114.809L150.415 116.949C150.197 117.744 150.018 118.615 149.788 119.512C149.379 121.383 148.778 123.472 148.509 125.92C148.305 127.111 148.1 128.342 147.883 129.636C147.665 130.93 147.614 132.302 147.461 133.698C147.397 134.403 147.32 135.121 147.243 135.851C147.166 136.582 147.243 137.312 147.166 138.068C147.166 139.568 147.064 141.118 147.077 142.707C147.225 149.593 148.248 156.431 150.121 163.057C151.982 169.69 154.613 176.081 157.96 182.1C158.335 182.809 158.706 183.501 159.072 184.176C159.443 184.856 159.865 185.458 160.249 186.137L162.551 189.866C164.111 192.211 165.658 194.339 167.014 196.274C168.369 198.209 169.827 199.875 171.004 201.4C172.18 202.925 173.293 204.116 174.137 205.154L176.132 207.538C176.361 207.839 176.563 208.161 176.733 208.499Z" fill="#263238"/>
<path d="M164.597 398.878C164.653 398.727 164.731 398.584 164.827 398.455L165.594 397.25L166.873 395.303L167.679 394.021C167.999 393.598 168.369 393.175 168.74 392.74L171.298 389.677C172.283 388.613 173.408 387.511 174.597 386.294C177.358 383.641 180.289 381.171 183.37 378.899C190.161 373.773 198.92 368.647 208.409 362.637C213.396 359.552 218.192 356.167 222.77 352.501C227.676 348.575 232.011 343.981 235.648 338.853C242.3 328.612 245.914 316.689 246.071 304.47C246.233 294.516 244.568 284.616 241.16 275.265C238.905 268.946 236.071 262.85 232.694 257.055C231.505 255.005 230.533 253.428 229.868 252.377L229.113 251.173C229.024 251.032 228.943 250.887 228.87 250.737C228.984 250.86 229.087 250.993 229.177 251.134L229.983 252.301C230.686 253.339 231.697 254.864 232.911 256.927C236.39 262.692 239.302 268.782 241.607 275.111C245.109 284.501 246.843 294.46 246.723 304.483C246.669 307.378 246.434 310.267 246.019 313.133C245.604 316.126 244.976 319.085 244.14 321.988C242.43 328.12 239.763 333.942 236.236 339.237C232.558 344.414 228.176 349.051 223.218 353.013C218.612 356.682 213.791 360.072 208.78 363.163C199.138 369.07 190.365 374.196 183.575 379.322C180.497 381.572 177.559 384.007 174.776 386.614C173.587 387.806 172.449 388.895 171.451 389.933L168.894 392.957C168.51 393.419 168.139 393.829 167.82 394.239L166.988 395.456L165.709 397.366L164.891 398.532L164.597 398.878Z" fill="#263238"/>
<path d="M152.704 421.522C152.628 421.726 152.534 421.924 152.423 422.112L151.502 423.739C151.093 424.444 150.607 425.302 150.121 426.302C149.635 427.302 148.97 428.481 148.433 429.826C148.151 430.492 147.844 431.184 147.537 431.915C147.231 432.645 146.975 433.427 146.668 434.222C146.054 435.798 145.568 437.554 145.005 439.348C142.795 447.357 142.032 455.699 142.755 463.978C142.972 465.875 143.126 467.681 143.458 469.36C143.599 470.193 143.714 471.013 143.88 471.782L144.392 473.986C144.673 475.409 145.095 476.652 145.402 477.767C145.709 478.882 146.016 479.817 146.297 480.573C146.578 481.329 146.732 481.855 146.898 482.342C146.984 482.546 147.04 482.762 147.064 482.983C146.943 482.798 146.845 482.6 146.77 482.393C146.578 481.932 146.348 481.355 146.054 480.663C145.667 479.755 145.33 478.827 145.044 477.882C144.698 476.767 144.251 475.524 143.931 474.038C143.752 473.333 143.573 472.59 143.381 471.821C143.189 471.052 143.074 470.232 142.908 469.386C142.55 467.707 142.371 465.887 142.141 463.965C141.341 455.613 142.113 447.184 144.417 439.117C144.993 437.272 145.504 435.516 146.156 433.991C146.476 433.184 146.732 432.402 147.064 431.671C147.397 430.941 147.704 430.262 148.011 429.595C148.573 428.25 149.289 427.109 149.788 426.097C150.237 425.214 150.736 424.358 151.284 423.534L152.307 421.971C152.55 421.689 152.678 421.509 152.704 421.522Z" fill="#263238"/>
<path d="M310.753 452.368C310.753 452.368 310.676 452.444 310.497 452.56L309.704 453.06L306.648 454.931L304.359 456.212C303.515 456.673 302.581 457.109 301.584 457.622C299.563 458.596 297.338 459.826 294.704 460.825L290.612 462.504C289.192 463.081 287.645 463.517 286.085 464.068C282.977 465.208 279.524 466.015 275.931 466.951C260.152 470.645 243.787 471.081 227.834 468.232C224.19 467.476 220.699 466.848 217.527 465.874C215.941 465.413 214.381 465.054 212.923 464.593L208.754 463.132C206.082 462.273 203.78 461.146 201.721 460.287C200.698 459.826 199.739 459.441 198.882 459.006L196.555 457.788L193.357 456.084L192.539 455.635C192.441 455.589 192.351 455.528 192.271 455.456C192.271 455.456 192.386 455.456 192.577 455.571L193.421 455.969L196.67 457.558L199.01 458.724C199.879 459.121 200.851 459.493 201.874 459.928C203.933 460.761 206.235 461.851 208.921 462.671L213.077 464.093C214.535 464.567 216.095 464.913 217.681 465.375C220.839 466.323 224.305 466.925 227.911 467.656C243.789 470.42 260.057 469.984 275.765 466.374C279.345 465.452 282.785 464.657 285.893 463.555C287.453 463.03 288.988 462.594 290.407 462.043L294.499 460.402C297.134 459.441 299.372 458.237 301.392 457.301C302.39 456.814 303.336 456.391 304.18 455.943L306.456 454.661L309.615 452.906L310.446 452.457L310.753 452.368Z" fill="#263238"/>
<path d="M324.143 181.101C324.143 181.101 324.066 181.203 323.874 181.357L323.03 182.049L319.769 184.612C316.93 186.868 312.812 190.135 307.607 194.031C301.547 198.638 295.195 202.846 288.591 206.628C284.66 208.827 280.564 210.716 276.34 212.28C271.772 213.962 267.005 215.039 262.158 215.483C252.765 216.012 243.399 214.058 234.996 209.819C231.362 207.97 227.855 205.88 224.497 203.565C221.377 201.348 218.525 199.221 216.006 197.158C210.89 193.083 206.977 189.636 204.215 187.278L201.094 184.535L200.289 183.805L200.02 183.536C200.13 183.597 200.233 183.67 200.327 183.754L201.184 184.433L204.419 187.073C207.233 189.366 211.248 192.762 216.338 196.774C218.896 198.798 221.722 200.9 224.855 203.078C228.2 205.367 231.69 207.434 235.303 209.268C243.625 213.415 252.878 215.327 262.158 214.817C266.93 214.387 271.628 213.344 276.136 211.716C280.33 210.173 284.4 208.309 288.31 206.141C294.907 202.391 301.267 198.235 307.352 193.698C312.569 189.853 316.725 186.65 319.628 184.458L322.966 181.895L323.848 181.255L324.143 181.101Z" fill="#263238"/>
<g opacity="0.24">
<path d="M208.806 463.081C214.867 458.391 223.384 459.531 230.878 461.107C238.372 462.684 245.917 465.259 253.5 464.196C259.217 463.388 264.46 460.569 270.125 459.352C275.79 458.134 282.606 459.031 285.739 463.888C260.697 471.97 233.712 471.686 208.844 463.081" fill="black"/>
</g>
<path d="M420.284 428.301L392.751 397.404L392.47 434.965L400.756 459.057L318.426 473.384L314.935 408.246L309.001 358.267C308.646 355.287 309.287 352.274 310.824 349.697C312.36 347.121 314.705 345.128 317.493 344.03L340.166 335.06L372.136 340.929L384.925 345.786C390.314 347.847 395.117 351.2 398.915 355.551L437.561 399.826" fill="#E8505B"/>
<path d="M390.82 390.01C392.372 389.99 393.922 389.883 395.462 389.69C399.171 389.117 402.625 387.449 405.384 384.899C408.142 382.349 410.08 379.034 410.949 375.375C411.266 373.851 411.501 372.311 411.652 370.762C411.756 371.181 411.795 371.613 411.767 372.043C411.777 373.202 411.657 374.359 411.409 375.491C410.635 379.296 408.686 382.761 405.837 385.394C402.989 388.027 399.386 389.696 395.539 390.164C394.39 390.316 393.228 390.346 392.073 390.253C391.645 390.246 391.221 390.163 390.82 390.01Z" fill="white"/>
<path d="M393.224 433.363C393.416 433.363 393.467 420.356 393.339 404.311C393.211 388.267 392.943 375.247 392.751 375.247C392.559 375.247 392.508 388.293 392.598 404.311C392.687 420.33 393.032 433.376 393.224 433.363Z" fill="#263238"/>
<path d="M390.206 442.923L340.435 422.893C338.466 422.097 336.759 420.766 335.505 419.05C334.251 417.334 333.5 415.3 333.337 413.179L329.693 365.354C329.693 365.354 330.127 345.017 317.442 344.03L310.229 346.875C300.906 351.834 298.605 365.431 299.871 375.939C301.674 390.856 302.428 411.962 304.449 424.918C306.098 435.516 312.122 444.832 322.493 447.562L383.799 460.851L390.206 442.923Z" fill="#E8505B"/>
<path d="M330.409 372.594C330.491 372.957 330.542 373.325 330.562 373.697C330.639 374.478 330.754 375.529 330.882 376.849C331.137 379.656 331.496 383.603 331.93 388.447C332.365 393.291 332.851 399.185 333.414 405.657C333.542 407.272 333.682 408.938 333.823 410.629C333.921 412.35 334.135 414.063 334.462 415.755C334.809 417.47 335.676 419.037 336.943 420.24C338.311 421.433 339.861 422.398 341.534 423.098C355.256 429.057 367.904 433.965 377.085 437.412L387.994 441.436L390.961 442.538C391.31 442.646 391.649 442.788 391.971 442.961C391.609 442.895 391.254 442.797 390.91 442.667L387.904 441.68C385.347 440.821 381.51 439.527 376.932 437.835C367.686 434.491 355.026 429.659 341.253 423.739C339.509 423.01 337.897 421.997 336.483 420.74C335.126 419.449 334.197 417.772 333.823 415.935C333.493 414.213 333.283 412.47 333.196 410.719C333.056 409.027 332.928 407.361 332.8 405.747C332.301 399.339 331.841 393.444 331.521 388.523C331.201 383.603 330.882 379.707 330.677 376.9C330.592 375.585 330.528 374.534 330.485 373.748C330.427 373.366 330.401 372.98 330.409 372.594Z" fill="#263238"/>
<path d="M301.891 398.545C301.942 398.755 301.972 398.969 301.98 399.186L302.147 401.031C302.3 402.735 302.492 405.029 302.735 407.823C302.978 410.616 303.362 414.089 303.86 417.857C304.349 421.937 305.096 425.982 306.098 429.967C306.567 432.02 307.389 433.976 308.528 435.747C309.632 437.378 310.877 438.909 312.249 440.322C314.576 442.726 317.264 444.749 320.216 446.319C322.968 447.72 325.918 448.688 328.964 449.189C328.747 449.212 328.528 449.212 328.311 449.189C327.693 449.154 327.078 449.077 326.47 448.959C324.222 448.533 322.044 447.795 319.999 446.767C316.962 445.236 314.196 443.214 311.815 440.783C310.398 439.357 309.114 437.804 307.978 436.144C306.786 434.317 305.921 432.296 305.42 430.172C304.404 426.157 303.665 422.076 303.208 417.959C302.748 414.179 302.441 410.757 302.236 407.887C302.032 405.016 301.917 402.684 301.853 401.082C301.853 400.339 301.853 399.724 301.853 399.224C301.83 398.997 301.843 398.768 301.891 398.545Z" fill="#263238"/>
<path d="M323.171 432.069C323.298 431.13 323.607 430.224 324.079 429.403C325.102 427.361 326.523 425.544 328.258 424.061C329.993 422.577 332.007 421.457 334.181 420.766C335.063 420.429 336 420.264 336.944 420.279C336.944 420.394 335.92 420.599 334.386 421.214C332.33 422.006 330.423 423.141 328.746 424.572C327.073 426.013 325.651 427.724 324.539 429.634C323.644 431.108 323.273 432.107 323.171 432.069Z" fill="#263238"/>
<path d="M332.966 395.7C333.075 395.732 333.178 395.779 333.273 395.841L334.168 396.302C335.322 396.878 336.509 397.382 337.724 397.814C342.2 399.383 346.999 399.793 351.675 399.006C358.623 397.764 364.83 393.897 369.016 388.203C371.518 384.919 373.087 381.018 373.556 376.913C373.791 374.754 373.564 372.57 372.891 370.506C372.19 368.395 370.956 366.501 369.31 365.008C367.7 363.481 365.659 362.488 363.466 362.163C362.43 361.975 361.364 362.025 360.35 362.309C359.335 362.593 358.398 363.104 357.609 363.803C356.893 364.507 356.479 365.464 356.458 366.469C356.485 367.463 356.825 368.423 357.43 369.211C358.067 369.967 358.847 370.59 359.725 371.043C360.603 371.496 361.561 371.771 362.545 371.851C366.001 372.279 369.509 371.832 372.748 370.551C375.987 369.271 378.854 367.198 381.088 364.521C382.786 362.434 384.063 360.036 384.848 357.46C385.436 355.514 385.754 353.496 385.794 351.463C385.809 350.175 385.715 348.889 385.513 347.618C385.436 347.208 385.372 346.888 385.334 346.619C385.323 346.508 385.323 346.396 385.334 346.285C385.864 347.941 386.123 349.672 386.101 351.411C386.113 353.479 385.829 355.537 385.257 357.524C384.495 360.165 383.222 362.629 381.51 364.777C379.239 367.565 376.301 369.732 372.97 371.077C369.638 372.421 366.021 372.899 362.456 372.466C360.323 372.268 358.355 371.231 356.983 369.583C356.283 368.695 355.896 367.6 355.883 366.469C355.88 365.298 356.34 364.174 357.162 363.342C358.021 362.573 359.042 362.008 360.149 361.689C361.256 361.369 362.42 361.304 363.556 361.497C365.882 361.842 368.046 362.893 369.758 364.508C371.484 366.081 372.779 368.071 373.518 370.288C374.214 372.435 374.449 374.706 374.208 376.952C373.723 381.176 372.1 385.189 369.515 388.562C365.959 393.41 360.92 396.96 355.165 398.672C349.409 400.384 343.253 400.164 337.634 398.045C335.985 397.466 334.416 396.678 332.966 395.7Z" fill="white"/>
<path d="M300.356 382.936C300.58 382.558 300.856 382.213 301.175 381.911C301.996 381.052 302.895 380.271 303.86 379.579C307.124 377.326 310.921 375.974 314.871 375.657C317.038 375.417 319.229 375.512 321.367 375.939C323.105 376.297 324.787 376.888 326.368 377.695C327.429 378.234 328.447 378.855 329.411 379.553C329.785 379.782 330.121 380.068 330.409 380.399C330.332 380.501 328.849 379.374 326.163 378.118C322.66 376.497 318.78 375.877 314.948 376.324C311.1 376.638 307.387 377.887 304.129 379.963C301.661 381.603 300.446 383.039 300.356 382.936Z" fill="white"/>
<path d="M308.323 348.746C309.544 349.882 310.897 350.867 312.352 351.681C313.949 352.496 315.684 353.004 317.467 353.18C319.648 353.443 321.859 353.139 323.888 352.298C325.917 351.456 327.696 350.105 329.053 348.374C330.192 346.981 331.06 345.386 331.611 343.671C332.069 342.069 332.331 340.416 332.391 338.75C332.517 339.192 332.573 339.65 332.557 340.109C332.579 341.361 332.411 342.61 332.058 343.812C331.543 345.615 330.673 347.297 329.501 348.759C328.097 350.595 326.234 352.027 324.101 352.912C321.968 353.796 319.64 354.101 317.352 353.795C315.498 353.575 313.704 352.996 312.07 352.091C310.975 351.486 309.975 350.721 309.104 349.822C308.787 349.508 308.523 349.145 308.323 348.746Z" fill="white"/>
<path d="M351.675 427.378C351.678 427.064 351.712 426.751 351.778 426.443C351.955 425.553 352.252 424.691 352.66 423.88C354.286 420.895 356.927 418.594 360.103 417.396C364.778 415.539 369.949 415.354 374.745 416.87C377.38 417.665 380.398 418.626 382.418 421.202C382.925 421.86 383.245 422.643 383.344 423.469C383.443 424.295 383.318 425.132 382.981 425.892C382.213 427.38 380.964 428.564 379.438 429.249C377.97 429.982 376.359 430.38 374.72 430.416C373.091 430.5 371.486 430 370.193 429.006C369.597 428.495 369.111 427.868 368.763 427.163C368.416 426.458 368.215 425.69 368.172 424.905C368.088 423.429 368.319 421.953 368.85 420.574C370.777 415.902 374.448 412.169 379.08 410.168C382.153 408.792 385.522 408.215 388.876 408.489C390.098 408.582 391.302 408.837 392.457 409.245C392.457 409.322 391.178 408.899 388.851 408.746C385.555 408.586 382.27 409.224 379.272 410.604C377.207 411.562 375.318 412.862 373.684 414.448C371.811 416.249 370.349 418.435 369.4 420.856C368.903 422.149 368.689 423.534 368.773 424.918C368.81 425.619 368.99 426.305 369.303 426.933C369.615 427.561 370.053 428.118 370.589 428.57C371.755 429.476 373.208 429.931 374.681 429.852C376.219 429.818 377.731 429.441 379.106 428.75C380.498 428.138 381.643 427.072 382.354 425.725C382.642 425.071 382.749 424.35 382.664 423.64C382.578 422.93 382.303 422.256 381.868 421.689C380.98 420.553 379.836 419.644 378.531 419.036C377.267 418.43 375.954 417.937 374.605 417.562C369.934 416.061 364.894 416.192 360.307 417.934C357.203 419.065 354.59 421.245 352.916 424.098C352.364 425.134 351.947 426.236 351.675 427.378Z" fill="white"/>
<path d="M318.554 445.396C318.554 445.268 320.447 445.101 323.324 444.115C327.079 442.798 330.444 440.558 333.111 437.6C335.779 434.643 337.664 431.062 338.593 427.186C339.322 424.213 339.296 422.291 339.424 422.291C339.513 422.734 339.534 423.187 339.488 423.636C339.459 424.865 339.313 426.088 339.053 427.289C338.227 431.283 336.355 434.985 333.629 438.014C330.903 441.043 327.421 443.29 323.541 444.525C322.374 444.899 321.176 445.169 319.961 445.332C319.498 445.425 319.023 445.446 318.554 445.396Z" fill="white"/>
<path d="M302.415 408.22C302.601 408.107 302.804 408.025 303.016 407.977C303.426 407.848 304.014 407.656 304.794 407.464C307.005 406.867 309.298 406.634 311.584 406.772C313.172 406.892 314.728 407.278 316.188 407.912C317.891 408.644 319.373 409.81 320.485 411.296C321.711 412.976 322.305 415.037 322.16 417.114C322.08 418.215 321.743 419.281 321.176 420.228C320.604 421.234 319.699 422.009 318.618 422.419C318.048 422.611 317.438 422.651 316.848 422.534C316.258 422.417 315.709 422.148 315.255 421.753C314.485 420.901 314.069 419.787 314.091 418.639C314.025 416.597 314.427 414.567 315.267 412.705C315.961 411.129 316.961 409.707 318.208 408.521C319.455 407.336 320.924 406.41 322.531 405.798C324.69 404.991 327.022 404.761 329.296 405.132C329.909 405.236 330.512 405.391 331.099 405.593C331.496 405.734 331.7 405.824 331.687 405.849C331.675 405.875 330.831 405.58 329.258 405.388C327.034 405.124 324.779 405.419 322.697 406.247C319.612 407.487 317.143 409.901 315.83 412.962C315.048 414.739 314.676 416.671 314.743 418.613C314.719 419.589 315.067 420.537 315.715 421.266C316.082 421.578 316.523 421.79 316.996 421.88C317.47 421.97 317.958 421.935 318.413 421.778C319.363 421.431 320.16 420.759 320.664 419.882C321.18 419.021 321.486 418.051 321.559 417.05C321.694 415.129 321.155 413.221 320.037 411.654C318.996 410.244 317.608 409.127 316.009 408.412C314.609 407.779 313.114 407.385 311.584 407.246C309.349 407.069 307.099 407.225 304.909 407.707C303.298 408.041 302.441 408.271 302.415 408.22Z" fill="white"/>
<g opacity="0.3">
<path d="M375.973 437.22C370.64 434.209 365.436 431.889 359.873 429.352C354.31 426.815 348.849 423.572 345.205 418.651C338.337 409.373 339.117 395.982 332.097 386.819C332.557 392.987 333.013 399.143 333.465 405.285C333.887 410.937 333.03 416.511 336.649 420.343C339.706 423.585 345.665 426.058 349.885 427.455C358.364 430.249 367.494 434.414 375.973 437.22Z" fill="black"/>
</g>
<path d="M462.396 507.472C462.396 507.472 504.047 519.005 505.722 519.608C508.28 520.492 507.807 529.706 503.906 529.565C502.052 529.565 471.936 530.692 468.099 530.449C464.263 530.205 452.753 525.669 452.753 525.669L462.396 507.472Z" fill="#E8505B"/>
<path d="M479.749 523.439C480.264 521.905 480.879 520.407 481.591 518.954C482.49 517.612 483.472 516.328 484.532 515.109C483.051 515.927 481.822 517.136 480.979 518.604C480.135 520.073 479.71 521.745 479.749 523.439Z" fill="#263238"/>
<path d="M475.401 521.466C475.606 521.466 476.028 519.518 477.14 517.339C478.253 515.161 479.557 513.636 479.417 513.495C478.121 514.359 477.11 515.59 476.514 517.032C475.722 518.37 475.335 519.911 475.401 521.466Z" fill="#263238"/>
<path d="M471.335 520.364C471.54 518.87 471.865 517.396 472.307 515.955C472.959 514.614 473.721 513.328 474.583 512.111C473.176 512.902 472.128 514.205 471.654 515.75C470.978 517.195 470.864 518.84 471.335 520.364Z" fill="#263238"/>
<path d="M472.076 514.981C472.44 513.986 472.593 512.925 472.524 511.867C472.512 510.723 472.37 509.584 472.102 508.471C471.94 507.808 471.73 507.157 471.475 506.523C471.35 506.131 471.12 505.781 470.81 505.511C470.611 505.34 470.357 505.245 470.094 505.245C469.831 505.245 469.577 505.34 469.378 505.511C469.057 505.823 468.861 506.243 468.828 506.69C468.803 507.057 468.803 507.425 468.828 507.792C468.833 508.483 468.918 509.172 469.084 509.843C469.363 510.96 469.793 512.033 470.363 513.033C470.825 513.994 471.458 514.862 472.23 515.596C472.332 515.532 471.629 514.558 470.797 512.854C470.314 511.867 469.949 510.826 469.71 509.753C469.576 509.125 469.507 508.485 469.506 507.843C469.506 507.203 469.506 506.395 469.889 506.088C469.963 506.017 470.062 505.977 470.164 505.977C470.267 505.977 470.365 506.017 470.439 506.088C470.647 506.292 470.805 506.542 470.9 506.818C471.569 508.451 471.967 510.182 472.076 511.944C472.153 513.777 471.961 514.956 472.076 514.981Z" fill="#263238"/>
<path d="M472.025 514.546C471.175 514.199 470.255 514.054 469.34 514.123C468.343 514.11 467.35 514.23 466.386 514.482C465.787 514.605 465.209 514.817 464.672 515.109C464.329 515.282 464.053 515.562 463.884 515.906C463.715 516.251 463.664 516.642 463.738 517.019C463.834 517.378 464.022 517.704 464.285 517.966C464.548 518.227 464.876 518.413 465.235 518.505C465.848 518.659 466.489 518.659 467.102 518.505C468.084 518.269 469.007 517.833 469.813 517.224C470.573 516.713 471.229 516.06 471.744 515.302C470.977 515.761 470.238 516.266 469.532 516.814C468.757 517.342 467.889 517.716 466.974 517.916C466.465 518.038 465.935 518.038 465.427 517.916C465.185 517.853 464.965 517.727 464.788 517.552C464.61 517.376 464.482 517.157 464.416 516.916C464.379 516.682 464.419 516.441 464.53 516.231C464.641 516.021 464.816 515.852 465.03 515.75C465.508 515.494 466.014 515.296 466.539 515.161C467.458 514.905 468.401 514.742 469.352 514.674C470.977 514.494 472 514.661 472.025 514.546Z" fill="#263238"/>
<path d="M486.156 523.875C486.32 522.602 486.594 521.346 486.975 520.12C487.555 518.973 488.236 517.88 489.008 516.852C488.944 516.673 487.205 517.672 486.322 519.851C486.003 520.469 485.822 521.149 485.793 521.844C485.764 522.54 485.888 523.233 486.156 523.875Z" fill="#263238"/>
<path d="M457.088 525.81C457.599 526.115 458.139 526.368 458.7 526.566C460.207 527.153 461.754 527.632 463.329 528.001C468.551 529.149 473.893 529.657 479.238 529.514C485.478 529.449 491.105 529.168 495.184 529.001L500.006 528.745C500.599 528.744 501.191 528.679 501.77 528.552C501.182 528.461 500.586 528.435 499.993 528.476H495.172L479.238 528.796C473.943 528.932 468.648 528.502 463.444 527.514C459.454 526.694 457.14 525.682 457.088 525.81Z" fill="#263238"/>
<path d="M455.861 526.758C455.861 526.861 457.05 526.182 458.981 525.336C461.436 524.181 464.165 523.737 466.859 524.054C469.509 524.634 471.901 526.06 473.675 528.117C474.422 528.984 475.221 529.805 476.066 530.577C475.521 529.556 474.836 528.616 474.033 527.783C473.212 526.827 472.285 525.967 471.271 525.22C470.004 524.276 468.531 523.648 466.974 523.388C464.142 523.047 461.274 523.593 458.764 524.951C457.707 525.396 456.727 526.006 455.861 526.758Z" fill="#263238"/>
<path d="M418.174 495.938C418.174 495.938 378.761 521.799 377.354 522.85C375.231 524.452 377.661 532.115 381.344 530.782C383.083 530.154 416.154 520.94 419.709 519.556C423.264 518.172 432.842 510.342 432.842 510.342L418.174 495.938Z" fill="#E8505B"/>
<path d="M406.486 516.442C406.116 514.772 405.187 513.279 403.851 512.213C402.666 510.977 401.097 510.181 399.401 509.958C400.78 510.801 402.108 511.726 403.378 512.726C404.492 513.897 405.53 515.138 406.486 516.442Z" fill="#263238"/>
<path d="M410.028 513.238C409.527 511.776 408.708 510.443 407.631 509.335C406.555 508.227 405.246 507.372 403.8 506.831C403.698 507.01 405.424 508.113 407.125 509.804C408.826 511.496 409.836 513.328 410.028 513.238Z" fill="#263238"/>
<path d="M413.57 510.957C413.455 509.367 412.857 507.85 411.855 506.61C410.854 505.371 409.498 504.468 407.969 504.025C409.157 504.946 410.273 505.957 411.307 507.049C412.166 508.288 412.923 509.595 413.57 510.957Z" fill="#263238"/>
<path d="M411.23 506.049C411.332 506.049 410.795 504.922 410.348 503.089C410.08 502.019 409.921 500.924 409.875 499.821C409.83 499.173 409.83 498.522 409.875 497.873C409.866 497.581 409.942 497.292 410.092 497.04C410.147 496.953 410.234 496.891 410.335 496.867C410.435 496.843 410.541 496.859 410.629 496.912C411.077 497.092 411.307 497.861 411.524 498.463C411.712 499.077 411.841 499.708 411.908 500.347C412.007 501.44 411.972 502.542 411.806 503.627C411.537 505.511 411.166 506.639 411.269 506.677C411.797 505.766 412.145 504.761 412.292 503.717C412.536 502.59 412.622 501.434 412.547 500.283C412.495 499.597 412.371 498.918 412.176 498.258C412.069 497.905 411.941 497.558 411.793 497.22C411.618 496.806 411.3 496.47 410.898 496.272C410.661 496.158 410.392 496.134 410.139 496.202C409.885 496.27 409.665 496.426 409.517 496.643C409.305 497 409.194 497.407 409.197 497.822C409.152 498.496 409.152 499.173 409.197 499.847C409.276 500.992 409.491 502.123 409.836 503.217C410.093 504.251 410.568 505.216 411.23 506.049Z" fill="#263238"/>
<path d="M411.153 505.626C411.153 505.729 412.125 505.255 413.711 504.87C414.637 504.642 415.584 504.513 416.537 504.486C417.081 504.449 417.627 504.483 418.161 504.588C418.398 504.617 418.619 504.723 418.79 504.889C418.961 505.056 419.073 505.275 419.108 505.511C419.121 505.766 419.065 506.02 418.946 506.246C418.826 506.472 418.648 506.661 418.43 506.793C417.991 507.074 417.491 507.245 416.972 507.292C416.037 507.371 415.097 507.276 414.197 507.01C413.366 506.69 412.511 506.437 411.639 506.254C412.369 506.82 413.191 507.254 414.069 507.536C415.021 507.888 416.035 508.04 417.049 507.984C417.678 507.946 418.289 507.752 418.826 507.421C419.142 507.222 419.399 506.943 419.572 506.612C419.745 506.281 419.827 505.91 419.811 505.537C419.763 505.157 419.594 504.804 419.329 504.529C419.064 504.254 418.717 504.072 418.34 504.012C417.742 503.9 417.13 503.874 416.524 503.935C415.528 503.989 414.544 504.174 413.596 504.486C412.705 504.673 411.869 505.063 411.153 505.626Z" fill="#263238"/>
<path d="M386.37 529.411C386.37 529.411 387.035 529.001 387.342 527.873C387.647 526.404 387.382 524.873 386.6 523.593C386.224 522.904 385.797 522.244 385.321 521.62C384.96 521.087 384.53 520.604 384.042 520.184C383.679 519.881 383.234 519.693 382.764 519.646C382.431 519.646 382.265 519.723 382.265 519.761C382.797 519.911 383.288 520.183 383.697 520.556C384.124 520.994 384.505 521.475 384.835 521.991C385.297 522.612 385.724 523.258 386.114 523.926C386.822 525.075 387.128 526.428 386.984 527.771C386.808 528.328 386.604 528.876 386.37 529.411Z" fill="#263238"/>
<path d="M400.526 518.813C400.51 517.429 400.018 516.093 399.132 515.031C398.247 513.968 397.023 513.245 395.667 512.982C397.903 514.313 399.618 516.371 400.526 518.813Z" fill="#263238"/>
<path d="M428.801 511.803C428.194 512.159 427.613 512.557 427.062 512.995C425.5 514.082 423.877 515.079 422.202 515.981C419.723 517.294 417.16 518.441 414.529 519.415C411.537 520.543 408.135 521.594 404.657 522.619C397.559 524.657 391.14 526.528 386.51 527.924L381.037 529.616C380.359 529.797 379.696 530.033 379.055 530.321C379.753 530.234 380.442 530.084 381.114 529.872L386.651 528.399C391.319 527.117 397.751 525.336 404.849 523.273C408.391 522.247 411.754 521.171 414.747 520.005C417.39 518.997 419.955 517.793 422.42 516.404C424.088 515.451 425.686 514.38 427.202 513.2C427.78 512.788 428.315 512.32 428.801 511.803Z" fill="#263238"/>
<path d="M430.259 512.329C429.199 511.862 428.073 511.564 426.921 511.444C424.121 510.913 421.225 511.267 418.634 512.457C417.231 513.18 416.017 514.225 415.092 515.507C414.356 516.538 413.734 517.647 413.238 518.813C412.729 519.852 412.364 520.956 412.151 522.094C412.728 521.107 413.241 520.084 413.685 519.031C414.745 516.525 416.596 514.436 418.954 513.085C421.429 511.966 424.167 511.566 426.857 511.931C427.984 512.122 429.119 512.254 430.259 512.329Z" fill="#263238"/>
<path d="M500.095 432.914C500.095 432.914 511.924 437.143 511.963 450.432C512.065 475.883 460.656 503.935 460.656 503.935L392.24 458.506L387.956 456.776C387.956 456.776 480.312 422.009 500.095 432.914Z" fill="#263238"/>
<path d="M426.896 481.457C427.527 481.105 428.126 480.698 428.686 480.24C429.798 479.433 431.397 478.215 433.366 476.703C437.28 473.666 442.612 469.373 448.341 464.439C454.07 459.505 459.096 454.931 462.702 451.458C464.493 449.74 465.925 448.344 466.91 447.357C467.444 446.874 467.932 446.342 468.368 445.768C467.783 446.186 467.232 446.649 466.718 447.152L462.37 451.086C458.7 454.418 453.61 458.98 447.881 463.901C442.152 468.822 436.883 473.179 433.059 476.306C431.205 477.805 429.683 479.061 428.52 480.009C427.938 480.445 427.395 480.929 426.896 481.457Z" fill="#455A64"/>
<path d="M480.836 442.436C478.622 442.077 476.354 442.28 474.238 443.025C472.062 443.557 470.05 444.617 468.381 446.114C468.496 446.293 470.938 444.704 474.442 443.705C477.946 442.705 480.836 442.641 480.836 442.436Z" fill="#455A64"/>
<path d="M474.89 438.425C473.25 438.985 471.83 440.053 470.836 441.475C469.659 442.75 468.912 444.364 468.7 446.088C468.905 446.165 469.647 444.025 471.373 441.911C473.099 439.796 475.005 438.604 474.89 438.425Z" fill="#455A64"/>
<path d="M503.855 519.005C503.855 518.928 503.037 518.762 502.09 519.543C500.98 520.594 500.281 522.007 500.121 523.529C499.896 525.019 500.109 526.542 500.735 527.912C501.221 528.95 501.758 529.449 501.822 529.398C501.655 528.828 501.446 528.271 501.195 527.732C500.746 526.41 500.615 525.001 500.811 523.619C500.966 522.25 501.527 520.96 502.423 519.915C503.152 519.133 503.855 519.108 503.855 519.005Z" fill="#263238"/>
<path d="M484.366 391.343L459.991 453.239L355.09 454.943L353.146 449.266L389.912 447.921L407.585 393.022L484.366 391.343Z" fill="#455A64"/>
<path d="M435.361 418.139C436.166 417.732 437.07 417.566 437.966 417.661C438.862 417.757 439.712 418.11 440.413 418.677C441.006 419.24 441.417 419.968 441.593 420.768C441.768 421.568 441.7 422.402 441.397 423.162C441.066 423.918 440.532 424.566 439.855 425.034C439.177 425.502 438.383 425.773 437.561 425.815C436.696 425.866 435.837 425.636 435.113 425.158C434.389 424.68 433.839 423.98 433.545 423.162C433.072 421.496 433.609 419.01 435.31 418.139" fill="#EBEBEB"/>
<path d="M467.127 507.023C467.127 507.023 370.474 443.5 366.523 442.116C362.571 440.732 352.993 434.516 343.44 437.169C333.887 439.822 325.293 448.395 321.009 460.954C318.554 468.13 317.403 480.381 316.853 489.556C316.118 500.548 319.672 511.396 326.764 519.813C329.909 523.734 334.079 526.703 338.811 528.386C339.821 528.693 340.869 528.962 341.944 529.206C350.914 531.046 360.231 530.13 368.673 526.576C377.115 523.023 384.291 516.999 389.26 509.292L391.511 505.844C391.511 505.844 454.748 529.129 455.733 528.796L467.127 507.023Z" fill="#263238"/>
<path d="M347.558 489.531L348.082 489.762L349.668 490.39L355.793 492.747L378.531 501.359C388.199 504.986 399.785 509.279 412.79 514.02C425.796 518.762 440.195 523.952 455.592 529.18L455.861 529.27L456.002 529.014C458.418 524.388 460.963 519.505 463.559 514.558C464.838 511.995 466.181 509.522 467.396 507.19L467.536 506.908L467.268 506.729L393.544 459.826L371.446 445.832L365.436 442.077L363.863 441.116L363.313 440.796C363.477 440.928 363.647 441.052 363.824 441.167L365.359 442.192L371.305 446.037L393.339 460.223L466.948 507.305L466.82 506.857L462.984 514.225C460.426 519.172 457.869 524.054 455.439 528.668L455.861 528.501C440.515 523.298 426.064 518.121 413.046 513.431L378.735 500.911L355.896 492.517L349.732 490.274L348.12 489.697C347.937 489.63 347.749 489.574 347.558 489.531Z" fill="#455A64"/>
<path d="M357.584 263.988C359.233 259.528 362.878 257.58 367.495 256.465C369.817 255.927 372.234 255.957 374.542 256.553C376.851 257.148 378.982 258.292 380.756 259.887C383.096 262.04 384.81 265.013 387.7 266.295C392.47 268.447 398.57 265.295 403.046 267.935C404.39 268.729 405.419 269.964 405.957 271.432C406.495 272.9 406.509 274.51 405.996 275.987C405.484 277.464 404.477 278.717 403.146 279.534C401.816 280.351 400.244 280.681 398.698 280.468C401.805 281.942 402.381 286.619 400.245 289.31C398.109 292.001 394.158 292.732 390.846 291.796C387.582 290.674 384.686 288.68 382.469 286.03C380.142 283.467 378.096 280.699 375.564 278.341C373.137 275.862 369.91 274.327 366.459 274.009C361.817 273.83 357.507 276.957 355.09 280.929C352.673 284.902 351.739 289.592 351.062 294.193C350.384 298.793 349.872 303.509 348.095 307.815C347.89 308.315 347.583 308.879 347.059 308.994C346.279 309.148 345.716 308.289 345.409 307.571C341.91 299.337 340.059 290.494 339.962 281.544C339.898 276.418 340.486 271.523 343.696 267.448C346.906 263.373 354.31 260.848 357.545 263.898" fill="#263238"/>
<path d="M346.688 284.607L339.578 336.341C339.291 338.431 339.432 340.558 339.992 342.591C340.552 344.625 341.52 346.523 342.836 348.169C344.153 349.816 345.79 351.176 347.648 352.167C349.506 353.159 351.547 353.761 353.645 353.936C357.612 354.282 361.56 353.086 364.671 350.595C367.783 348.105 369.819 344.511 370.359 340.557C370.883 336.713 371.344 333.406 371.42 333.009C371.42 333.009 384.733 333.586 387.47 320.681C388.748 314.44 390.475 301.382 391.869 289.541C392.575 283.413 390.954 277.243 387.329 272.257C383.704 267.271 378.34 263.834 372.303 262.629L371.024 262.373C357.417 260.438 348.21 270.934 346.688 284.607Z" fill="#FFBE9D"/>
<path d="M371.42 332.83C365.424 331.759 359.884 328.917 355.512 324.667C355.512 324.667 357.635 334.778 370.743 336.2L371.42 332.83Z" fill="#EB996E"/>
<path d="M386.319 297.448C386.228 297.931 385.953 298.359 385.551 298.642C385.15 298.924 384.654 299.038 384.17 298.96C383.932 298.932 383.702 298.856 383.493 298.736C383.285 298.617 383.102 298.457 382.957 298.266C382.811 298.075 382.705 297.856 382.646 297.623C382.586 297.39 382.574 297.147 382.61 296.909C382.7 296.426 382.976 295.998 383.377 295.715C383.779 295.433 384.274 295.319 384.758 295.397C384.997 295.425 385.227 295.501 385.436 295.621C385.644 295.74 385.827 295.9 385.972 296.091C386.118 296.282 386.223 296.501 386.283 296.734C386.342 296.967 386.355 297.21 386.319 297.448Z" fill="#263238"/>
<path d="M387.776 295.333C387.495 295.525 386.306 294.205 384.324 293.821C382.341 293.437 380.679 294.129 380.487 293.821C380.295 293.513 380.73 293.296 381.459 292.962C382.434 292.543 383.514 292.431 384.554 292.642C385.588 292.844 386.53 293.374 387.239 294.154C387.789 294.744 387.904 295.243 387.776 295.333Z" fill="#263238"/>
<path d="M366.727 294.231C366.634 294.712 366.357 295.137 365.956 295.417C365.555 295.697 365.061 295.809 364.579 295.73C364.341 295.702 364.112 295.626 363.903 295.508C363.695 295.39 363.513 295.232 363.366 295.042C363.22 294.852 363.113 294.635 363.051 294.404C362.989 294.172 362.973 293.93 363.006 293.693C363.096 293.21 363.371 292.781 363.773 292.499C364.174 292.216 364.67 292.102 365.154 292.181C365.394 292.207 365.625 292.282 365.835 292.401C366.045 292.519 366.229 292.679 366.376 292.87C366.523 293.062 366.63 293.281 366.69 293.515C366.75 293.749 366.763 293.992 366.727 294.231Z" fill="#263238"/>
<path d="M368.198 291.796C367.917 291.988 366.727 290.681 364.745 290.284C362.763 289.887 361.1 290.592 360.909 290.284C360.717 289.977 361.152 289.772 361.881 289.426C362.855 289.004 363.937 288.896 364.975 289.118C366.012 289.313 366.959 289.839 367.674 290.617C368.211 291.232 368.3 291.707 368.198 291.796Z" fill="#263238"/>
<path d="M372.456 307.982C373.565 307.844 374.686 307.844 375.794 307.982C376.318 307.982 376.817 307.982 376.971 307.7C377.13 307.186 377.13 306.637 376.971 306.123C376.74 304.842 376.497 303.407 376.242 301.959C375.257 296.038 374.656 291.207 374.886 291.168C375.116 291.13 376.165 295.897 377.098 301.83C377.329 303.278 377.559 304.675 377.763 305.995C377.964 306.673 377.914 307.401 377.623 308.046C377.516 308.21 377.372 308.347 377.204 308.447C377.035 308.547 376.846 308.607 376.651 308.622C376.358 308.664 376.061 308.664 375.768 308.622C374.642 308.552 373.528 308.337 372.456 307.982Z" fill="#263238"/>
<path d="M366.343 308.187C366.676 308.187 366.241 310.391 367.776 312.3C369.31 314.21 371.612 314.415 371.612 314.722C371.612 315.03 371.024 315.043 370.052 314.876C368.784 314.637 367.64 313.961 366.817 312.967C366.037 312.01 365.656 310.789 365.755 309.558C365.857 308.635 366.203 308.148 366.343 308.187Z" fill="#263238"/>
<path d="M370.257 284.107C369.963 284.607 368.032 283.954 365.64 283.774C363.249 283.595 361.254 283.851 361.036 283.3C360.947 283.044 361.382 282.595 362.239 282.224C363.375 281.774 364.603 281.602 365.819 281.724C367.042 281.818 368.225 282.2 369.272 282.839C370.052 283.351 370.397 283.864 370.257 284.107Z" fill="#263238"/>
<path d="M388.186 289.426C387.751 289.81 386.485 289.067 384.835 288.721C383.186 288.375 381.741 288.413 381.523 287.875C381.421 287.619 381.728 287.209 382.431 286.901C383.349 286.546 384.352 286.479 385.308 286.709C386.268 286.923 387.139 287.429 387.802 288.157C388.288 288.734 388.39 289.246 388.186 289.426Z" fill="#263238"/>
<path d="M345.831 294.398C345.627 294.257 337.48 289.989 335.997 298.883C334.514 307.776 343.747 307.443 343.798 307.187C343.849 306.931 345.831 294.398 345.831 294.398Z" fill="#FFBE9D"/>
<path d="M341.649 303.368C341.649 303.368 341.483 303.445 341.202 303.522C341.006 303.572 340.803 303.583 340.603 303.555C340.404 303.526 340.212 303.458 340.038 303.355C339.52 302.898 339.135 302.309 338.924 301.65C338.712 300.991 338.682 300.288 338.836 299.613C338.94 298.848 339.216 298.117 339.642 297.473C339.767 297.207 339.956 296.976 340.193 296.801C340.43 296.627 340.706 296.514 340.997 296.474C341.183 296.457 341.368 296.506 341.522 296.611C341.676 296.716 341.789 296.871 341.841 297.05C341.918 297.32 341.841 297.486 341.841 297.512C341.841 297.537 342.059 297.396 342.046 297.012C342.029 296.785 341.94 296.569 341.79 296.397C341.571 296.178 341.28 296.046 340.972 296.025C340.595 296.036 340.227 296.145 339.905 296.34C339.582 296.535 339.315 296.811 339.13 297.14C338.62 297.844 338.29 298.662 338.171 299.524C337.941 301.331 338.567 303.163 339.795 303.753C340.022 303.863 340.272 303.92 340.524 303.92C340.777 303.92 341.026 303.863 341.253 303.753C341.598 303.573 341.675 303.381 341.649 303.368Z" fill="#EB996E"/>
<path d="M395.078 287.401C392.072 287.561 389.071 287.004 386.322 285.777C383.572 284.549 381.152 282.686 379.259 280.34C376.702 277.046 375.001 272.728 371.305 270.716C370.032 270.089 368.647 269.723 367.231 269.637C365.815 269.551 364.396 269.748 363.057 270.216C360.386 271.167 357.94 272.659 355.87 274.599C357.046 281.672 353.913 288.695 350.857 295.103C350.59 295.86 350.082 296.508 349.412 296.948C348.21 297.537 346.777 296.602 346.049 295.461C345.025 293.545 344.581 291.372 344.77 289.208C344.797 284.284 345.797 279.415 347.711 274.881C349.655 270.336 352.888 266.464 357.008 263.744C362.305 260.515 368.649 259.481 374.694 260.861C380.707 262.255 386.126 265.515 390.181 270.177C392.161 272.239 393.598 274.763 394.362 277.52" fill="#263238"/>
<path d="M37.188 496.143C37.25 495.958 37.327 495.778 37.4182 495.605L38.1344 494.055C39.0187 492.055 39.7331 489.985 40.27 487.865C41.6767 482.354 42.1626 473.935 40.0782 463.927C38.9583 458.478 37.4801 453.11 35.6534 447.857C33.7736 442.154 31.5996 436.093 29.822 429.557C27.8168 422.727 26.8468 415.634 26.9447 408.515C27.2132 401.069 29.4128 393.637 31.8298 386.242C34.2467 378.848 36.7404 371.595 37.4949 364.316C38.3205 357.307 36.9151 350.216 33.4795 344.056C30.2696 338.148 26.2541 333.086 23.2489 327.858C20.4321 323.004 18.3546 317.756 17.085 312.287C15.2735 304.359 15.1428 296.139 16.7013 288.157C17.2746 285.239 18.1313 282.385 19.259 279.635C19.2264 279.826 19.1793 280.015 19.1183 280.199L18.6068 281.839C15.5929 291.68 15.2705 302.151 17.6732 312.159C18.9593 317.564 21.041 322.747 23.8499 327.537C26.8552 332.663 30.8962 337.789 34.1572 343.722C37.6808 349.997 39.1312 357.229 38.3006 364.38C37.5461 371.787 35.0268 379.079 32.6226 386.473C30.2185 393.867 28.0317 401.223 27.7631 408.54C27.651 415.583 28.595 422.603 30.5637 429.365C32.3157 435.875 34.4769 441.936 36.3184 447.652C38.1266 452.94 39.5834 458.343 40.6792 463.824C42.7125 473.897 42.1243 482.406 40.6153 487.942C40.0542 490.069 39.292 492.137 38.339 494.119C38.0065 494.772 37.7379 495.272 37.5461 495.644C37.4512 495.826 37.3307 495.995 37.188 496.143Z" fill="#263238"/>
<path d="M27.3283 333.022C27.3283 333.022 21.2028 313.415 32.1878 301.933C32.2729 301.841 32.3819 301.774 32.5027 301.74C32.6235 301.706 32.7514 301.706 32.872 301.741C32.9927 301.775 33.1014 301.842 33.186 301.935C33.2707 302.028 33.328 302.143 33.3515 302.266C33.9398 305.508 34.6687 315.363 27.3283 333.022Z" fill="#E8505B"/>
<path d="M30.9986 308.456C30.9784 309.676 30.8371 310.89 30.5766 312.082C30.1802 314.568 29.707 317.503 29.1827 320.732L27.8144 329.344C27.7138 330.554 27.4953 331.752 27.1622 332.919C27.0585 331.706 27.0971 330.484 27.2773 329.28C27.4819 327.037 27.8783 323.949 28.4282 320.566C28.9781 317.183 29.5664 314.158 30.0523 311.941C30.2393 310.748 30.5567 309.579 30.9986 308.456Z" fill="#263238"/>
<path d="M34.5281 379.322C34.5281 379.322 38.275 359.126 53.3395 354.115C53.4579 354.079 53.584 354.075 53.7045 354.104C53.8251 354.132 53.9356 354.193 54.0246 354.28C54.1135 354.366 54.1776 354.475 54.21 354.595C54.2425 354.715 54.2422 354.841 54.2091 354.961C53.1988 358.05 49.2473 367.11 34.5281 379.322Z" fill="#E8505B"/>
<path d="M49.2217 359.28C48.6393 360.351 47.9495 361.36 47.1628 362.291L41.894 369.288L36.6509 376.285C35.9985 377.311 35.2445 378.269 34.4001 379.143C34.8745 378.02 35.4798 376.958 36.2033 375.978C37.4821 374.094 39.2085 371.544 41.3186 368.814C43.4286 366.085 45.3341 363.688 46.7791 361.958C47.4916 360.977 48.3108 360.079 49.2217 359.28Z" fill="#263238"/>
<path d="M30.4488 429.954C30.4488 429.954 28.1341 409.54 41.1397 400.365C41.241 400.291 41.3604 400.248 41.4848 400.238C41.6093 400.229 41.7339 400.254 41.845 400.311C41.9561 400.368 42.0494 400.454 42.1145 400.561C42.1795 400.668 42.214 400.79 42.214 400.916C42.2012 404.209 41.0119 414.038 30.4488 429.954Z" fill="#E8505B"/>
<path d="M38.7227 406.554C38.4795 407.747 38.1108 408.911 37.6229 410.027C36.7533 412.398 35.7431 415.153 34.6049 418.254L31.6253 426.481C31.3101 427.648 30.8818 428.781 30.3464 429.864C30.4813 428.655 30.7516 427.464 31.1521 426.315C31.7787 424.149 32.7506 421.189 33.9399 417.985C35.1292 414.781 36.2929 411.885 37.1753 409.822C37.5634 408.676 38.0827 407.58 38.7227 406.554Z" fill="#263238"/>
<path d="M41.7918 480.945C41.7918 480.945 40.2444 460.441 53.5314 451.752C53.6352 451.681 53.7569 451.64 53.8829 451.633C54.0088 451.627 54.1339 451.657 54.2442 451.718C54.3545 451.779 54.4455 451.87 54.5071 451.98C54.5687 452.09 54.5984 452.216 54.5928 452.342C54.4265 455.623 52.9175 465.4 41.7918 480.945Z" fill="#E8505B"/>
<path d="M50.897 457.839C50.6129 459.024 50.2057 460.175 49.6821 461.274C48.723 463.606 47.6104 466.4 46.37 469.386L43.0834 477.498C42.7115 478.655 42.2319 479.775 41.6511 480.842C41.823 479.635 42.1364 478.452 42.5847 477.318C43.288 475.178 44.3622 472.269 45.6666 469.091C46.971 465.913 48.2243 463.081 49.1834 461.056C49.6399 459.926 50.2143 458.848 50.897 457.839Z" fill="#263238"/>
<path d="M18.53 315.786C18.53 315.786 0.358 306.277 -6.93607e-05 290.387C-0.00564426 290.26 0.0240236 290.135 0.0855992 290.025C0.147175 289.915 0.238217 289.824 0.348492 289.763C0.458768 289.701 0.583904 289.672 0.709835 289.678C0.835766 289.684 0.957499 289.725 1.06135 289.797C3.75966 291.668 11.2408 298.114 18.53 315.786Z" fill="#E8505B"/>
<path d="M3.83643 295.846C4.68985 296.711 5.44865 297.664 6.09994 298.691L11.2152 305.79L16.3305 312.877C17.1166 313.802 17.8105 314.802 18.4022 315.863C17.4671 315.083 16.6298 314.192 15.9085 313.21C14.4634 311.48 12.5708 309.02 10.563 306.239C8.55527 303.458 6.82886 300.882 5.61398 298.998C4.90893 298.015 4.31289 296.958 3.83643 295.846Z" fill="#263238"/>
<path d="M38.0448 357.909C38.0448 357.909 19.3357 349.515 18.0057 333.675C17.9925 333.55 18.0144 333.423 18.0691 333.309C18.1238 333.196 18.2091 333.099 18.3154 333.031C18.4217 332.964 18.5447 332.927 18.6707 332.925C18.7967 332.923 18.9207 332.957 19.0288 333.022C21.8422 334.726 29.7069 340.711 38.0448 357.909Z" fill="#E8505B"/>
<path d="M22.1108 338.891C23.0088 339.709 23.8228 340.615 24.5406 341.595L30.0907 348.374L35.6535 355.128C36.4909 356.005 37.2404 356.962 37.8915 357.985C36.9079 357.243 36.0189 356.382 35.2443 355.423C33.6969 353.795 31.6636 351.45 29.4896 348.797C27.3156 346.144 25.4358 343.671 24.1186 341.864C23.3378 340.954 22.6641 339.956 22.1108 338.891Z" fill="#263238"/>
<path d="M27.2772 404.952C27.2772 404.952 14.489 388.946 20.4611 374.196C20.507 374.08 20.5841 373.978 20.684 373.903C20.7838 373.828 20.9025 373.782 21.0269 373.77C21.1513 373.758 21.2765 373.781 21.3888 373.835C21.5011 373.89 21.596 373.975 21.6632 374.081C23.3896 376.849 27.6736 385.73 27.2772 404.952Z" fill="#E8505B"/>
<path d="M21.74 380.681C22.1687 381.821 22.4815 383.002 22.6735 384.205C23.2106 386.678 23.8373 389.574 24.5406 392.765C25.244 395.956 25.8194 398.852 26.4205 401.326C26.7613 402.511 26.9925 403.725 27.111 404.952C26.5403 403.867 26.1105 402.713 25.8322 401.518C25.1928 399.365 24.4383 396.392 23.7222 392.996C23.006 389.6 22.4434 386.588 22.0853 384.371C21.8335 383.158 21.7177 381.92 21.74 380.681Z" fill="#263238"/>
<path d="M40.0142 460.172C40.0142 460.172 21.433 451.47 20.3844 435.606C20.3746 435.48 20.3999 435.354 20.4573 435.243C20.5146 435.131 20.6019 435.037 20.7093 434.972C20.8167 434.907 20.94 434.873 21.0656 434.874C21.1911 434.875 21.3139 434.911 21.4202 434.978C24.1952 436.72 31.9705 442.833 40.0142 460.172Z" fill="#E8505B"/>
<path d="M24.3872 440.898C25.2751 441.729 26.0764 442.647 26.7786 443.641L32.2136 450.509L37.6614 457.353C38.4805 458.249 39.2167 459.219 39.8609 460.249C38.8881 459.502 38.008 458.642 37.2393 457.686C35.7303 456.02 33.7226 453.649 31.6125 450.958C29.5025 448.267 27.6354 445.832 26.3438 443.948C25.5888 443.001 24.9332 441.979 24.3872 440.898Z" fill="#263238"/>
<path d="M77.0104 379.386C77.0298 379.535 77.0298 379.686 77.0104 379.835C77.0104 380.194 77.0104 380.629 77.0104 381.116C77.0104 382.398 76.8825 384.013 76.793 386.101C76.55 390.471 76.2175 396.584 75.8211 403.889C74.5423 411.334 70.7058 419.574 65.5905 427.571C61.8692 433.465 57.9176 438.822 54.6055 443.807C51.5534 448.174 48.806 452.747 46.3827 457.494C44.7937 460.706 43.5093 464.061 42.5462 467.515C42.2137 468.796 41.9707 469.706 41.8301 470.36C41.7712 470.696 41.6813 471.027 41.5615 471.346C41.5654 471.002 41.6039 470.658 41.6766 470.321C41.7661 469.655 41.9707 468.694 42.2521 467.438C43.1265 463.932 44.3518 460.523 45.9095 457.263C48.2832 452.464 51.0059 447.847 54.0556 443.448C57.3933 438.425 61.2809 433.068 64.9895 427.199C70.0408 419.241 73.7878 411.116 75.2201 403.812C75.7316 396.507 76.1536 390.407 76.4989 386.037C76.6651 383.961 76.8058 382.295 76.8953 381.065C76.9593 380.54 76.9976 380.117 77.036 379.784C77.0091 379.653 77.0005 379.519 77.0104 379.386Z" fill="#263238"/>
<path d="M65.9488 426.122C65.9488 426.122 73.8136 407.144 63.9411 394.7C63.8644 394.601 63.7615 394.524 63.6439 394.48C63.5264 394.435 63.3988 394.424 63.2754 394.448C63.152 394.472 63.0377 394.53 62.9453 394.615C62.8528 394.7 62.7858 394.81 62.7518 394.931C61.8566 398.109 60.2325 407.874 65.9488 426.122Z" fill="#E8505B"/>
<path d="M64.5166 401.326C64.8557 402.495 65.0658 403.698 65.1432 404.914C65.4245 407.144 65.7314 410.232 65.9744 413.654C66.2174 417.075 66.3325 420.176 66.3325 422.432C66.4102 423.649 66.3372 424.872 66.1151 426.071C65.8924 424.876 65.7853 423.661 65.7954 422.445C65.6291 419.882 65.4245 416.973 65.2071 413.705C64.9897 410.437 64.7723 407.49 64.6061 404.965C64.4571 403.758 64.4271 402.539 64.5166 401.326Z" fill="#263238"/>
<g opacity="0.3">
<path d="M65.9488 426.122C65.9488 426.122 73.8136 407.144 63.9411 394.7C63.8644 394.601 63.7615 394.524 63.6439 394.48C63.5264 394.435 63.3988 394.424 63.2754 394.448C63.152 394.472 63.0377 394.53 62.9453 394.615C62.8528 394.7 62.7858 394.81 62.7518 394.931C61.8566 398.109 60.2325 407.874 65.9488 426.122Z" fill="black"/>
</g>
<path d="M41.5873 471.846C41.5873 471.846 47.8919 452.291 37.0219 440.706C36.9376 440.614 36.8296 440.546 36.7097 440.512C36.5897 440.477 36.4626 440.476 36.3422 440.509C36.2219 440.543 36.113 440.608 36.0276 440.699C35.9422 440.791 35.8835 440.904 35.8582 441.026C35.2315 444.268 34.4131 454.123 41.5873 471.846Z" fill="#E8505B"/>
<path d="M38.1472 447.242C38.5831 448.378 38.8878 449.56 39.0552 450.766C39.5156 452.97 40.0782 456.02 40.6026 459.403C41.1269 462.786 41.4849 465.887 41.664 468.13C41.8382 469.335 41.864 470.558 41.7407 471.769C41.426 470.595 41.2205 469.394 41.1269 468.181C40.756 465.695 40.3212 462.76 39.848 459.518C39.3749 456.276 38.9145 453.354 38.5692 450.855C38.3107 449.668 38.1693 448.457 38.1472 447.242Z" fill="#263238"/>
<g opacity="0.3">
<path d="M41.5873 471.846C41.5873 471.846 47.8919 452.291 37.0219 440.706C36.9376 440.614 36.8296 440.546 36.7097 440.512C36.5897 440.477 36.4626 440.476 36.3422 440.509C36.2219 440.543 36.113 440.608 36.0276 440.699C35.9422 440.791 35.8835 440.904 35.8582 441.026C35.2315 444.268 34.4131 454.123 41.5873 471.846Z" fill="black"/>
</g>
<path d="M75.9619 402.927C75.9619 402.927 92.7656 391.138 91.0648 375.337C91.0538 375.212 91.0083 375.092 90.9333 374.991C90.8583 374.89 90.7568 374.812 90.6401 374.765C90.5233 374.718 90.396 374.705 90.2723 374.727C90.1486 374.749 90.0333 374.805 89.9394 374.888C87.5097 377.093 80.9109 384.448 75.9619 402.927Z" fill="#E8505B"/>
<g opacity="0.3">
<path d="M75.9619 402.927C75.9619 402.927 92.7656 391.138 91.0648 375.337C91.0538 375.212 91.0083 375.092 90.9333 374.991C90.8583 374.89 90.7568 374.812 90.6401 374.765C90.5233 374.718 90.396 374.705 90.2723 374.727C90.1486 374.749 90.0333 374.805 89.9394 374.888C87.5097 377.093 80.9109 384.448 75.9619 402.927Z" fill="black"/>
</g>
<path d="M88.034 381.232C87.6939 382.403 87.2264 383.533 86.6401 384.602C85.681 386.627 84.287 389.408 82.6629 392.419C81.0388 395.431 79.4787 398.122 78.2638 400.018C77.6762 401.09 76.9589 402.084 76.1282 402.979C76.5895 401.854 77.1501 400.774 77.8034 399.749L81.9852 392.06L86.1541 384.371C86.674 383.264 87.3038 382.212 88.034 381.232Z" fill="#263238"/>
<path d="M48.3521 452.457C48.3521 452.457 68.6213 449.292 74.0435 434.35C74.0888 434.232 74.1003 434.104 74.077 433.98C74.0536 433.856 73.9962 433.741 73.9112 433.648C73.8262 433.554 73.717 433.487 73.5958 433.452C73.4746 433.418 73.3462 433.418 73.2251 433.453C70.0664 434.427 60.9101 438.066 48.3521 452.457Z" fill="#E8505B"/>
<g opacity="0.3">
<path d="M48.3521 452.457C48.3521 452.457 68.6213 449.292 74.0435 434.35C74.0888 434.232 74.1003 434.104 74.077 433.98C74.0536 433.856 73.9962 433.741 73.9112 433.648C73.8262 433.554 73.717 433.487 73.5958 433.452C73.4746 433.418 73.3462 433.418 73.2251 433.453C70.0664 434.427 60.9101 438.066 48.3521 452.457Z" fill="black"/>
</g>
<path d="M68.7237 438.271C67.9057 439.176 66.9875 439.984 65.987 440.68C64.235 442.077 61.7669 443.961 58.9791 445.947C56.1913 447.934 53.608 449.664 51.7026 450.83C50.7026 451.529 49.6202 452.101 48.48 452.534C49.387 451.732 50.3626 451.012 51.3957 450.381L58.5443 445.255L65.6673 440.129C66.6217 439.409 67.6456 438.787 68.7237 438.271Z" fill="#263238"/>
<path d="M29.0292 489.826L23.1211 529.68H59.9511L55.1811 489.826H29.0292Z" fill="#455A64"/>
<path d="M56.6518 502.179C51.7082 502.559 46.7485 502.687 41.7919 502.564C36.8396 502.687 31.8842 502.559 26.9448 502.179C26.9448 501.961 33.5947 501.795 41.7919 501.795C49.9892 501.795 56.6518 501.961 56.6518 502.179Z" fill="#263238"/>
<path d="M57.3806 505.344C57.3806 505.562 50.5134 505.729 42.0348 505.729C33.5562 505.729 26.689 505.562 26.689 505.344C26.689 505.127 33.5562 504.96 42.0348 504.96C50.5134 504.96 57.3806 505.139 57.3806 505.344Z" fill="#263238"/>
</g>
<defs>
<clipPath id="clip0_18_261">
<rect width="553" height="531" fill="white"/>
</clipPath>
</defs>
</svg>
