<svg width="100" height="100" viewBox="0 0 100 100" fill="none" xmlns="http://www.w3.org/2000/svg">
<path fill-rule="evenodd" clip-rule="evenodd" d="M29.4141 56.5039V44.1992H30.9961L38.5156 54.1016V44.1992H40.0195V56.5039H38.4375L30.918 46.5039V56.5039H29.4141Z" fill="#B52E31"/>
<path fill-rule="evenodd" clip-rule="evenodd" d="M52.2656 56.0156C51.2695 56.3867 50.1953 56.582 49.0625 56.582C44.6094 56.582 42.3828 54.4531 42.3828 50.1758C42.3828 46.1328 44.5312 44.1016 48.8281 44.1016C50.0586 44.1016 51.2109 44.2773 52.2656 44.6094V45.9766C51.2109 45.5664 50.1172 45.3711 49.0039 45.3711C45.6445 45.3711 43.9648 46.9727 43.9648 50.1367C43.9648 53.5547 45.625 55.2539 48.9258 55.2539C49.4531 55.2539 50.0391 55.1758 50.6836 55.0391V50.918H52.2656V56.0156Z" fill="#B52E31"/>
<path fill-rule="evenodd" clip-rule="evenodd" d="M54.8047 51.7578V44.1992H56.3867V51.7578C56.3867 54.1211 57.5586 55.3125 59.9219 55.3125C62.2656 55.3125 63.457 54.1211 63.457 51.7578V44.1992H65.0391V51.7578C65.0391 54.9805 63.3398 56.6016 59.9219 56.6016C56.5039 56.6016 54.8047 54.9805 54.8047 51.7578Z" fill="#B52E31"/>
<path fill-rule="evenodd" clip-rule="evenodd" d="M69.4531 44.1992V55.2148H75.8984V56.5039H67.8711V44.1992H69.4531Z" fill="#B52E31"/>
<path fill-rule="evenodd" clip-rule="evenodd" d="M78.1836 56.5039H76.5234L82.6367 42.5781L88.75 56.5039H86.9922L85.4102 52.6367H81.3477L81.7773 51.3477H84.8828L82.5781 45.7812L78.1836 56.5039Z" fill="#B52E31"/>
<path fill-rule="evenodd" clip-rule="evenodd" d="M90.4492 56.5039V44.1992H95.7031C98.0469 44.1992 99.2187 45.1758 99.2187 47.1484C99.2187 48.75 98.0664 49.9414 95.7812 50.7031L100 56.5039H97.9102L94.0039 50.9766V49.9414C96.3477 49.5703 97.5391 48.6719 97.5391 47.2266C97.5391 46.0937 96.8945 45.5273 95.5859 45.5273H92.0703V56.5039H90.4492Z" fill="#B52E31"/>
<path fill-rule="evenodd" clip-rule="evenodd" d="M0 40.918L12.5977 36.4258L25.5273 40.8398L23.4375 57.5L12.5977 63.4961L1.93359 57.5781L0 40.918Z" fill="#E23237"/>
<path fill-rule="evenodd" clip-rule="evenodd" d="M25.5273 40.8398L12.5977 36.4258V63.4961L23.4375 57.5L25.5273 40.8398Z" fill="#B52E31"/>
<path fill-rule="evenodd" clip-rule="evenodd" d="M12.6172 39.5898L4.76562 57.0508L7.69531 56.9922L9.27734 53.0469H12.6172H16.2891L18.0078 57.0313L20.8008 57.0898L12.6172 39.5898ZM12.6367 45.1953L15.293 50.7422H12.7539H12.6172H10.3125L12.6367 45.1953Z" fill="white"/>
</svg>
