<svg width="592" height="660" viewBox="0 0 592 660" fill="none" xmlns="http://www.w3.org/2000/svg">
<g clip-path="url(#clip0_18_506)">
<path d="M592 580.009H0V580.451H592V580.009Z" fill="#EBEBEB"/>
<path d="M280.622 501.009H51.9966C48.2763 501.009 45.2468 496.475 45.2468 490.895V10.1141C45.2468 4.5345 48.2763 0 51.9966 0H280.622C284.343 0 287.372 4.5345 287.372 10.1141V490.895C287.372 496.475 284.343 501.009 280.622 501.009ZM51.9966 0.442822C48.4357 0.442822 45.5303 4.78248 45.5303 10.1141V490.895C45.5303 496.227 48.4357 500.566 51.9966 500.566H280.622C284.183 500.566 287.089 496.227 287.089 490.895V10.1141C287.089 4.78248 284.183 0.442822 280.622 0.442822H51.9966Z" fill="#EBEBEB"/>
<path d="M536.726 501.009H308.082C304.362 501.009 301.333 496.475 301.333 490.895V10.1141C301.333 4.5345 304.362 0 308.082 0H536.708C540.429 0 543.458 4.5345 543.458 10.1141V490.895C543.458 496.475 540.429 501.009 536.708 501.009H536.726ZM308.082 0.442822C304.521 0.442822 301.616 4.78248 301.616 10.1141V490.895C301.616 496.227 304.521 500.566 308.082 500.566H536.708C540.269 500.566 543.175 496.227 543.175 490.895V10.1141C543.175 4.78248 540.269 0.442822 536.708 0.442822H308.082Z" fill="#EBEBEB"/>
<path d="M532.687 596.871H495.306V597.314H532.687V596.871Z" fill="#EBEBEB"/>
<path d="M397.035 592.071H357.475V592.514H397.035V592.071Z" fill="#EBEBEB"/>
<path d="M543.493 613.327H469.564V613.769H543.493V613.327Z" fill="#EBEBEB"/>
<path d="M84.8777 610.351H62.1125V610.794H84.8777V610.351Z" fill="#EBEBEB"/>
<path d="M131.276 610.351H95.4187V610.794H131.276V610.351Z" fill="#EBEBEB"/>
<path d="M289.055 602.858H224.463V603.301H289.055V602.858Z" fill="#EBEBEB"/>
<path d="M328.261 341.646H503.951L503.951 64.2978H328.261V341.646Z" fill="#E6E6E6"/>
<path d="M309.429 55.3174H515.307C516.264 55.3174 517.043 56.4864 517.043 57.9211C517.043 59.3559 516.264 60.5249 515.307 60.5249H309.429C308.472 60.5249 307.692 59.3559 307.692 57.9211C307.692 56.4864 308.472 55.3174 309.429 55.3174Z" fill="#E6E6E6"/>
<path d="M320.802 341.646H500.461L500.461 64.2978H320.802V341.646Z" fill="#F0F0F0"/>
<path d="M328.261 352.008H503.951V341.646H328.261V352.008Z" fill="#E6E6E6"/>
<path d="M308.383 352.008H488.042V341.646H308.383V352.008Z" fill="#F0F0F0"/>
<path d="M490.026 326.023V79.9028L331.237 79.9028V326.023H490.026Z" fill="#FAFAFA"/>
<path d="M453.974 326.041L392.729 79.9028H363.817L425.061 326.041H453.974Z" fill="white"/>
<path d="M418.861 326.041L357.598 79.9028H346.331L407.575 326.041H418.861Z" fill="white"/>
<path d="M332.566 326.023V79.9029H331.237V326.023H332.566Z" fill="#E6E6E6"/>
<g opacity="0.6">
<path d="M372.516 301.526H312.724L316.108 50.3044H375.899L372.516 301.526Z" fill="#F0F0F0"/>
<path d="M395.795 301.527H349.219L352.62 50.3046H399.196L395.795 301.527Z" fill="#E6E6E6"/>
<path d="M432.307 301.527H372.516L375.899 50.3046L435.691 50.2869L432.307 301.527Z" fill="#F0F0F0"/>
<path d="M455.586 301.509L409.011 301.527L412.412 50.2869H458.988L455.586 301.509Z" fill="#E6E6E6"/>
<path d="M492.099 301.509L432.307 301.527L435.691 50.2869H495.483L492.099 301.509Z" fill="#F0F0F0"/>
</g>
<path d="M261.223 303.05V36.1697L101.389 36.1697L101.389 303.05H261.223Z" fill="#EBEBEB"/>
<path d="M262.676 303.05V36.1697H261.223V303.05H262.676Z" fill="#E0E0E0"/>
<path d="M113.223 285.337H249.389L249.389 53.8826L113.223 53.8826L113.223 285.337Z" fill="#F5F5F5"/>
<path d="M186.355 293.007H224.693V212.714H186.355V293.007Z" fill="white"/>
<path d="M140.205 300.003H178.56L181.306 219.711H142.969L140.205 300.003Z" fill="white"/>
<path d="M106.81 200.581H145.148L147.911 120.271H109.574L106.81 200.581Z" fill="white"/>
<path d="M224.144 127.373L253.641 129.322L255.448 67.557L225.968 65.6263L224.144 127.373Z" fill="white"/>
<path d="M106.81 102.575L136.29 104.524L138.114 42.7589L108.617 40.8282L106.81 102.575Z" fill="white"/>
<path d="M254.279 200.793L224.764 200.209L225.313 138.409L254.828 138.993L254.279 200.793Z" fill="white"/>
<path d="M156.344 197.463L218.864 194.753L216.331 63.8373L153.811 66.5473L156.344 197.463Z" fill="white"/>
<path d="M139.673 580.009L139.673 334.862H73.9468L73.9468 580.009H139.673Z" fill="#F0F0F0"/>
<path d="M136.077 413.171V341.009H77.5607V413.171H136.077Z" fill="#E6E6E6"/>
<path d="M136.059 491.816V419.654H77.5432V491.816H136.059Z" fill="#E6E6E6"/>
<path d="M136.059 570.444V498.281H77.5432V570.444H136.059Z" fill="#E6E6E6"/>
<path d="M100.574 413.171V341.009H77.5608V413.171H100.574Z" fill="#E0E0E0"/>
<path d="M100.574 491.798V419.636H77.5608V491.798H100.574Z" fill="#E0E0E0"/>
<path d="M100.556 570.444V498.281H77.5432V570.444H100.556Z" fill="#E0E0E0"/>
<path d="M157.513 580.009L157.513 334.862H139.673V580.009H157.513Z" fill="#F5F5F5"/>
<path d="M209.935 579.991L209.935 334.844H144.209V579.991H209.935Z" fill="#F0F0F0"/>
<path d="M206.339 413.153V340.991H147.823V413.153H206.339Z" fill="#E6E6E6"/>
<path d="M206.339 491.798V419.636H147.823V491.798H206.339Z" fill="#E6E6E6"/>
<path d="M206.339 570.444V498.281H147.823V570.444H206.339Z" fill="#E6E6E6"/>
<path d="M170.836 413.171V341.009H147.823V413.171H170.836Z" fill="#E0E0E0"/>
<path d="M170.836 491.816V419.654H147.823V491.816H170.836Z" fill="#E0E0E0"/>
<path d="M170.836 570.461V498.299H147.823V570.461H170.836Z" fill="#E0E0E0"/>
<path d="M227.793 579.991L227.793 334.844H209.953V579.991H227.793Z" fill="#F5F5F5"/>
<path d="M125.536 477.628C125.536 485.457 118.768 491.798 110.424 491.798C102.08 491.798 95.3123 485.457 95.3123 477.628H125.536Z" fill="#F0F0F0"/>
<path d="M125.536 467.036C125.536 474.865 118.768 481.206 110.424 481.206C102.08 481.206 95.3123 474.865 95.3123 467.036H125.536Z" fill="#F0F0F0"/>
<path d="M197.729 398.983C197.729 406.812 189.278 413.153 178.844 413.153C168.409 413.153 159.958 406.812 159.958 398.983H197.747H197.729Z" fill="#FAFAFA"/>
<path d="M197.729 388.391C197.729 396.22 189.278 402.561 178.844 402.561C168.409 402.561 159.958 396.22 159.958 388.391H197.747H197.729Z" fill="#FAFAFA"/>
<path d="M151.791 570.444H199.306V508.679H151.791V570.444Z" fill="#F0F0F0"/>
<path d="M206.339 508.697H199.306V570.461H206.339V508.697Z" fill="#E0E0E0"/>
<path d="M81.5114 413.171H129.026V351.406H81.5114V413.171Z" fill="#F0F0F0"/>
<path d="M136.059 351.406H129.026V413.171H136.059V351.406Z" fill="#E0E0E0"/>
<path d="M316.869 579.991H326.082V450.226H316.869V579.991Z" fill="#E6E6E6"/>
<path d="M314.407 579.991H319.828V450.226H314.407V579.991Z" fill="#F0F0F0"/>
<path d="M443.646 450.244H312.724V464.609H443.646V450.244Z" fill="#F0F0F0"/>
<path d="M502.179 579.991H511.392V450.226H502.179V579.991Z" fill="#E6E6E6"/>
<path d="M500.461 579.991H505.882V450.226H500.461V579.991Z" fill="#F0F0F0"/>
<path d="M513.039 450.244H447.579V464.609H513.039V450.244Z" fill="#E6E6E6"/>
<path d="M444.425 579.991H453.637V450.226H444.425V579.991Z" fill="#E6E6E6"/>
<path d="M441.963 579.991H447.384V450.226H441.963V579.991Z" fill="#F0F0F0"/>
<path d="M296 660C422.785 660 525.565 651.023 525.565 639.949C525.565 628.875 422.785 619.898 296 619.898C169.215 619.898 66.4353 628.875 66.4353 639.949C66.4353 651.023 169.215 660 296 660Z" fill="#F5F5F5"/>
<path d="M346.083 646.166L321.015 643.279V499.61H299.561V643.279L274.493 646.166L272.331 653.287H348.262L346.083 646.166Z" fill="#263238"/>
<path opacity="0.4" d="M346.083 646.166L321.015 643.279V499.61H299.561V643.279L274.493 646.166L272.331 653.287H348.262L346.083 646.166Z" fill="#407BFF"/>
<path d="M303.813 306.274C341.017 306.274 378.203 306.274 415.406 306.274C396.273 366.781 386.565 428.422 386.6 488.947C349.396 488.947 312.21 488.947 275.006 488.947C274.971 428.439 284.679 366.799 303.813 306.274Z" fill="#407BFF"/>
<path opacity="0.3" d="M303.813 306.274C341.017 306.274 378.203 306.274 415.406 306.274C396.273 366.781 386.565 428.422 386.6 488.947C349.396 488.947 312.21 488.947 275.006 488.947C274.971 428.439 284.679 366.799 303.813 306.274Z" fill="black"/>
<path d="M297.116 306.274C334.32 306.274 371.506 306.274 408.709 306.274C389.576 366.781 379.868 428.422 379.903 488.947C342.699 488.947 305.513 488.947 268.31 488.947C268.274 428.439 277.983 366.799 297.116 306.274Z" fill="#407BFF"/>
<path d="M361.071 506.093H203.079C209.723 491.639 221.787 482.783 234.844 482.783H350.353L361.053 506.093H361.071Z" fill="#407BFF"/>
<path d="M393.155 506.093H316.869C323.513 491.639 335.578 482.783 348.634 482.783H375.634C388.69 482.783 395.139 490.328 393.155 506.093Z" fill="#407BFF"/>
<path opacity="0.3" d="M393.155 506.093H316.869C323.513 491.639 335.578 482.783 348.634 482.783H375.634C388.69 482.783 395.139 490.328 393.155 506.093Z" fill="black"/>
<path d="M237.36 638.514L223.081 640.392L213.762 608.013L228.059 606.135L237.36 638.514Z" fill="#FFC3BD"/>
<path d="M221.274 636.654L237.324 634.547C237.909 634.476 238.405 634.812 238.511 635.379L240.956 647.973C241.204 649.284 240.141 650.683 238.795 650.842C233.197 651.48 230.486 651.498 223.435 652.437C219.095 653.003 204.16 655.094 198.119 655.129C192.202 655.164 192.219 649.177 194.771 648.628C206.251 646.131 215.321 641.561 218.935 637.877C219.591 637.204 220.423 636.796 221.274 636.672V636.654Z" fill="#263238"/>
<path opacity="0.2" d="M228.077 606.135L213.762 608.013L218.563 624.698L232.878 622.821L228.077 606.135Z" fill="black"/>
<path d="M284.272 430.901C284.272 430.901 172.2 438.925 176.718 479.966C183.22 538.968 208.677 616.444 208.677 616.444L234.685 611.98C234.685 611.98 223.736 540.509 217.943 494.544C245.899 482.96 321.724 494.048 330.635 469.905C337.916 450.155 333.983 430.901 333.983 430.901H284.272Z" fill="#263238"/>
<path opacity="0.3" d="M229.671 465.07C229.671 465.07 232.399 477.274 234.259 490.523C234.189 490.541 234.082 490.541 234.011 490.559C233.037 490.7 232.063 490.842 231.141 491.001C230.663 491.108 230.149 491.178 229.689 491.267C229.122 491.356 228.59 491.48 228.041 491.586C225.649 492.064 223.417 492.631 221.38 493.286C220.848 493.446 220.37 493.623 219.892 493.782C219.236 493.995 218.598 494.243 217.996 494.508C218.652 499.769 220.919 506.748 220.937 512.806C196.011 483.349 216.561 465.052 229.706 465.052L229.671 465.07Z" fill="black"/>
<path d="M238.688 617.879L208.199 621.882L204.071 610.918L234.614 604.08L238.688 617.879Z" fill="#407BFF"/>
<path d="M216.543 639.807C217.854 639.63 219.289 639.17 220.282 638.798C220.406 638.745 220.494 638.638 220.494 638.497C220.494 638.355 220.423 638.249 220.317 638.178C219.821 637.912 215.41 635.68 213.762 636.601C213.372 636.814 213.16 637.168 213.107 637.646C213.036 638.426 213.248 639.01 213.762 639.4C214.4 639.896 215.427 639.949 216.543 639.807ZM219.307 638.443C216.827 639.294 214.931 639.453 214.169 638.886C213.851 638.656 213.727 638.266 213.78 637.735C213.797 637.487 213.904 637.328 214.081 637.221C214.967 636.725 217.5 637.629 219.307 638.461V638.443Z" fill="#407BFF"/>
<path d="M220.211 638.815C220.211 638.815 220.317 638.798 220.352 638.762C220.441 638.691 220.494 638.585 220.494 638.479C220.494 638.302 220.264 634.157 218.652 632.952C218.209 632.634 217.713 632.545 217.181 632.669C216.526 632.828 216.154 633.254 216.101 633.838C215.977 635.432 218.492 638.142 220.034 638.798C220.087 638.815 220.158 638.833 220.211 638.815ZM217.5 633.289C217.784 633.254 218.032 633.324 218.262 633.484C219.236 634.192 219.662 636.53 219.803 637.894C218.421 637.009 216.703 634.936 216.792 633.873C216.792 633.679 216.88 633.431 217.358 633.307C217.412 633.307 217.465 633.289 217.518 633.271L217.5 633.289Z" fill="#407BFF"/>
<path d="M299.791 320.107C298.533 325.669 297.045 330.841 295.539 336.155C293.98 341.416 292.315 346.659 290.49 351.867C288.683 357.074 286.717 362.246 284.591 367.383C282.483 372.538 280.126 377.621 277.593 382.687L277.15 383.59L276.955 383.856C275.042 386.566 273.164 388.143 271.375 389.489C269.568 390.817 267.849 391.845 266.131 392.766C262.729 394.608 259.363 395.936 256.032 397.141C252.684 398.31 249.354 399.284 245.987 400.116C242.604 400.931 239.308 401.622 235.765 402.1L232.488 391.791L240.885 387.062C243.667 385.486 246.43 383.909 249.052 382.262C251.692 380.668 254.208 378.95 256.387 377.285C257.467 376.452 258.477 375.602 259.204 374.805C259.93 374.043 260.444 373.299 260.355 373.228L259.717 374.397C261.631 369.686 263.402 364.868 265.121 359.979C266.786 355.073 268.398 350.113 269.94 345.118C271.445 340.105 272.951 335.092 274.386 330.044C275.857 325.049 277.221 319.859 278.55 314.988L299.773 320.125L299.791 320.107Z" fill="#FFC3BD"/>
<path d="M276.371 316.264C264.66 329.708 256.918 348.501 256.918 348.501L287.532 366.94C296.372 356.171 307.409 327.671 307.852 318.053C308.543 303.28 288.985 301.792 276.371 316.264Z" fill="#407BFF"/>
<path opacity="0.5" d="M276.371 316.264C264.66 329.708 256.918 348.501 256.918 348.501L287.532 366.94C296.372 356.171 307.409 327.671 307.852 318.053C308.543 303.28 288.985 301.792 276.371 316.264Z" fill="white"/>
<path opacity="0.5" d="M287.16 329.973C280.481 335.588 275.733 347.261 273.66 358.58L287.532 366.94C291.907 361.609 296.815 351.955 300.73 342.372C297.594 332.861 293.077 325.014 287.177 329.973H287.16Z" fill="#407BFF"/>
<path d="M282.819 647.123H268.416L261.826 613.787H276.229L282.819 647.123Z" fill="#FFC3BD"/>
<path d="M267.973 643.633H284.148C284.733 643.633 285.176 644.041 285.211 644.625L285.991 657.432C286.079 658.76 284.821 660.018 283.475 660C277.841 659.911 275.148 659.575 268.026 659.575C263.651 659.575 248.805 660.035 242.746 660.035C236.687 660.035 236.864 654.066 239.433 653.517C250.913 651.09 261.401 647.743 265.458 644.554C266.184 643.988 267.07 643.669 267.938 643.669L267.973 643.633Z" fill="#263238"/>
<path opacity="0.2" d="M276.229 613.787H261.826L265.227 630.986H279.648L276.229 613.787Z" fill="black"/>
<path d="M312.494 430.901C312.494 430.901 217.518 438.925 219.856 480.143C222.408 525.293 258.974 626.824 258.974 626.824H285.353C285.353 626.824 273.43 534.965 267.637 489C294.406 489 349.928 494.03 358.839 469.905C366.12 450.155 361.372 431.645 361.372 431.645L312.476 430.901H312.494Z" fill="#263238"/>
<path d="M286.876 627.249L255.235 628.684L252.791 615.08L285.902 615.204L286.876 627.249Z" fill="#407BFF"/>
<path d="M262.871 646.131C264.2 646.131 265.67 645.865 266.715 645.617C266.839 645.582 266.946 645.475 266.963 645.351C266.981 645.227 266.928 645.086 266.822 645.015C266.361 644.696 262.286 641.915 260.533 642.606C260.125 642.765 259.859 643.102 259.753 643.562C259.576 644.324 259.718 644.944 260.178 645.387C260.745 645.954 261.773 646.149 262.889 646.149L262.871 646.131ZM265.794 645.121C263.225 645.635 261.312 645.546 260.657 644.891C260.373 644.608 260.302 644.218 260.426 643.686C260.479 643.438 260.603 643.297 260.798 643.208C261.737 642.836 264.147 644.058 265.812 645.121H265.794Z" fill="#407BFF"/>
<path d="M266.627 645.635C266.627 645.635 266.733 645.635 266.786 645.599C266.893 645.546 266.963 645.44 266.963 645.334C266.963 645.157 267.3 641.012 265.847 639.612C265.458 639.24 264.979 639.081 264.43 639.152C263.775 639.223 263.332 639.595 263.208 640.162C262.871 641.738 265.015 644.731 266.45 645.599C266.503 645.635 266.556 645.653 266.627 645.653V645.635ZM264.66 639.79C264.944 639.79 265.174 639.878 265.387 640.091C266.255 640.923 266.379 643.297 266.326 644.661C265.068 643.598 263.651 641.313 263.863 640.286C263.899 640.091 264.023 639.86 264.501 639.79C264.554 639.79 264.607 639.79 264.66 639.79Z" fill="#407BFF"/>
<path d="M239.308 392.128L223.205 388.089L224.338 405.306C224.338 405.306 240.247 405.342 241.647 400.612L239.308 392.128Z" fill="#FFC3BD"/>
<path d="M210.963 396.503L214.754 407.308L224.339 405.324L223.205 388.107L210.963 396.503Z" fill="#FFC3BD"/>
<path d="M284.361 431.628H361.39C361.939 424.755 360.345 402.366 361.532 373.884C362.329 354.754 364.384 332.861 369.185 311.056C369.539 309.497 369.876 307.974 370.248 306.415C370.248 306.415 366.351 305.618 360.752 304.803C356.111 304.13 350.282 303.422 344.56 303.156C334.727 302.696 320.484 302.377 311.82 303.156C306.789 303.617 301.882 304.467 297.949 305.211C292.935 306.22 289.977 307.088 289.977 307.088C289.977 307.088 271.003 350.644 284.343 431.628H284.361Z" fill="#407BFF"/>
<path opacity="0.5" d="M284.361 431.628H361.39C361.939 424.755 360.345 402.366 361.532 373.884C362.329 354.754 364.384 332.861 369.185 311.056C369.539 309.497 369.876 307.974 370.248 306.415C370.248 306.415 366.351 305.618 360.752 304.803C356.111 304.13 350.282 303.422 344.56 303.156C334.727 302.696 320.484 302.377 311.82 303.156C306.789 303.617 301.882 304.467 297.949 305.211C292.935 306.22 289.977 307.088 289.977 307.088C289.977 307.088 271.003 350.644 284.343 431.628H284.361Z" fill="white"/>
<path opacity="0.5" d="M361.532 373.901C362.329 354.771 364.384 332.878 369.185 311.074C364.03 310.631 355.243 311.127 353.772 319.452C352.195 328.379 352.089 349.263 361.532 373.901Z" fill="#407BFF"/>
<path d="M375.155 316.388C375.882 317.752 376.413 318.779 376.998 319.966C377.565 321.117 378.079 322.268 378.592 323.42C379.62 325.722 380.594 328.043 381.515 330.381C383.34 335.075 384.952 339.857 386.281 344.764C387.627 349.67 388.708 354.683 389.435 359.837C390.179 364.992 390.551 370.27 390.373 375.673V376.186L390.303 377.196C390.267 377.905 390.143 378.613 390.019 379.304C389.736 380.685 389.293 381.996 388.744 383.13C387.645 385.45 386.246 387.222 384.864 388.603C382.082 391.349 379.372 392.943 376.768 394.307C371.559 396.964 366.581 398.381 361.638 399.656C356.695 400.843 351.806 401.675 346.934 402.295C342.026 402.88 337.243 403.287 332.194 403.358L330.741 392.642C339.493 390.056 348.493 387.31 356.642 383.98C360.699 382.35 364.632 380.437 367.661 378.418C369.167 377.426 370.39 376.328 370.85 375.62C371.081 375.283 371.081 375.106 370.957 375.248C370.904 375.318 370.797 375.496 370.744 375.708C370.691 375.814 370.691 375.938 370.656 376.062C370.656 376.098 370.656 376.257 370.656 376.186V375.797C370.159 367.666 368.158 359.217 365.536 350.892C364.189 346.73 362.701 342.567 361.053 338.458C360.238 336.403 359.388 334.349 358.502 332.347L357.138 329.353L355.845 326.573L375.155 316.388Z" fill="#FFC3BD"/>
<path d="M370.248 306.433C356.235 302.005 347.252 313.217 351.132 332.648C355.012 352.097 360.008 359.324 360.008 359.324L392.818 354.683C390.125 335.624 384.616 310.968 370.248 306.433Z" fill="#407BFF"/>
<path opacity="0.5" d="M370.248 306.433C356.235 302.005 347.252 313.217 351.132 332.648C355.012 352.097 360.008 359.324 360.008 359.324L392.818 354.683C390.125 335.624 384.616 310.968 370.248 306.433Z" fill="white"/>
<path d="M343.869 266.455L335.099 273.717L323.176 283.619C323.531 285.231 323.796 286.86 323.938 288.437C324.576 294.902 322.911 300.783 313.397 303.05C313.397 303.05 304.043 311.8 322.769 312.066C341.495 312.331 345.853 303.245 345.853 303.245C338.731 296.213 341.459 276.994 343.886 266.455H343.869Z" fill="#FFC3BD"/>
<path d="M344.507 298.002C344.507 298.002 334.71 308.222 321.812 312.066C326.79 312.969 330.174 317.539 330.263 321.967C339.528 319.222 350.53 305.282 350.229 302.696C347.43 300.765 344.507 298.002 344.507 298.002Z" fill="white"/>
<path d="M317.667 300.871C317.667 300.871 308.915 308.222 321.812 312.048C316.834 312.951 313.504 315.502 311.803 320.975C304.805 312.633 308.827 304.183 310.368 302.093C313.769 301.81 317.667 300.871 317.667 300.871Z" fill="white"/>
<path opacity="0.2" d="M323.177 283.619C323.531 285.231 323.797 286.86 323.938 288.437C328.385 287.551 334.338 282.804 334.958 278.252C335.188 276.551 335.223 274.886 335.117 273.7L323.194 283.601L323.177 283.619Z" fill="black"/>
<path d="M311.749 234.094C305.85 238.947 306.931 257.793 312.564 256.058C318.198 254.322 321.44 226.105 311.749 234.094Z" fill="#263238"/>
<path d="M347.483 251.275C344.436 265.286 343.373 273.611 335.099 279.988C322.663 289.606 306.169 281.068 304.947 266.579C303.866 253.542 309.021 232.836 323.761 228.868C338.271 224.954 350.53 237.264 347.483 251.275Z" fill="#FFC3BD"/>
<path d="M342.806 260.893C340.538 258.112 340.379 250.974 341.991 248.707C339.564 246.758 337.137 240.541 339.015 238.114C334.267 237.796 309.694 243.694 304.787 226.052C307.338 226.867 312.494 226.052 312.494 226.052C312.494 226.052 307.498 217.745 316.356 215.265C317.649 219.48 328.332 219.906 333.629 219.693C344.507 219.268 356.89 223.785 351.876 232.216C359.866 235.67 361.16 251.063 342.806 260.911V260.893Z" fill="#263238"/>
<path d="M349.999 231.631C349.999 231.631 355.42 232.765 354.374 225.839C358.786 229.648 355.951 236.556 349.999 231.631Z" fill="#263238"/>
<path d="M349.768 264.259C347.713 266.951 344.701 268.563 342.079 269.023C338.111 269.714 336.924 266.083 338.66 262.54C340.237 259.352 344.188 255.154 347.855 256.075C351.469 256.961 352.107 261.177 349.768 264.259Z" fill="#FFC3BD"/>
<path d="M341.601 255.951C341.601 255.951 339.174 264.666 334.444 270.246C329.714 275.825 325.072 276.923 319.988 276.835C314.903 276.746 315.683 269.714 315.683 269.714L313.185 269.147C313.185 269.147 313.45 277.791 308.49 274.142C307.409 273.345 306.382 270.795 305.708 268.793C305.195 267.252 304.894 265.658 304.805 264.046C303.6 265.959 303.157 274.426 305 278.464C306.293 281.298 309.765 283.743 312.937 284.735C318.234 286.4 325.905 286.329 331.556 284.097C340.609 280.519 341.92 271.84 342.239 266.88C342.558 261.921 343.94 255.969 343.94 255.969H341.583L341.601 255.951Z" fill="#263238"/>
<path d="M333.434 392.039H320.147L326.578 406.192C326.578 406.192 339.67 405.997 339.015 399.266L333.434 392.039Z" fill="#FFC3BD"/>
<path d="M307.462 401.162L314.283 410.355L326.578 406.192L320.147 392.022L307.462 401.162Z" fill="#FFC3BD"/>
<path d="M486.483 660H492.949L492.949 413.33H486.483L486.483 660Z" fill="#407BFF"/>
<path d="M524.644 660H531.11V413.33H524.644V660Z" fill="#407BFF"/>
<path opacity="0.2" d="M524.644 660H531.11V413.33H524.644V660Z" fill="black"/>
<path d="M119.034 660H125.5L125.5 413.33H119.034L119.034 660Z" fill="#407BFF"/>
<path opacity="0.2" d="M119.034 413.33H125.501V579.07L119.034 564.598V413.33Z" fill="black"/>
<path d="M80.8383 660H87.3047L87.3047 413.33H80.8383L80.8383 660Z" fill="#407BFF"/>
<path d="M80.8383 557.62H492.932V413.33L80.8383 413.33V557.62Z" fill="#407BFF"/>
<path d="M76.7283 413.33L492.949 413.33V402.791L76.7283 402.791V413.33Z" fill="#407BFF"/>
<path d="M531.128 413.33H492.949V557.62H531.128V413.33Z" fill="#407BFF"/>
<path opacity="0.2" d="M531.128 413.33H492.949V557.62H531.128V413.33Z" fill="black"/>
<path d="M535.255 402.809H492.949V413.348H535.255V402.809Z" fill="#407BFF"/>
<path opacity="0.2" d="M535.255 402.809H492.949V413.348H535.255V402.809Z" fill="black"/>
<path opacity="0.2" d="M80.8384 420.681L531.11 420.681V413.348L80.8384 413.348V420.681Z" fill="black"/>
<path d="M338.59 374.486H185.434C179.606 374.486 174.61 369.721 174.344 363.894L170.287 274.904C170.021 269.077 174.574 264.312 180.403 264.312H333.558C339.387 264.312 344.383 269.077 344.648 274.904L348.705 363.894C348.971 369.721 344.418 374.486 338.59 374.486Z" fill="#407BFF"/>
<path d="M336.534 374.486H183.379C177.55 374.486 172.554 369.721 172.289 363.894L168.232 274.904C167.966 269.077 172.519 264.312 178.348 264.312H331.503C337.332 264.312 342.328 269.077 342.593 274.904L346.65 363.894C346.916 369.721 342.363 374.486 336.534 374.486Z" fill="#407BFF"/>
<path opacity="0.2" d="M336.534 374.486H183.379C177.55 374.486 172.554 369.721 172.289 363.894L168.232 274.904C167.966 269.077 172.519 264.312 178.348 264.312H331.503C337.332 264.312 342.328 269.077 342.593 274.904L346.65 363.894C346.916 369.721 342.363 374.486 336.534 374.486Z" fill="white"/>
<path d="M273.713 320.71H244.464V374.486H273.713V320.71Z" fill="#407BFF"/>
<path d="M243.543 314.971L230.628 402.773H262.269L275.184 314.971H243.543ZM262.127 342.868L260.036 357.056C259.717 359.235 257.857 360.847 255.66 360.847H250.895C248.184 360.847 246.112 358.438 246.501 355.763L248.592 341.575C248.911 339.397 250.771 337.785 252.968 337.785H257.733C260.444 337.785 262.517 340.194 262.127 342.868Z" fill="#407BFF"/>
<path opacity="0.2" d="M243.543 314.971L230.628 402.773H262.269L275.184 314.971H243.543ZM262.127 342.868L260.036 357.056C259.717 359.235 257.857 360.847 255.66 360.847H250.895C248.184 360.847 246.112 358.438 246.501 355.763L248.592 341.575C248.911 339.397 250.771 337.785 252.968 337.785H257.733C260.444 337.785 262.517 340.194 262.127 342.868Z" fill="white"/>
<path d="M280.304 396.361H224.923L218.138 402.809H295.026L280.304 396.361Z" fill="#407BFF"/>
<path opacity="0.2" d="M280.304 396.361H224.923L218.138 402.809H295.026L280.304 396.361Z" fill="white"/>
<path d="M116.749 383.112C113.631 381.394 114.694 364.301 116.058 354.559C117.723 342.78 122.684 321.932 138.433 310.383C145.945 304.874 153.12 300.198 154.378 294.264C156.681 299.525 169.773 337.218 151.1 354.116C135.298 368.41 123.605 365.222 116.731 383.112H116.749Z" fill="#407BFF"/>
<g opacity="0.2">
<path d="M116.749 383.112C113.631 381.394 114.694 364.301 116.058 354.559C117.723 342.78 122.684 321.932 138.433 310.383C145.945 304.874 153.12 300.198 154.378 294.264C156.681 299.525 169.773 337.218 151.1 354.116C135.298 368.41 123.605 365.222 116.731 383.112H116.749Z" fill="black"/>
</g>
<path d="M120.859 373.441C124.509 371.404 120.345 351.548 117.015 340.247C112.993 326.573 103.32 302.412 81.6356 289.198C71.2895 282.893 61.5102 277.561 58.9591 270.671C56.9394 276.817 50.4731 325.226 76.7106 344.64C98.9088 361.06 109.308 352.752 120.877 373.441H120.859Z" fill="#407BFF"/>
<path d="M119.034 369.013C118.822 369.013 118.627 368.871 118.574 368.658C118.521 368.464 112.639 348.253 98.3242 320.107C85.0195 293.963 67.1617 289.73 66.9845 289.694C66.7188 289.641 66.5593 289.375 66.6125 289.11C66.6656 288.844 66.9137 288.685 67.1971 288.738C67.3743 288.773 85.6573 293.095 99.1923 319.665C113.56 347.899 119.459 368.198 119.513 368.393C119.584 368.658 119.442 368.924 119.176 368.995C119.123 368.995 119.087 369.013 119.034 369.013Z" fill="white"/>
<path d="M62.6086 306.84C62.4846 306.84 62.3606 306.805 62.272 306.699C62.0771 306.522 62.0771 306.203 62.2543 306.008C62.3606 305.902 72.7776 295.15 87.3225 302.306C87.5705 302.43 87.6591 302.713 87.5351 302.961C87.4111 303.209 87.1276 303.298 86.8796 303.174C72.9902 296.337 63.0515 306.575 62.9452 306.681C62.8566 306.787 62.7149 306.84 62.5909 306.84H62.6086Z" fill="white"/>
<path d="M81.3344 339.166C81.3344 339.166 81.1573 339.149 81.0864 339.096C80.8561 338.954 80.7852 338.67 80.9093 338.422C80.9978 338.281 89.8027 323.65 102.735 327.246C103.001 327.316 103.143 327.582 103.072 327.848C103.001 328.114 102.718 328.255 102.47 328.184C90.2279 324.801 81.8128 338.777 81.7419 338.918C81.6533 339.078 81.4939 339.149 81.3167 339.149L81.3344 339.166Z" fill="white"/>
<path d="M95.3833 314.333C95.1707 314.333 94.9758 314.191 94.9226 313.979C94.8872 313.855 94.1254 310.95 95.3833 308.948C95.9325 308.063 96.8005 307.478 97.9344 307.266C98.2178 307.212 98.4481 307.39 98.5013 307.655C98.5544 307.921 98.3773 308.169 98.1293 308.222C97.2612 308.399 96.6234 308.807 96.2159 309.462C95.1884 311.109 95.8616 313.713 95.8793 313.731C95.9502 313.996 95.7907 314.262 95.5427 314.333C95.5073 314.333 95.4541 314.333 95.4187 314.333H95.3833Z" fill="white"/>
<path d="M144.687 364.372H99.8477L103.975 402.756H140.559L144.687 364.372Z" fill="#407BFF"/>
<path opacity="0.7" d="M144.687 364.372H99.8477L103.975 402.756H140.559L144.687 364.372Z" fill="white"/>
<path d="M500.036 367.985V365.594C500.036 364.531 499.168 363.663 498.105 363.663H474.259C473.196 363.663 472.328 364.531 472.328 365.594V402.809H500.036V398.487C506.059 398.487 510.789 391.791 510.789 383.236C510.789 374.681 506.059 367.985 500.036 367.985ZM500.036 394.608V371.864C503.756 371.864 506.91 377.072 506.91 383.236C506.91 389.4 503.756 394.608 500.036 394.608Z" fill="#407BFF"/>
<path opacity="0.2" d="M500.036 367.985V365.594C500.036 364.531 499.168 363.663 498.105 363.663H474.259C473.196 363.663 472.328 364.531 472.328 365.594V402.809H500.036V398.487C506.059 398.487 510.789 391.791 510.789 383.236C510.789 374.681 506.059 367.985 500.036 367.985ZM500.036 394.608V371.864C503.756 371.864 506.91 377.072 506.91 383.236C506.91 389.4 503.756 394.608 500.036 394.608Z" fill="white"/>
<path opacity="0.3" d="M500.036 371.864H496.882L500.036 380.615V371.864Z" fill="black"/>
<path opacity="0.3" d="M500.036 398.487H496.882L500.036 399.957V398.487Z" fill="black"/>
</g>
<defs>
<clipPath id="clip0_18_506">
<rect width="592" height="660" fill="white"/>
</clipPath>
</defs>
</svg>
