<svg width="643" height="618" viewBox="0 0 643 618" fill="none" xmlns="http://www.w3.org/2000/svg">
<g clip-path="url(#clip0_18_27)">
<path d="M502.173 278.019L25.233 2.28103C14.0187 -4.20205 0 3.8903 0 16.8706V568.342C0 581.312 14.0187 589.415 25.233 582.932L502.173 307.198C513.391 300.711 513.391 284.502 502.173 278.019Z" fill="#008A50"/>
<path d="M36.144 192.033C35.6327 197.14 35.8394 202.293 36.7581 207.341L28.0503 213.718L32.9609 224.359L37.8715 235L48.3624 232.485C51.6075 236.46 55.3947 239.958 59.6132 242.878L57.9552 253.535L68.9502 257.576L79.9435 261.619L85.5886 252.423C90.6915 252.93 95.8411 252.717 100.887 251.791L107.248 260.498L117.877 255.582L128.516 250.656L126.024 240.149C129.999 236.897 133.498 233.102 136.42 228.877L147.07 230.525L151.12 219.518L155.169 208.51L145.988 202.876C146.499 197.768 146.292 192.614 145.371 187.565L154.066 181.182L149.159 170.543L144.264 159.91L133.768 162.419C130.523 158.444 126.735 154.947 122.516 152.028L124.172 141.366L113.18 137.344L102.188 133.305L96.5385 142.495C91.4349 141.99 86.2849 142.204 81.2389 143.13L74.8771 134.423L64.2384 139.349L53.5988 144.255L56.0984 154.754C52.1225 158.006 48.6222 161.8 45.7001 166.025L35.0653 164.377L31.0157 175.384L26.9647 186.388L36.144 192.033ZM105.257 158.884C112.876 161.684 119.492 166.684 124.268 173.25C129.043 179.817 131.764 187.655 132.087 195.774C132.409 203.893 130.319 211.929 126.079 218.864C121.84 225.799 115.642 231.323 108.269 234.737C100.897 238.151 92.6811 239.301 84.6606 238.043C76.6401 236.784 69.1752 233.174 63.2101 227.667C57.2449 222.161 53.0473 215.006 51.148 207.108C49.2487 199.21 49.7331 190.922 52.5399 183.294C54.4036 178.229 57.2456 173.58 60.9035 169.612C64.5614 165.644 68.9637 162.435 73.8589 160.168C78.7542 157.902 84.0465 156.621 89.4338 156.401C94.8211 156.181 100.198 157.024 105.257 158.884Z" fill="white"/>
<path d="M84.9077 103.894C85.7519 101.697 86.2839 99.3932 86.4881 97.0496L91.1042 95.2782L90.2181 89.9776L89.3346 84.6794L84.3935 84.5188C83.439 82.3708 82.1891 80.367 80.6799 78.5654L82.7021 74.053L78.3424 70.9481L73.9698 67.831L70.349 71.2203C68.1536 70.3791 65.8507 69.8502 63.5076 69.6492L61.7426 65.0352L56.4628 65.8955L51.1642 66.8062L50.9995 71.7503C48.8489 72.7058 46.8426 73.9578 45.0389 75.4699L40.5295 73.4536L37.3964 77.8209L34.2858 82.1852L37.67 85.8017C36.8258 87.9983 36.2938 90.3021 36.0896 92.6457L31.4735 94.4171L32.357 99.7153L33.2405 105.013L38.1816 105.174C39.132 107.317 40.3759 109.316 41.8775 111.115L39.8553 115.628L44.2278 118.745L48.5875 121.85L52.2084 118.46C54.4037 119.302 56.7066 119.831 59.0498 120.032L60.8148 124.646L66.1139 123.755L71.4155 122.867L71.5802 117.922C73.7292 116.965 75.7345 115.712 77.5382 114.2L82.0476 116.217L85.1705 111.84L88.2933 107.463L84.9077 103.894ZM50.3253 110.177C47.2951 108.017 44.9746 105.006 43.6574 101.524C42.3401 98.0429 42.0853 94.2477 42.925 90.6185C43.7648 86.9893 45.6614 83.6893 48.3751 81.1356C51.0888 78.5818 54.4977 76.8892 58.1707 76.2717C61.8437 75.6542 65.6158 76.1395 69.01 77.6663C72.4043 79.1932 75.2682 81.6929 77.2397 84.8494C79.2112 88.0059 80.2016 91.6775 80.0858 95.3998C79.97 99.1221 78.7531 102.728 76.589 105.761C75.1521 107.776 73.333 109.487 71.2354 110.799C69.1379 112.111 66.8031 112.998 64.3642 113.408C61.9254 113.818 59.4304 113.743 57.0216 113.189C54.6128 112.635 52.3374 111.611 50.3253 110.177V110.177Z" fill="white"/>
<path d="M399.306 241.755C399.306 241.755 427.993 232.418 430.324 233.461C432.656 234.505 432.97 236.149 430.324 237.14C427.679 238.13 402.817 246.99 402.817 246.99C402.817 246.99 438.268 241.876 440.373 242.279C441.606 242.516 442.397 245.656 441.019 246.321C439.642 246.986 404.685 254.166 404.685 254.166C404.685 254.166 437.788 249.452 439.43 250.346C440.868 251.132 440.899 254.237 438.459 254.767C436.018 255.298 405.445 261.487 405.445 261.487C405.445 261.487 429.675 259.645 430.6 261.286C431.165 262.294 431.97 264.968 425.712 265.237C419.453 265.505 404.685 267.776 404.685 267.776L399.306 241.755Z" fill="#EEA886"/>
<path d="M367.687 257.838C367.687 257.838 376.973 254.142 377.637 248.288C378.202 243.301 382.338 237.115 383.606 235.202C385.305 232.652 387.844 222.915 390.815 224.991C393.785 227.067 387.361 241.221 386.576 244.443C385.792 247.666 398.448 240.797 401.619 241.419C404.791 242.042 413.42 264.292 404.254 267.971C395.089 271.649 383.27 269.311 381.766 270.291C380.261 271.271 375.182 273.241 375.182 273.241L367.687 257.838Z" fill="#EEA886"/>
<path d="M255.784 424.618C255.993 427.306 256.215 429.867 256.424 432.155H123.579C123.625 429.913 123.689 427.37 123.738 424.618C124.187 402.439 124.84 366.08 124.554 352.35C124.201 332.748 120.062 281.814 119.256 278.868C119.256 278.868 90.1097 236.464 59.5398 320.171C53.228 337.42 111.108 380.652 103.902 381.971C96.697 383.29 97.0149 396.964 97.0149 396.964C97.0149 396.964 42.5082 349.442 43.6279 335.436C44.2495 327.655 86.9202 214.652 93.4298 209.98C97.8696 206.779 125.773 195.578 140.237 190.089C146.93 187.528 152.03 185.753 153.083 185.689C156.392 185.48 197.205 189.399 197.205 189.399C197.205 189.399 203.054 191.401 209.048 194.153C219.259 198.843 235.185 206.178 246.587 211.628C250.278 213.397 254.894 215.756 258.73 217.79C258.259 231.678 257.435 246.581 256.258 262.499C256.258 262.499 254.138 297.27 253.941 332.395C252.104 340.349 252.422 358.833 252.422 358.833C251.913 376.354 253.863 394.339 254.371 404.391C254.714 410.68 255.24 418.057 255.784 424.618Z" fill="#DBD8E3"/>
<path d="M261.52 424.618C259.602 412.183 257.783 399.238 256.279 386.852V386.756C256.043 384.74 255.808 382.736 255.572 380.743C255.569 380.641 255.558 380.54 255.541 380.439C254.58 372.053 253.796 364.039 253.224 356.693C252.789 351.059 253.174 345.573 253.958 340.179C256.226 302.621 257.36 263.015 257.36 263.015C258.546 246.799 259.253 231.665 259.701 217.517C259.701 217.517 208.451 193.275 203.8 191.882C203.8 191.882 213.516 214.734 220.803 265.827C223.629 285.446 228.81 318.477 232.582 352.194C234.066 365.489 236.513 378.95 238.845 391.623C241.052 403.574 243.161 414.842 244.295 424.604C244.376 425.195 244.439 425.785 244.503 426.373C244.68 428.053 244.884 429.987 245.125 432.134H262.704C262.305 429.672 261.905 427.144 261.52 424.618Z" fill="#323657"/>
<path d="M171.248 364.863C168.914 387.524 166.356 405.862 164.297 424.636C164.025 427.112 163.753 429.644 163.499 432.173H109.596C110.303 429.676 110.984 427.164 111.641 424.636C117.427 402.792 122.043 380.499 122.043 366.985C122.043 366.985 110.825 286.207 107.071 273.198C107.071 273.198 73.1631 298.31 65.2159 315.715C58.1236 331.277 110.108 378.78 109.501 380.379C105.969 389.741 92.434 406.846 92.434 406.846C92.434 406.846 11.9384 320.249 13.0086 309.578C13.7751 301.815 81.2621 215.533 87.7646 210.861C91.5368 208.155 119.408 198.266 133.088 192.858C135.596 191.864 143.744 188.791 145.983 187.945C148.876 191.175 169.267 213.146 176.331 296.647C177.528 310.728 173.777 340.526 171.248 364.863Z" fill="#323657"/>
<path d="M156.862 190.032C156.862 190.032 156.58 176.001 151.179 147.618C149.738 140.017 195.234 167.612 195.234 167.612C195.234 167.612 195.093 170.272 195.001 173.865C194.952 175.764 194.924 177.918 194.934 180.079C194.934 180.843 194.934 181.6 194.966 182.35C195.008 184.359 195.1 186.28 195.27 187.914C195.439 189.601 196.435 192.572 196.788 193.389C198.664 197.711 172.184 201.014 156.862 190.032Z" fill="#EEA987"/>
<path d="M185.26 204.735L192.801 214.879C192.801 214.879 188.382 220.807 180.534 216.431L185.26 204.735Z" fill="#D44040"/>
<path d="M190.784 215.293C190.784 215.293 219.394 325.568 213.491 411.405L203.867 428.382L194.86 410.591C194.86 410.591 192.387 257.049 184.55 215.003L190.784 215.293Z" fill="#D44040"/>
<path d="M193.334 195.274L185.26 204.735C185.26 204.735 172.297 202.22 168.493 195.44C164.689 188.66 193.334 195.274 193.334 195.274Z" fill="#EEA987"/>
<path d="M195.185 186.994C195.185 186.994 194.249 194.206 185.26 204.735L195.072 217.935L200.37 190.552L195.185 186.994Z" fill="#C4C1CC"/>
<path d="M156.117 180.133C156.117 180.133 172.159 199.546 185.263 204.735L179.167 219.827L148.668 186.994L156.117 180.133Z" fill="#C4C1CC"/>
<path d="M391.8 273.591C391.8 273.591 322.671 348.799 306.36 344.777C298.812 342.92 287.396 329.883 277.973 317.628C274.861 313.593 271.809 309.359 268.906 305.164C257.324 288.424 248.25 272.374 248.25 272.374C248.25 272.374 214.021 232.202 241.487 214.299C241.487 214.299 253.065 213.128 259.648 217.991C265.727 222.483 280.519 250.76 282.921 256.005C285.323 261.251 304 298.197 305.745 299.293C307.49 300.39 325.832 289.358 335.637 282.748C351.485 272.07 371.392 253.455 371.392 253.455L391.8 273.591Z" fill="#323657"/>
<path d="M219.189 97.7625C219.189 97.7625 229.184 116.32 224.232 119.207C220.139 121.59 229.029 139.798 230.191 142.776C231.353 145.754 222.774 147.912 220.955 149.825C219.136 151.739 213.732 175.291 206.668 176.016C199.603 176.741 167.773 165.638 159.105 156.616C150.437 147.593 143.324 106.831 149.109 89.6348C154.895 72.4386 201.55 65.3472 219.189 97.7625Z" fill="#EEA886"/>
<path d="M221.184 101.784C221.184 101.784 231.389 81.744 212.856 66.8786C194.323 52.0131 160.15 78.1046 156.297 79.0984C152.444 80.0923 130.594 81.5955 141.635 120.02C151.108 153.012 152.433 154.398 152.433 154.398C152.433 154.398 159.497 135.299 163.513 132.374C169.768 127.822 183.49 128.915 183.49 128.915C183.49 128.915 176.956 111.535 187.164 109.073C197.371 106.612 210.864 97.9428 221.184 101.784Z" fill="#16202E"/>
<path d="M172.597 118.962C171.697 116.579 168.783 106.332 160.002 112.352C151.221 118.372 165.473 137.68 167.006 137.927C168.539 138.175 180.181 139.027 172.597 118.962Z" fill="#EEA886"/>
<path d="M194.934 180.08C194.934 180.843 194.934 181.6 194.966 182.35C168.942 173.604 163.901 160.422 163.901 160.422C172.025 166.173 195.001 173.862 195.001 173.862C194.969 175.782 194.923 177.904 194.934 180.08Z" fill="#A77860"/>
<path d="M100.109 380.075C100.109 380.075 102.582 382.141 105.181 382.119C109.685 382.08 114.817 377.168 119.525 381.631C124.233 386.095 114.319 405.031 110.748 407.249C107.177 409.466 99.0636 405.48 90.3783 394.969C81.693 384.457 100.109 380.075 100.109 380.075Z" fill="#EEA886"/>
<path d="M117.723 380.362C124.137 382.644 130.421 385.275 136.549 388.242C145.069 392.408 155.068 398.764 154.047 400.925C152.5 404.207 144.899 398.053 136.171 394.498C128.139 391.227 129.171 393.236 129.171 393.236C129.171 393.236 128.909 392.649 136.966 397.936C145.63 403.627 154.701 410.1 153.899 411.882C152.906 414.096 152.595 414.287 149.113 412.745C150.921 414.068 150.815 414.758 150.335 415.575C147.862 419.819 133.812 413.452 128.238 410.941C132.509 412.904 135.43 414.807 132.237 416.413C128.581 418.248 109.144 408.366 101.843 405.505C93.8785 402.386 117.723 380.362 117.723 380.362Z" fill="#EEA886"/>
<path d="M109.494 380.362C109.494 380.362 107.512 391.973 92.4302 406.824C92.4302 406.824 57.855 368.626 51.688 361.482L78.7647 345.764L109.494 380.362Z" fill="#323657"/>
<path d="M507.355 424.618H31.6648V432.155H507.355V424.618Z" fill="white"/>
<path d="M282.137 120.476H263.361C259.947 120.476 257.179 123.247 257.179 126.666V145.468C257.179 148.886 259.947 151.657 263.361 151.657H282.137C285.551 151.657 288.318 148.886 288.318 145.468V126.666C288.318 123.247 285.551 120.476 282.137 120.476Z" fill="#4CA1F4"/>
<g opacity="0.69">
<path opacity="0.72" d="M404.501 79.1798H303.181C301.406 79.1798 299.967 80.6208 299.967 82.3984V85.6452C299.967 87.4228 301.406 88.8637 303.181 88.8637H404.501C406.277 88.8637 407.716 87.4228 407.716 85.6452V82.3984C407.716 80.6208 406.277 79.1798 404.501 79.1798Z" fill="#D9D9D9"/>
<path opacity="0.72" d="M419.523 94.834H303.181C301.406 94.834 299.967 96.275 299.967 98.0525V101.299C299.967 103.077 301.406 104.518 303.181 104.518H419.523C421.298 104.518 422.737 103.077 422.737 101.299V98.0525C422.737 96.275 421.298 94.834 419.523 94.834Z" fill="#D9D9D9"/>
</g>
<path d="M282.137 76.2583H263.361C259.947 76.2583 257.179 79.0294 257.179 82.4478V101.25C257.179 104.668 259.947 107.439 263.361 107.439H282.137C285.551 107.439 288.318 104.668 288.318 101.25V82.4478C288.318 79.0294 285.551 76.2583 282.137 76.2583Z" fill="#4CA1F4"/>
<g opacity="0.69">
<path opacity="0.72" d="M378.166 123.398H302.754C301.214 123.398 299.967 124.647 299.967 126.188V130.291C299.967 131.832 301.214 133.082 302.754 133.082H378.166C379.706 133.082 380.953 131.832 380.953 130.291V126.188C380.953 124.647 379.706 123.398 378.166 123.398Z" fill="#D9D9D9"/>
<path opacity="0.72" d="M396.682 139.055H302.863C301.263 139.055 299.967 140.354 299.967 141.956V145.839C299.967 147.441 301.263 148.739 302.863 148.739H396.682C398.281 148.739 399.578 147.441 399.578 145.839V141.956C399.578 140.354 398.281 139.055 396.682 139.055Z" fill="#D9D9D9"/>
</g>
<g opacity="0.69">
<path opacity="0.72" d="M414.109 167.619H303.326C301.471 167.619 299.967 169.125 299.967 170.983V173.94C299.967 175.797 301.471 177.303 303.326 177.303H414.109C415.964 177.303 417.468 175.797 417.468 173.94V170.983C417.468 169.125 415.964 167.619 414.109 167.619Z" fill="#D9D9D9"/>
<path opacity="0.72" d="M404.703 183.273H302.98C301.316 183.273 299.967 184.624 299.967 186.29V189.94C299.967 191.607 301.316 192.957 302.98 192.957H404.703C406.367 192.957 407.716 191.607 407.716 189.94V186.29C407.716 184.624 406.367 183.273 404.703 183.273Z" fill="#D9D9D9"/>
</g>
<path d="M282.137 164.698H263.361C259.947 164.698 257.179 167.469 257.179 170.887V189.689C257.179 193.107 259.947 195.879 263.361 195.879H282.137C285.551 195.879 288.318 193.107 288.318 189.689V170.887C288.318 167.469 285.551 164.698 282.137 164.698Z" fill="#4CA1F4"/>
<path d="M271.686 143.597L263.046 136.081C262.878 135.934 262.739 135.756 262.64 135.556C262.54 135.356 262.48 135.138 262.465 134.915C262.449 134.692 262.477 134.468 262.548 134.256C262.619 134.044 262.73 133.848 262.877 133.679C263.023 133.511 263.201 133.372 263.401 133.272C263.601 133.172 263.818 133.113 264.041 133.097C264.263 133.081 264.487 133.11 264.699 133.18C264.91 133.251 265.106 133.363 265.275 133.51L271.385 138.815L280.071 129.096C280.371 128.759 280.793 128.556 281.243 128.532C281.466 128.519 281.689 128.551 281.9 128.625C282.11 128.699 282.304 128.814 282.471 128.963C282.637 129.112 282.772 129.292 282.869 129.494C282.966 129.695 283.022 129.914 283.034 130.137C283.046 130.36 283.015 130.584 282.941 130.795C282.867 131.005 282.752 131.2 282.603 131.366L271.686 143.597Z" fill="white"/>
<path d="M271.686 187.825L263.046 180.306C262.878 180.159 262.739 179.981 262.64 179.781C262.54 179.581 262.48 179.363 262.465 179.14C262.449 178.917 262.477 178.693 262.548 178.481C262.619 178.269 262.73 178.073 262.877 177.904C263.023 177.735 263.201 177.597 263.401 177.497C263.601 177.397 263.818 177.338 264.041 177.322C264.263 177.306 264.487 177.335 264.699 177.405C264.91 177.476 265.106 177.588 265.275 177.734L271.385 183.04L280.071 173.306C280.218 173.134 280.398 172.993 280.6 172.891C280.802 172.789 281.023 172.729 281.248 172.714C281.474 172.699 281.701 172.729 281.915 172.802C282.129 172.876 282.326 172.992 282.495 173.143C282.664 173.294 282.8 173.477 282.897 173.682C282.994 173.887 283.05 174.109 283.06 174.335C283.07 174.562 283.035 174.788 282.956 175.001C282.878 175.213 282.758 175.408 282.603 175.573L271.686 187.825Z" fill="white"/>
<path d="M272.17 95.651L272.12 94.9649C271.961 93.5501 272.434 91.9833 273.752 90.4023C274.939 89.0053 275.596 87.976 275.596 86.7876C275.596 85.4436 274.752 84.5453 273.095 84.5205C272.145 84.5161 271.216 84.801 270.432 85.3375L269.8 83.6752C270.668 83.0421 272.17 82.6141 273.568 82.6141C276.595 82.6141 277.966 84.4851 277.966 86.5047C277.966 88.2979 276.966 89.5924 275.702 91.1026C274.543 92.4749 274.119 93.635 274.201 94.9932L274.225 95.6793L272.17 95.651ZM271.59 99.3435C271.576 99.1281 271.607 98.9121 271.68 98.7092C271.754 98.5062 271.868 98.3208 272.017 98.1645C272.166 98.0083 272.345 97.8846 272.544 97.8014C272.743 97.7182 272.957 97.6773 273.173 97.6812C273.501 97.6678 273.826 97.7529 274.105 97.9256C274.385 98.0983 274.607 98.3507 274.742 98.6505C274.878 98.9502 274.921 99.2837 274.866 99.6081C274.811 99.9324 274.66 100.233 274.434 100.471C274.207 100.709 273.914 100.874 273.593 100.945C273.273 101.015 272.938 100.988 272.632 100.867C272.327 100.746 272.064 100.536 271.879 100.265C271.693 99.9933 271.593 99.6725 271.59 99.3435V99.3435Z" fill="white"/>
<path d="M502.399 340.915H483.623C480.209 340.915 477.442 343.686 477.442 347.104V365.906C477.442 369.325 480.209 372.096 483.623 372.096H502.399C505.813 372.096 508.581 369.325 508.581 365.906V347.104C508.581 343.686 505.813 340.915 502.399 340.915Z" fill="#4CA1F4"/>
<g opacity="0.69">
<path opacity="0.72" d="M624.764 299.615H523.443C521.668 299.615 520.229 301.056 520.229 302.834V306.08C520.229 307.858 521.668 309.299 523.443 309.299H624.764C626.539 309.299 627.978 307.858 627.978 306.08V302.834C627.978 301.056 626.539 299.615 624.764 299.615Z" fill="#D9D9D9"/>
<path opacity="0.72" d="M639.786 315.273H523.443C521.668 315.273 520.229 316.714 520.229 318.491V321.738C520.229 323.516 521.668 324.957 523.443 324.957H639.786C641.561 324.957 643 323.516 643 321.738V318.491C643 316.714 641.561 315.273 639.786 315.273Z" fill="#D9D9D9"/>
</g>
<path d="M502.399 296.693H483.623C480.209 296.693 477.442 299.465 477.442 302.883V321.685C477.442 325.103 480.209 327.874 483.623 327.874H502.399C505.813 327.874 508.581 325.103 508.581 321.685V302.883C508.581 299.465 505.813 296.693 502.399 296.693Z" fill="#4CA1F4"/>
<g opacity="0.69">
<path opacity="0.72" d="M598.429 343.833H523.016C521.477 343.833 520.229 345.082 520.229 346.623V350.726C520.229 352.267 521.477 353.517 523.016 353.517H598.429C599.968 353.517 601.216 352.267 601.216 350.726V346.623C601.216 345.082 599.968 343.833 598.429 343.833Z" fill="#D9D9D9"/>
<path opacity="0.72" d="M616.944 359.49H523.126C521.526 359.49 520.229 360.789 520.229 362.391V366.274C520.229 367.876 521.526 369.174 523.126 369.174H616.944C618.544 369.174 619.84 367.876 619.84 366.274V362.391C619.84 360.789 618.544 359.49 616.944 359.49Z" fill="#D9D9D9"/>
</g>
<path d="M491.948 364.039L483.309 356.516C482.968 356.22 482.759 355.801 482.727 355.35C482.696 354.9 482.844 354.455 483.139 354.114C483.435 353.773 483.854 353.564 484.303 353.532C484.753 353.5 485.197 353.649 485.538 353.945L491.648 359.25L500.333 349.52C500.482 349.353 500.662 349.218 500.863 349.12C501.064 349.023 501.282 348.967 501.505 348.954C501.728 348.942 501.951 348.973 502.162 349.047C502.373 349.12 502.567 349.235 502.733 349.384C502.9 349.533 503.036 349.713 503.132 349.914C503.229 350.116 503.286 350.334 503.298 350.557C503.311 350.781 503.28 351.004 503.206 351.215C503.132 351.426 503.018 351.62 502.869 351.787L491.948 364.039Z" fill="white"/>
<path d="M379.124 501.481C380.561 507.724 380.311 522.229 380.311 522.229C380.703 535.987 379.17 550.113 378.778 558.004C378.778 558.248 378.753 558.489 378.742 558.74C378.643 560.6 378.52 562.574 378.389 564.576H481.172C481.137 562.68 481.101 560.728 481.07 558.74C480.861 547.093 480.677 534.335 480.66 525.228C504.148 519.017 529.512 510.911 529.049 504.983C528.562 498.882 510.262 409.056 505.148 405.392C501.661 402.881 479.759 394.095 468.414 389.777C463.162 387.771 459.157 386.374 458.337 386.325C455.738 386.162 423.698 389.236 423.698 389.236C423.698 389.236 419.107 390.813 414.409 392.97C406.395 396.656 393.902 402.41 384.934 406.686C382.041 408.062 378.421 409.93 375.397 411.528C375.76 422.429 376.405 434.124 377.333 446.614C377.333 446.614 378.965 473.915 379.124 501.481ZM480.953 511.873C482.217 494.772 487.367 465.395 487.939 463.315C487.939 463.315 490.355 465.607 490.369 465.607C490.384 465.607 491.164 465.717 491.171 465.706C491.421 465.782 491.665 465.874 491.902 465.982C491.902 465.982 507.443 487.734 507.623 499.427C507.708 505.004 495.547 509.001 480.953 511.873Z" fill="#DBD8E3"/>
<path d="M374.567 564.576H388.032C388.34 562.677 388.67 560.732 389.021 558.74C391.302 545.866 394.319 531.318 395.905 517.037C398.864 490.574 402.937 464.645 405.137 449.242C410.859 409.141 418.488 391.198 418.488 391.198C414.843 392.288 374.617 411.327 374.617 411.327C374.97 422.411 375.514 434.316 376.453 447.049C376.453 447.049 377.344 478.142 379.127 507.629C379.795 511.914 379.988 516.26 379.703 520.588C379.254 526.356 378.643 532.652 377.88 539.22C377.88 539.308 377.88 539.393 377.856 539.467C377.676 541.027 377.503 542.594 377.301 544.182C377.301 544.21 377.301 544.224 377.301 544.249C376.725 549.017 376.086 553.887 375.408 558.75C375.133 560.686 374.852 562.628 374.567 564.576Z" fill="#323657"/>
<path d="M413.074 520.213C416.133 527.439 426.676 545.289 426.676 545.289C426.676 545.289 434.305 543.415 445.53 540.504C446.268 546.87 447.013 552.883 447.727 558.74C447.963 560.696 448.204 562.63 448.433 564.576H488.483C488.012 562.611 487.56 560.666 487.127 558.74C484.679 547.882 482.963 537.78 482.715 530.41C509.559 522.731 535.88 514.14 535.47 510.012C534.863 503.922 514.698 409.749 509.584 406.085C506.634 403.963 484.75 396.182 474.012 391.938C472.052 391.16 465.352 388.641 463.593 387.969C461.315 390.509 445.615 407.861 440.066 473.409C439.381 481.544 440.808 496.441 442.39 511.353C426.121 515.714 412.544 518.978 413.074 520.213ZM486.286 496.82C487.9 483.762 489.737 470.622 491.062 466.024C491.062 466.024 495.59 475.174 495.236 488.593C495.169 491.302 491.722 494.079 486.286 496.82V496.82Z" fill="#323657"/>
<path d="M459.976 387.354C459.976 387.354 455.9 379.644 457.027 357.754C457.337 351.688 425.217 372.135 425.217 372.135C425.217 372.135 425.326 374.225 425.397 377.044C425.432 378.218 425.454 379.52 425.454 380.828C425.454 381.182 425.454 381.557 425.454 381.925C425.454 382.523 425.454 383.113 425.432 383.693C425.432 384.429 425.39 385.147 425.351 385.84C425.316 386.629 425.263 387.375 425.189 388.058C424.95 389.529 424.551 390.97 423.998 392.355C422.522 395.775 447.949 395.966 459.976 387.354Z" fill="#EEA987"/>
<path d="M433.03 401.275L427.11 409.24C427.11 409.24 430.579 413.891 436.738 410.457L433.03 401.275Z" fill="#E8734D"/>
<path d="M428.71 409.569C428.71 409.569 407.02 462.622 411.647 529.996L418.489 542.428L426.203 531.838C426.203 531.838 427.446 442.356 433.602 409.357L428.71 409.569Z" fill="#E8734D"/>
<path d="M426.708 393.851L433.044 401.279C433.044 401.279 443.216 399.305 446.204 393.985C449.193 388.666 426.708 393.851 426.708 393.851Z" fill="#EEA987"/>
<path d="M425.259 387.35C425.259 387.35 425.994 393.009 433.051 401.275L425.351 411.638L421.183 390.141L425.259 387.35Z" fill="#C4C1CC"/>
<path d="M458.041 380.542C458.041 380.542 443.33 397.204 433.044 401.275L437.83 413.124L461.304 387.191L458.041 380.542Z" fill="#C4C1CC"/>
<path d="M306.826 531.269C306.826 531.269 326.351 512.308 339.155 509.153C345.075 507.696 352.873 499.515 360.28 489.895C362.724 486.712 365.119 483.401 367.397 480.108C376.489 466.965 383.613 454.367 383.613 454.367C383.613 454.367 410.481 422.836 388.911 408.78C388.911 408.78 379.671 408.579 374.603 411.334C369.389 414.163 358.274 437.401 356.388 441.517C354.502 445.634 334.101 483.843 332.719 484.688C331.338 485.534 329.071 488.689 320.901 493.092C310.898 498.486 295.184 514.271 295.184 514.271L306.826 531.269Z" fill="#323657"/>
<path d="M400.535 553.215C400.535 553.215 403.262 553.106 404.42 552.473C404.42 552.473 406.462 551.164 407.952 550.319C408.338 550.096 408.735 549.896 409.143 549.717C410.347 549.24 413.134 548.55 415.702 546.587C418.27 544.624 426.651 536.787 426.651 536.787L421.24 528.461L418.743 520.216C418.743 520.216 399.228 522.158 396.625 523.707C396.38 523.853 396.145 524.014 395.919 524.188C393.842 525.713 392.938 527.725 391.938 528.648C391.585 529.002 388.173 532.631 388.364 534.109C388.625 536.161 389.639 537.476 390.91 538.099C390.91 538.099 391.617 542.092 393.658 543.878C393.658 543.878 394.174 547.585 397.37 549.074C397.385 549.074 398.331 552.773 400.535 553.215Z" fill="#EFAA88"/>
<path d="M431.617 301.277C431.617 301.277 396.346 292.764 403.777 337.481C411.209 382.197 419.672 385.826 441.15 376.91C462.629 367.993 461.145 339.394 462.424 325.392C463.702 311.389 442.898 301.932 431.617 301.277Z" fill="#EEA886"/>
<path d="M450.146 332.246C450.673 328.317 458.461 326.99 458.998 332.897C459.535 338.803 455.229 349.099 452.287 348.035C449.345 346.97 449.426 337.661 450.146 332.246Z" fill="#EEA886"/>
<path d="M460.365 348.257C460.365 348.257 459.658 334.191 454.537 333.678C449.415 333.166 448.532 338.81 448.532 338.81L443.34 339.716C443.34 339.716 445.156 327.422 440.069 325.215C434.983 323.008 406.812 331.507 402.757 327.832C398.702 324.157 400.991 299.183 408.482 295.894C415.974 292.605 436.59 285.223 451.474 295.632C451.474 295.632 463.215 294.469 464.811 303.962C466.408 313.455 463.653 341.261 460.365 348.257Z" fill="#16202E"/>
<path d="M412.113 520.216L426.676 545.285C426.676 545.285 465.256 535.333 474.256 532.79L453.678 508.265C453.678 508.265 423.341 515.204 412.113 520.216Z" fill="#323657"/>
<path d="M425.348 385.872C444.265 383.941 451.598 369.358 451.598 369.358C439.698 381.168 425.461 380.846 425.461 380.846C425.461 381.2 425.461 381.575 425.461 381.943C425.461 382.54 425.461 383.131 425.439 383.711C425.411 384.457 425.387 385.165 425.348 385.872Z" fill="#A77860"/>
<path d="M397.762 465.321L408.051 561.109H272.629L262.34 465.321H397.762Z" fill="#FFC955"/>
<path d="M418.831 552.49H396.212V561.109H418.831V552.49Z" fill="#FFC955"/>
<path d="M513.529 560.911H145.461V566.747H513.529V560.911Z" fill="url(#paint0_linear_18_27)"/>
<path d="M342.715 511.675C343.803 517.008 341.32 522.024 337.167 522.872C333.013 523.721 328.764 520.089 327.676 514.755C326.588 509.422 329.071 504.406 333.225 503.558C337.378 502.709 341.628 506.341 342.715 511.675Z" fill="#CFA345"/>
<path d="M177.514 336.543H55.6474C49.7914 336.543 45.0442 341.297 45.0442 347.161V464.447C45.0442 470.311 49.7914 475.065 55.6474 475.065H177.514C183.37 475.065 188.117 470.311 188.117 464.447V347.161C188.117 341.297 183.37 336.543 177.514 336.543Z" fill="#E0E0E0"/>
<path d="M58.3072 459.092L57.3147 458.042L82.9645 433.807L108.925 439.438L133.72 411.122L155.347 412.345L172.188 389.08L173.357 389.929L156.053 413.835L134.342 412.607L109.451 441.033L83.4025 435.381L58.3072 459.092Z" fill="#377B93"/>
<path d="M112.952 439.42C113.112 440.166 113.048 440.942 112.768 441.651C112.488 442.36 112.005 442.971 111.379 443.405C110.752 443.839 110.012 444.078 109.25 444.091C108.489 444.104 107.741 443.891 107.1 443.478C106.46 443.066 105.956 442.472 105.651 441.773C105.347 441.074 105.257 440.3 105.392 439.55C105.527 438.799 105.881 438.105 106.409 437.556C106.937 437.007 107.616 436.627 108.36 436.463C108.855 436.354 109.368 436.344 109.867 436.434C110.366 436.524 110.843 436.711 111.27 436.986C111.696 437.261 112.065 437.617 112.353 438.035C112.642 438.453 112.845 438.923 112.952 439.42V439.42Z" fill="#E6E6E6"/>
<path d="M110.154 444.715C109.266 444.911 108.34 444.838 107.493 444.506C106.646 444.174 105.916 443.597 105.397 442.85C104.878 442.102 104.592 441.216 104.576 440.306C104.56 439.395 104.814 438.5 105.307 437.734C105.799 436.969 106.508 436.367 107.343 436.005C108.177 435.643 109.1 435.538 109.995 435.702C110.89 435.866 111.715 436.293 112.368 436.928C113.02 437.563 113.469 438.377 113.658 439.268C113.91 440.455 113.683 441.694 113.027 442.714C112.371 443.735 111.338 444.454 110.154 444.715V444.715ZM108.526 437.156C107.92 437.287 107.366 437.594 106.934 438.04C106.503 438.486 106.213 439.05 106.102 439.66C105.99 440.271 106.062 440.901 106.309 441.471C106.555 442.04 106.965 442.524 107.486 442.86C108.007 443.197 108.616 443.371 109.236 443.361C109.856 443.35 110.458 443.156 110.968 442.802C111.478 442.449 111.871 441.952 112.098 441.374C112.326 440.797 112.377 440.165 112.245 439.558C112.068 438.747 111.578 438.038 110.881 437.588C110.184 437.138 109.337 436.983 108.526 437.156Z" fill="#377B93"/>
<path d="M137.789 411.291C137.95 412.037 137.887 412.813 137.607 413.523C137.328 414.233 136.845 414.843 136.219 415.278C135.593 415.713 134.853 415.952 134.091 415.965C133.329 415.979 132.581 415.766 131.94 415.354C131.299 414.942 130.795 414.349 130.49 413.649C130.186 412.95 130.095 412.177 130.23 411.426C130.364 410.675 130.718 409.981 131.246 409.432C131.774 408.882 132.453 408.501 133.197 408.338C133.693 408.229 134.204 408.219 134.704 408.308C135.203 408.398 135.679 408.585 136.106 408.859C136.533 409.134 136.901 409.49 137.19 409.907C137.479 410.325 137.682 410.795 137.789 411.291V411.291Z" fill="#E6E6E6"/>
<path d="M134.992 416.586C134.103 416.782 133.177 416.709 132.33 416.377C131.483 416.045 130.754 415.469 130.235 414.721C129.715 413.973 129.429 413.088 129.413 412.177C129.397 411.266 129.652 410.372 130.144 409.606C130.637 408.84 131.345 408.238 132.18 407.876C133.015 407.514 133.938 407.409 134.832 407.573C135.727 407.737 136.553 408.164 137.205 408.799C137.857 409.434 138.306 410.248 138.495 411.139C138.748 412.326 138.521 413.565 137.864 414.586C137.208 415.606 136.175 416.325 134.992 416.586V416.586ZM133.36 409.046C132.754 409.176 132.201 409.484 131.77 409.93C131.339 410.376 131.049 410.94 130.939 411.551C130.828 412.161 130.9 412.791 131.147 413.361C131.393 413.93 131.803 414.413 132.324 414.749C132.845 415.085 133.454 415.259 134.074 415.249C134.694 415.238 135.296 415.044 135.806 414.691C136.315 414.337 136.708 413.84 136.936 413.263C137.163 412.685 137.214 412.054 137.083 411.447C136.907 410.634 136.416 409.925 135.718 409.475C135.02 409.024 134.172 408.87 133.36 409.046V409.046Z" fill="#377B93"/>
<path d="M159.257 412.154C159.417 412.9 159.353 413.676 159.073 414.385C158.793 415.095 158.31 415.705 157.684 416.139C157.058 416.573 156.317 416.812 155.556 416.825C154.794 416.838 154.046 416.625 153.405 416.212C152.765 415.8 152.261 415.207 151.957 414.508C151.653 413.808 151.562 413.035 151.697 412.284C151.832 411.533 152.186 410.84 152.714 410.29C153.242 409.741 153.921 409.361 154.665 409.198C155.161 409.088 155.673 409.078 156.172 409.168C156.671 409.258 157.148 409.445 157.575 409.72C158.002 409.995 158.37 410.351 158.658 410.769C158.947 411.187 159.15 411.658 159.257 412.154V412.154Z" fill="#E6E6E6"/>
<path d="M156.47 417.449C155.582 417.645 154.656 417.572 153.809 417.24C152.962 416.908 152.233 416.332 151.714 415.584C151.194 414.836 150.909 413.951 150.892 413.041C150.876 412.13 151.13 411.236 151.622 410.47C152.115 409.704 152.823 409.102 153.657 408.74C154.492 408.378 155.415 408.272 156.309 408.436C157.204 408.599 158.029 409.026 158.682 409.66C159.334 410.294 159.784 411.108 159.974 411.999C160.227 413.187 160.001 414.426 159.344 415.447C158.688 416.469 157.654 417.188 156.47 417.449V417.449ZM154.828 409.923C154.222 410.054 153.668 410.362 153.237 410.808C152.806 411.254 152.517 411.817 152.406 412.428C152.295 413.039 152.368 413.668 152.615 414.238C152.861 414.807 153.271 415.29 153.792 415.627C154.313 415.963 154.922 416.137 155.542 416.126C156.161 416.116 156.764 415.921 157.273 415.568C157.783 415.214 158.176 414.717 158.403 414.14C158.631 413.563 158.682 412.931 158.55 412.324C158.373 411.513 157.881 410.804 157.184 410.354C156.486 409.904 155.639 409.749 154.828 409.923Z" fill="#377B93"/>
<path d="M86.9274 434.132C87.0885 434.878 87.0253 435.654 86.7459 436.364C86.4664 437.074 85.9833 437.684 85.3574 438.119C84.7315 438.554 83.9911 438.793 83.2295 438.806C82.4679 438.82 81.7194 438.607 81.0786 438.195C80.4377 437.783 79.9332 437.19 79.6288 436.491C79.3243 435.791 79.2337 435.018 79.3682 434.267C79.5027 433.516 79.8564 432.822 80.3846 432.273C80.9128 431.723 81.5918 431.343 82.3358 431.179C82.831 431.07 83.3427 431.061 83.8417 431.15C84.3407 431.24 84.8171 431.427 85.2436 431.702C85.6702 431.976 86.0385 432.332 86.3274 432.749C86.6163 433.166 86.8202 433.636 86.9274 434.132V434.132Z" fill="#E6E6E6"/>
<path d="M84.1299 439.431C83.2418 439.626 82.3156 439.554 81.4688 439.222C80.6221 438.89 79.8929 438.313 79.3736 437.566C78.8544 436.818 78.5685 435.933 78.5522 435.022C78.536 434.112 78.7901 433.217 79.2823 432.451C79.7745 431.686 80.4827 431.084 81.3171 430.722C82.1515 430.359 83.0744 430.253 83.969 430.417C84.8635 430.581 85.6894 431.007 86.3418 431.641C86.9942 432.276 87.4439 433.09 87.6337 433.98C87.8869 435.168 87.6605 436.408 87.0041 437.429C86.3476 438.45 85.3144 439.17 84.1299 439.431V439.431ZM82.5016 431.887C81.8958 432.018 81.3424 432.325 80.9114 432.771C80.4804 433.217 80.1911 433.781 80.0803 434.392C79.9694 435.003 80.0419 435.632 80.2886 436.202C80.5352 436.771 80.945 437.254 81.466 437.59C81.987 437.927 82.5959 438.1 83.2156 438.09C83.8352 438.079 84.4379 437.885 84.9473 437.532C85.4567 437.178 85.8499 436.681 86.0772 436.104C86.3046 435.527 86.3558 434.895 86.2244 434.288C86.0484 433.476 85.5574 432.766 84.8594 432.316C84.1613 431.866 83.3133 431.711 82.5016 431.887V431.887Z" fill="#377B93"/>
<path d="M95.083 449.295H79.3088V452.337H95.083V449.295Z" fill="white"/>
<path d="M106.053 418.079H90.2793V421.12H106.053V418.079Z" fill="white"/>
<path d="M138.778 439.83H123.004V442.872H138.778V439.83Z" fill="white"/>
<path d="M152.927 397.109H137.153V400.15H152.927V397.109Z" fill="white"/>
<path d="M175.843 422.567H160.069V425.609H175.843V422.567Z" fill="white"/>
<path d="M111.754 347.129H55.5698V352.65H111.754V347.129Z" fill="#4E8C63"/>
<path d="M111.754 361.984H55.5698V367.505H111.754V361.984Z" fill="white"/>
<path d="M111.754 376.842H55.5698V382.363H111.754V376.842Z" fill="white"/>
<path d="M132.597 347.129H123.219V352.65H132.597V347.129Z" fill="#4E8C63"/>
<path d="M132.597 361.984H123.219V367.505H132.597V361.984Z" fill="white"/>
<path d="M132.597 376.842H123.219V382.363H132.597V376.842Z" fill="white"/>
<path d="M281.035 420.887C281.035 420.887 273.66 404.158 282.218 405.544C282.218 405.544 285.129 407.956 288.117 412.865C290.381 416.586 295.089 426.433 294.916 429.765C294.743 433.096 292.376 435.579 289.823 440.927C289.823 440.927 284.525 450.851 284.288 452.05L278.679 449.139C278.679 449.139 283.433 439.65 286.803 431.307L281.035 420.887Z" fill="#DBD8E3"/>
<path d="M327.538 451.814L214.541 432.554L211.271 451.79L324.268 471.05L327.538 451.814Z" fill="#E8734D"/>
<path d="M214.154 434.866L208.12 433.838L205.638 448.44L211.672 449.469L214.154 434.866Z" fill="#2D3038"/>
<path d="M238.347 562.637H236.955C236.955 562.637 237.418 557.375 236.132 557.332C234.846 557.29 231.65 561.615 229.743 562.284C227.835 562.952 218.048 563.522 217.995 561.714C217.942 559.907 221.757 559.185 222.94 558.673C224.123 558.16 229.898 552.533 230.926 551.861C231.954 551.189 233.716 546.527 233.716 546.527L239.18 546.283C239.18 546.283 239.491 550.644 239.819 552.95C239.933 553.666 240.008 554.387 240.046 555.111C240.099 557.056 238.347 562.637 238.347 562.637Z" fill="#EEA886"/>
<path d="M273.55 561.598H272.392V556.703C271.424 556.784 268.178 559.857 267.175 560.749C266.172 561.64 264.791 561.601 260.56 561.87C256.328 562.139 255.929 559.603 256.6 558.74C257.271 557.877 259.426 557.498 260.56 556.971C261.693 556.444 266.13 551.415 267.316 550.227C268.503 549.038 269.224 545.629 269.224 545.629L274.169 546.06C274.165 547.979 274.343 549.894 274.702 551.779C274.751 552.002 274.804 552.221 274.861 552.434C275.599 555.161 273.55 561.598 273.55 561.598Z" fill="#EEA886"/>
<path d="M255.262 450.568C255.262 450.568 253.393 454.996 253.227 456.114C253.061 457.232 248.688 467.825 247.42 474.966C246.665 479.238 244.574 492.622 244.401 494.323C244.111 497.237 242.744 503.664 242.532 506.638C242.416 508.3 234.235 533.823 232.257 547.146C232.257 547.146 236.962 547.853 240.494 546.909C240.494 546.909 247.671 533.136 251.659 513.606C254.061 501.839 256.183 495.568 258.045 490.722C259.906 485.877 270.439 472.154 271.537 470.612C272.636 469.07 279.527 460.549 273.003 451.318C266.479 442.087 255.262 450.568 255.262 450.568Z" fill="#323657"/>
<path d="M278.813 489.774C278.216 493.75 278.845 498.97 280.092 513.5C281.339 528.029 277.909 545.622 277.909 545.622C273.603 547.096 268.641 545.622 268.641 545.622C268.758 544.599 268.641 510.207 268.641 507.14C268.641 504.074 267.765 500.597 267.535 497.082C267.384 494.684 266.267 490.263 265.017 485.764C264.639 484.409 264.251 483.051 263.876 481.735C263.661 480.996 263.456 480.271 263.251 479.571C261.485 473.441 259.115 449.773 259.115 449.773C259.115 449.773 272.268 439.162 278.676 449.15C285.083 459.138 281.791 466.403 281.565 467.651C281.339 468.9 279.41 485.803 278.813 489.774Z" fill="#323657"/>
<path d="M273.36 468.429C273.257 468.656 266.702 483.224 265.017 485.76C264.639 484.405 264.251 483.047 263.876 481.732C263.876 481.732 273.141 468.751 273.36 468.429Z" fill="#131521"/>
<path d="M273.55 561.598H272.392V556.703C271.424 556.784 268.178 559.857 267.175 560.749C266.172 561.64 264.791 561.601 260.56 561.87C256.328 562.139 255.929 559.603 256.6 558.74C257.271 557.877 259.426 557.498 260.56 556.971C265.088 557.215 270.612 550.842 273.275 550.856C274.688 550.856 274.688 551.645 274.716 551.79C274.766 552.013 274.818 552.232 274.875 552.444C275.599 555.16 273.55 561.598 273.55 561.598Z" fill="#C6C9CC"/>
<path d="M238.347 562.637H236.955C236.955 562.637 237.418 557.375 236.132 557.332C234.846 557.29 231.65 561.615 229.743 562.284C227.835 562.952 218.048 563.522 217.995 561.714C217.942 559.907 221.757 559.185 222.94 558.673C226.977 558.673 233.536 554.213 235.581 553.311C236.928 552.777 238.403 552.654 239.819 552.957C239.933 553.673 240.008 554.394 240.046 555.118C240.099 557.056 238.347 562.637 238.347 562.637Z" fill="#C6C9CC"/>
<path d="M266.878 395.008C266.878 395.008 268.976 400.568 267.345 404.868C267.345 404.868 275.041 404.366 275.331 403.454C275.62 402.541 275.023 394.219 276.079 391.757C277.136 389.296 266.878 395.008 266.878 395.008Z" fill="#EEA886"/>
<path d="M266.133 402.987C266.133 402.987 261.584 404.607 259.528 405.056C257.473 405.505 253.171 407.532 253.524 415.224C253.877 422.917 255.156 429.563 255.622 432.859C256.088 436.156 255.799 444.559 255.039 448.637C255.039 448.637 265.943 451.396 278.771 448.637C278.771 448.637 276.496 441.68 276.556 439.88C276.616 438.08 284.136 423.257 284.486 420.922C284.836 418.588 286.351 408.264 282.911 405.986C279.47 403.708 276.673 404.006 275.214 402.987C273.756 401.968 268.26 402.255 266.133 402.987Z" fill="#DBD8E3"/>
<path d="M283.684 460.705C265.053 465.657 250.229 460.723 250.229 460.723C251.512 458.079 252.539 455.318 253.294 452.478V452.478C253.78 450.658 254.163 448.811 254.439 446.947V446.947C255.954 436.785 253.98 429.004 253.98 429.004C256.131 411.281 282.907 405.993 285.062 411.61C287.216 417.226 280.904 441.369 280.583 443.442C280.262 445.514 283.684 460.705 283.684 460.705Z" fill="#DBD8E3"/>
<path d="M273.586 372.697C270.492 371.636 262.128 370.501 259.984 383.357C257.84 396.214 262.509 396.444 267.302 396.069C272.095 395.694 279.597 387.025 280.17 384.397C280.742 381.769 282.412 375.728 273.586 372.697Z" fill="#EEA886"/>
<path d="M261.725 377.635C261.725 377.635 264.283 383.106 267.631 385.012C267.631 385.012 269.75 390.827 274.278 393.179C274.278 393.179 286.344 385.179 279.343 375.668C272.343 366.157 262.499 373.73 261.725 377.635Z" fill="#16202E"/>
<path d="M267.317 383.117C267.589 382.448 269.397 381.348 270.209 383.195C271.022 385.041 268.108 388.263 267.31 388.086C266.511 387.909 266.289 385.653 267.317 383.117Z" fill="#EEA886"/>
<path d="M278.916 377.136C279.181 376.726 287.17 373.023 288.83 380.761C290.49 388.5 282.395 397.498 280.978 401.367C279.562 405.236 281.618 414.305 281.618 414.305C281.618 414.305 276.747 409.707 275.26 404.869C273.657 399.567 273.113 386.201 278.916 377.136Z" fill="#16202E"/>
<path d="M279.318 376.874C279.318 376.874 276.874 378.812 276.556 381.868C276.556 381.868 276.097 379.484 277.086 378.027C278.075 376.57 279.318 376.874 279.318 376.874Z" fill="#E54242"/>
<path d="M253.298 452.475C253.784 450.654 254.166 448.807 254.442 446.943L254.668 445.235C255.297 444.632 255.78 443.895 256.081 443.077C256.498 441.825 259.581 426.454 259.581 426.454C259.581 426.454 262.849 440.891 253.298 452.475Z" fill="#1D3B54"/>
<path d="M239.583 453.366C239.583 453.366 237.181 455.757 236.404 455.994C235.627 456.231 234.129 454.912 228.633 454.501C228.146 454.466 227.295 454.901 227.496 455.541C227.697 456.181 230.099 457.925 231.123 458.194C232.148 458.463 237.001 460.387 239.364 459.442C241.727 458.498 243.334 455.485 243.334 455.485L239.583 453.366Z" fill="#EEA886"/>
<path d="M258.243 405.477C258.243 405.477 251.864 408.009 251.486 416.887C251.108 425.764 250.78 430.401 250.426 431.77C250.073 433.139 249.42 438.649 247.813 441.963C246.255 445.178 236.033 455.354 236.033 455.354L240.978 460.012C240.978 460.012 255.226 445.694 256.092 443.077C256.957 440.46 260.521 422.238 260.804 419.168C261.019 416.692 264.286 405.678 258.243 405.477Z" fill="#DBD8E3"/>
<path d="M198.123 429.107C198.123 429.411 198.092 429.715 198.071 430.019H209.726C209.747 429.715 209.758 429.411 209.769 429.107H198.123ZM68.0061 425.881C68.0061 426.235 68.0061 426.588 68.0061 426.942C68.0273 428.42 68.0909 429.885 68.218 431.342C68.5151 435.438 69.1759 439.499 70.1924 443.477C73.3437 455.851 79.7834 467.14 88.8276 476.143C89.1808 476.497 89.534 476.851 89.866 477.169C91.2541 478.51 92.6916 479.801 94.2175 481.014C106.841 491.321 122.638 496.937 138.926 496.908C139.209 496.908 139.491 496.908 139.774 496.908C152.185 496.783 164.344 493.38 175.02 487.04C189.662 478.354 200.709 464.7 206.159 448.556C206.712 446.889 207.211 445.199 207.656 443.488C208.44 440.396 209.017 437.255 209.384 434.087C209.454 433.407 209.528 432.725 209.581 432.035C209.634 431.345 209.698 430.716 209.726 430.044C209.747 429.74 209.758 429.436 209.769 429.131C209.8 428.463 209.822 427.802 209.832 427.133C209.832 426.723 209.832 426.312 209.832 425.906C209.832 390.357 183.748 360.905 149.692 355.71C149.031 355.603 148.374 355.508 147.703 355.427C146.972 355.342 146.238 355.257 145.506 355.193C144.846 355.133 144.178 355.08 143.518 355.038C141.989 354.931 140.452 354.893 138.926 354.893C137.616 354.893 136.32 354.924 135.041 354.995C132.833 355.112 130.654 355.349 128.5 355.657C116.544 357.447 105.243 362.261 95.6631 369.644C86.0835 377.027 78.5424 386.734 73.7528 397.848C73.6468 398.078 73.5514 398.318 73.4596 398.555C73.3678 398.792 73.2689 399.008 73.1876 399.227C72.6437 400.536 72.148 401.863 71.7006 403.21C70.5138 406.725 69.6114 410.33 69.0021 413.99C68.822 414.963 68.6878 415.949 68.55 416.943C68.55 417.113 68.5183 417.297 68.5006 417.456C68.5006 417.456 68.5006 417.477 68.5006 417.499C68.4884 417.582 68.4813 417.666 68.4794 417.75C68.4596 417.847 68.4454 417.945 68.437 418.043V418.118C68.4243 418.165 68.4172 418.214 68.4158 418.263C68.4035 418.336 68.3964 418.411 68.3946 418.485C68.3734 418.662 68.3522 418.839 68.3417 419.019C68.2392 420.109 68.1545 421.209 68.1015 422.309C68.1015 422.454 68.0803 422.613 68.0803 422.758L68.0485 423.465C68.0167 424.258 68.0061 425.064 68.0061 425.881V425.881ZM83.9003 447.976L83.6284 447.286C83.4306 446.773 83.2399 446.26 83.0527 445.733L82.6253 444.478C82.5193 444.163 82.4134 443.848 82.3215 443.534C82.3215 443.512 82.3215 443.495 82.3003 443.473C82.2778 443.415 82.2601 443.354 82.2474 443.293C82.0813 442.77 81.933 442.232 81.7882 441.701L81.6186 441.082C81.4632 440.517 81.3255 439.94 81.1913 439.364C81.1913 439.31 81.1595 439.25 81.1489 439.187C81.0323 438.653 80.9193 438.126 80.8133 437.584C80.7604 437.365 80.7215 437.142 80.6791 436.923C80.552 436.255 80.4389 435.572 80.3259 434.889C80.1387 433.697 80.001 432.491 79.8844 431.278C79.8456 430.868 79.8138 430.447 79.782 430.03C79.782 429.892 79.782 429.768 79.7608 429.63C79.729 429.064 79.6972 428.502 79.676 427.936V427.766C79.676 427.642 79.676 427.504 79.676 427.37C79.676 426.875 79.6548 426.383 79.6548 425.892C79.6548 425.4 79.6548 424.969 79.676 424.519C79.7069 422.697 79.8331 420.878 80.0539 419.069C80.0647 418.881 80.0859 418.693 80.1175 418.507C80.1153 418.502 80.1141 418.496 80.1141 418.491C80.1141 418.485 80.1153 418.48 80.1175 418.475C80.1175 418.475 80.1175 418.475 80.1175 418.475C80.1153 418.473 80.1135 418.47 80.1122 418.468C80.111 418.465 80.1103 418.462 80.1103 418.459C80.1103 418.456 80.111 418.453 80.1122 418.45C80.1135 418.447 80.1153 418.445 80.1175 418.443C80.1118 418.404 80.1118 418.365 80.1175 418.326V418.305C80.1175 418.284 80.1175 418.273 80.1175 418.263C81.2211 409.619 84.2261 401.329 88.9159 393.989C94.2858 385.57 101.682 378.638 110.426 373.829C112.747 372.549 115.152 371.428 117.624 370.476C118.412 370.175 119.217 369.882 120.023 369.617C124.594 368.073 129.34 367.106 134.151 366.738C135.719 366.6 137.298 366.539 138.902 366.539C139.382 366.539 139.852 366.539 140.332 366.561C140.887 366.561 141.43 366.589 141.989 366.61C142.384 366.631 142.783 366.663 143.179 366.695C143.287 366.697 143.396 366.704 143.504 366.716C144.164 366.759 144.832 366.822 145.492 366.893L145.994 366.957C146.255 366.989 146.527 367.02 146.789 367.063C147.05 367.105 147.386 367.134 147.689 367.187C148.36 367.282 149.017 367.399 149.678 367.512L149.854 367.544C150.367 367.639 150.879 367.742 151.394 367.859C151.423 367.859 151.454 367.859 151.486 367.88C151.695 367.922 151.917 367.972 152.126 368.025C152.606 368.131 153.079 368.244 153.538 368.379C153.747 368.421 153.955 368.474 154.156 368.534C154.7 368.683 155.244 368.828 155.788 368.998C156.332 369.167 156.823 369.312 157.335 369.479C157.575 369.553 157.816 369.638 158.042 369.719C159.066 370.073 160.08 370.427 161.076 370.851C161.348 370.957 161.62 371.07 161.892 371.205C162.308 371.381 162.718 371.558 163.135 371.749C163.488 371.894 163.806 372.043 164.131 372.209C164.622 372.428 165.102 372.672 165.583 372.916C166.127 373.188 166.661 373.471 167.186 373.765C167.79 374.091 168.376 374.423 168.952 374.77C170.167 375.477 171.34 376.238 172.484 377.033C172.979 377.369 173.459 377.712 173.939 378.094C174.547 378.526 175.133 378.975 175.706 379.435C176.218 379.845 176.73 380.263 177.231 380.694C177.733 381.126 178.259 381.575 178.761 382.034C184.872 387.592 189.754 394.369 193.091 401.93C196.428 409.491 198.147 417.668 198.138 425.934C198.138 426.341 198.138 426.751 198.138 427.161C198.138 427.83 198.106 428.491 198.063 429.16C198.063 429.464 198.032 429.768 198.01 430.072C197.961 430.744 197.908 431.402 197.834 432.063C197.647 433.949 197.364 435.802 196.997 437.638C196.6 439.625 196.101 441.591 195.499 443.526C195.029 445.054 194.496 446.565 193.899 448.029C189.548 458.899 182.083 468.237 172.442 474.867C162.802 481.497 151.418 485.122 139.724 485.286C139.442 485.286 139.159 485.286 138.877 485.286C128.113 485.29 117.551 482.358 108.325 476.806C99.0989 471.254 91.5564 463.292 86.507 453.773C86.2456 453.267 85.9843 452.765 85.7335 452.262L85.2743 451.3C85.0871 450.922 84.9211 450.544 84.741 450.158L84.5714 449.78C84.4266 449.426 84.2783 449.108 84.1441 448.765L83.9003 447.976Z" fill="#323657"/>
<path opacity="0.1" d="M180.699 467.707C203.766 444.609 203.766 407.159 180.699 384.061C157.633 360.962 120.234 360.962 97.1668 384.061C74.0998 407.159 74.0998 444.609 97.1667 467.707C120.234 490.805 157.633 490.805 180.699 467.707Z" fill="#B8B8B8"/>
<path opacity="0.3" d="M178.825 381.981C178.825 381.981 101.9 372.432 86.5708 453.73C80.0286 441.383 78.0469 427.12 80.9746 413.454C83.9024 399.787 91.5518 387.594 102.576 379.02C113.6 370.446 127.291 366.042 141.239 366.584C155.187 367.126 168.497 372.578 178.825 381.981V381.981Z" fill="#869AC2"/>
<path d="M88.8312 519.788H56.1809V521.73H88.8312V519.788Z" fill="url(#paint1_linear_18_27)"/>
<path d="M60.557 615.043H63.418L63.418 526.781H60.557L60.557 615.043Z" fill="#706865"/>
<path d="M106.414 519.237H83.7202V522.01H106.414V519.237Z" fill="#CCBDB7"/>
<path d="M99.3674 495.589H90.7739V521.727H99.3674V495.589Z" fill="#FFAB55"/>
<path d="M170.213 521.762H44.4685V526.781H170.213V521.762Z" fill="#B59074"/>
<path d="M20.334 491.387C20.334 491.387 18.96 510.699 22.7287 513.012C25.0881 514.458 34.5011 519.343 34.222 520.259C33.943 521.175 28.924 528.394 28.924 528.394C28.924 528.394 10.8292 516.485 10.2429 512.729C9.67425 509.058 11.133 484.434 13.616 483.316C15.4774 482.467 16.4417 483.168 18.8046 484.911C22.1036 487.359 20.334 491.387 20.334 491.387Z" fill="#FFC955"/>
<path d="M53.2881 496.901L54.8811 496.311C54.8811 496.311 52.8925 491.638 52.0236 491.752C51.2682 491.866 50.5195 492.02 49.7808 492.215L53.2881 496.901Z" fill="#EAD8CF"/>
<path d="M53.6519 497.708C53.447 497.556 50.2646 491.437 50.2646 491.437L43.4619 492.363L47.1352 499.607L53.6519 497.708Z" fill="#DA9B5B"/>
<path d="M42.5789 602.993C42.5789 602.993 42.0173 606.884 41.9466 607.488C41.876 608.093 35.6949 607.135 35.6949 607.135L35.1934 602.484C35.1934 602.484 41.8054 602.441 42.5789 602.993Z" fill="#424773"/>
<path d="M42.0314 606.99C42.0314 606.99 43.9917 609.345 45.8849 610.371C47.7781 611.397 50.7591 611.786 51.8894 612.868C52.6982 613.632 54.8351 616.935 46.9657 616.868C39.0963 616.801 35.3099 617.335 34.4551 616.069C33.6004 614.803 35.6772 606.724 35.6772 606.724C35.6772 606.724 37.5139 607.396 42.0314 606.99Z" fill="#292C47"/>
<path d="M82.2016 603.035C82.2016 603.035 81.6364 606.926 81.5693 607.531C81.5022 608.136 75.3141 607.177 75.3141 607.177L74.8125 602.526C74.8125 602.526 81.428 602.48 82.2016 603.035Z" fill="#424773"/>
<path d="M81.633 607.029C81.633 607.029 83.5932 609.381 85.4864 610.41C87.3796 611.439 94.3554 612.277 95.4751 613.338C96.2839 614.106 97.6296 617.194 86.5566 616.907C78.6908 616.702 74.9009 617.37 74.0496 616.108C73.1984 614.845 75.2682 606.763 75.2682 606.763C75.2682 606.763 77.0236 607.481 81.633 607.029Z" fill="#292C47"/>
<path d="M22.6333 535.481C22.6333 535.481 45.1184 539.291 50.1833 540.079C55.2483 540.868 82.7948 547.737 86.2385 549.827C88.9794 551.493 84.801 591.456 83.8261 606.703H72.9898L72.2057 560.965C59.1901 561.294 49.9043 557.919 40.4172 559.359C30.9301 560.798 23.0395 562.85 17.0173 554.761C17.0279 554.782 16.8054 537.25 22.6333 535.481Z" fill="#292C47"/>
<path d="M44.7936 606.763L34.2257 606.109L33.2014 560.986C27.5995 561.127 25.6816 560.774 21.1465 560.222L12.606 540.362C20.0833 541.858 44.0412 547.91 47.2378 549.848C49.9786 551.514 45.772 591.516 44.7936 606.763Z" fill="#292C47"/>
<path d="M32.9823 451.102C32.9823 451.102 41.2262 448.825 44.3697 455.23C47.5132 461.635 46.0898 473.781 41.9361 474.923C37.7824 476.066 31.8097 474.753 30.0825 470.764C28.3554 466.774 26.9849 461.112 27.3982 457.44C27.8114 453.769 30.796 451.98 32.9823 451.102Z" fill="#EEA886"/>
<path d="M39.7816 473.646C39.7816 473.646 39.6898 478.52 40.2266 479.556C40.7635 480.593 28.751 480.335 28.751 480.335C28.751 480.335 30.6442 474.485 29.5704 469.501C28.4967 464.518 39.7816 473.646 39.7816 473.646Z" fill="#EEA886"/>
<path d="M28.924 467.655C28.924 467.655 29.5633 468.964 32.675 468.751C35.7867 468.539 39.8839 464.783 41.2049 464.447C42.5259 464.111 42.6177 463.361 42.6177 463.361L43.3241 464.603L44.6769 464.811C44.6769 464.811 43.7551 461.045 45.7577 459.718C47.7604 458.392 44.8571 447.718 34.7201 450.292C34.7201 450.292 26.9813 451.707 26.8754 456.04C26.7694 460.373 27.4193 465.363 28.924 467.655Z" fill="#3A3F47"/>
<path d="M40.8589 479.433C40.8589 479.433 40.8235 477.448 39.9264 477.257C39.0293 477.067 30.4852 475.889 29.3832 476.324L28.9099 478.945C28.9099 478.945 31.0327 480.253 40.8589 479.433Z" fill="#E2D2CA"/>
<path d="M43.3312 462.473C43.1016 460.846 41.2543 458.979 40.1947 461.511C39.1351 464.044 40.9011 467.736 42.0985 467.524C43.2959 467.312 43.6455 464.68 43.3312 462.473Z" fill="#EEA886"/>
<path d="M76.6455 502.882C76.6935 502.906 76.7003 502.91 76.6455 502.882V502.882Z" fill="#323657"/>
<path d="M30.5805 452.266C30.5805 452.266 20.5318 451.792 28.8144 467.499L30.5805 452.266Z" fill="#3A3F47"/>
<path d="M8.19092 612.115L8.93618 614.219L40.5233 604.422L39.0081 600.156L8.19092 612.115Z" fill="#918783"/>
<path d="M41.6042 568.533H38.0156V602.919H41.6042V568.533Z" fill="#918783"/>
<path d="M50.3988 566.708H29.2241V568.735H50.3988V566.708Z" fill="#5E5854"/>
<path d="M71.7112 612.115L70.9624 614.219L39.3752 604.422L40.7669 599.891L71.7112 612.115Z" fill="#918783"/>
<path d="M49.4557 613.996V616.444L39.3752 604.422L40.7669 599.891L49.4557 613.996Z" fill="#918783"/>
<path d="M74.6605 615.061C74.6605 615.646 74.4873 616.217 74.1628 616.704C73.8384 617.19 73.3772 617.569 72.8377 617.793C72.2981 618.016 71.7044 618.075 71.1316 617.961C70.5588 617.847 70.0327 617.565 69.6197 617.152C69.2068 616.738 68.9256 616.211 68.8116 615.638C68.6977 615.064 68.7562 614.47 68.9797 613.929C69.2031 613.389 69.5816 612.927 70.0672 612.602C70.5528 612.277 71.1237 612.104 71.7077 612.104C72.4908 612.104 73.2419 612.416 73.7956 612.97C74.3494 613.525 74.6605 614.277 74.6605 615.061V615.061Z" fill="#BFB2AC"/>
<path d="M49.7066 615.061C49.7066 615.646 49.5334 616.217 49.209 616.704C48.8845 617.19 48.4234 617.569 47.8838 617.793C47.3443 618.016 46.7505 618.075 46.1778 617.961C45.605 617.847 45.0788 617.565 44.6659 617.152C44.2529 616.738 43.9717 616.211 43.8578 615.638C43.7438 615.064 43.8023 614.47 44.0258 613.929C44.2493 613.389 44.6278 612.927 45.1133 612.602C45.5989 612.277 46.1698 612.104 46.7538 612.104C47.537 612.104 48.288 612.416 48.8418 612.97C49.3955 613.525 49.7066 614.277 49.7066 615.061V615.061Z" fill="#BFB2AC"/>
<path d="M11.1436 615.061C11.1436 615.646 10.9705 616.217 10.646 616.704C10.3215 617.19 9.86038 617.569 9.32082 617.793C8.78127 618.016 8.18756 618.075 7.61477 617.961C7.04199 617.847 6.51585 617.565 6.10289 617.152C5.68994 616.738 5.40871 616.211 5.29478 615.638C5.18084 615.064 5.23932 614.47 5.46281 613.929C5.6863 613.389 6.06476 612.927 6.55035 612.602C7.03594 612.277 7.60683 612.104 8.19084 612.104C8.97397 612.104 9.72502 612.416 10.2788 612.97C10.8325 613.525 11.1436 614.277 11.1436 615.061V615.061Z" fill="#BFB2AC"/>
<path d="M61.2493 559.033H18.6527C16.5635 559.033 14.8699 560.729 14.8699 562.821V562.92C14.8699 565.012 16.5635 566.708 18.6527 566.708H61.2493C63.3385 566.708 65.0321 565.012 65.0321 562.92V562.821C65.0321 560.729 63.3385 559.033 61.2493 559.033Z" fill="#E2D2CA"/>
<path d="M154.125 526.781H151.264V615.043H154.125V526.781Z" fill="#706865"/>
<path d="M128.397 455.76H61.7404C59.6551 455.76 57.9646 457.453 57.9646 459.541V504.403C57.9646 506.491 59.6551 508.184 61.7404 508.184H128.397C130.483 508.184 132.173 506.491 132.173 504.403V459.541C132.173 457.453 130.483 455.76 128.397 455.76Z" fill="url(#paint2_linear_18_27)"/>
<path d="M129.27 458.594H60.8713V499.968H129.27V458.594Z" fill="#F5F7FF"/>
<path d="M129.27 458.594H60.8713V461.886H129.27V458.594Z" fill="#CECFD6"/>
<path d="M76.5855 464.362H64.0644C63.368 464.362 62.8035 464.927 62.8035 465.625V466.162C62.8035 466.86 63.368 467.425 64.0644 467.425H76.5855C77.2819 467.425 77.8465 466.86 77.8465 466.162V465.625C77.8465 464.927 77.2819 464.362 76.5855 464.362Z" fill="#CECFD6"/>
<path d="M75.2398 469.476H65.4101C63.9705 469.476 62.8035 470.645 62.8035 472.087V495.653C62.8035 497.094 63.9705 498.263 65.4101 498.263H75.2398C76.6795 498.263 77.8465 497.094 77.8465 495.653V472.087C77.8465 470.645 76.6795 469.476 75.2398 469.476Z" fill="#CECFD6"/>
<path d="M110.433 521.829V520.895C110.433 520.895 109.123 515.095 99.8582 515.095C90.5936 515.095 90.7808 521.815 90.7808 521.815L110.433 521.829Z" fill="#2E436E"/>
<path d="M90.668 515.954C90.668 515.954 92.6812 515.799 93.4194 515.353C94.1576 514.907 98.5692 511.936 99.604 512.414C100.639 512.891 107.537 515.003 107.297 516.014C107.057 517.026 106.421 516.927 105.933 516.747C105.446 516.566 100.438 515.516 99.9961 515.686C99.9961 515.686 104.916 517.482 104.941 518.794C104.966 520.107 103.913 520.425 103.447 520.917C102.981 521.408 102.419 522.643 101.155 522.738C99.8902 522.834 93.702 520.676 92.4269 520.581C91.1518 520.485 88.7995 520.658 88.637 520.45C88.4745 520.241 90.668 515.954 90.668 515.954Z" fill="#EEA886"/>
<path d="M54.0404 482.184C47.6227 481.053 40.8694 479.433 40.8694 479.433L28.9169 478.945C28.9169 478.945 17.9499 481.364 13.6302 483.316C13.2205 483.5 13.2205 493.113 12.0938 495.635L15.6753 503.2C15.6753 503.2 17.745 518.186 18.1759 524.853C18.3702 527.912 17.6179 554.425 17.6179 554.425C17.6179 554.425 18.6775 554.955 26.8471 555.84C35.0168 556.724 55.3826 555.514 55.5098 554.549C55.6369 553.583 51.568 518.646 51.3737 516.835C51.0947 514.055 52.1755 501.216 52.1755 501.216C53.7119 503.285 57.629 512.619 61.7121 517.061C64.1139 519.675 76.0098 521.277 78.2491 521.352C83.1304 521.514 92.0241 522.487 92.2926 522.009C92.501 521.727 93.0696 514.097 92.5116 513.91C92.0242 513.747 75.4906 512.796 71.2557 510.546C69.7051 509.722 65.0746 499.607 65.0746 499.607C65.0746 499.607 57.5725 483.776 54.0404 482.184Z" fill="#FFC955"/>
<path d="M30.4781 505.68H10.4161C6.40348 505.68 3.15063 508.937 3.15063 512.955V546.382C3.15063 550.4 6.40348 553.657 10.4161 553.657H30.4781C34.4907 553.657 37.7436 550.4 37.7436 546.382V512.955C37.7436 508.937 34.4907 505.68 30.4781 505.68Z" fill="#E2D2CA"/>
<path d="M31.6119 564.798C26.5152 564.798 22.3791 563.083 19.3168 559.698C12.4011 552.055 13.6443 538.615 13.7009 538.046C13.751 537.537 14.0009 537.069 14.3957 536.744C14.7905 536.42 15.2978 536.266 15.806 536.316C16.3142 536.366 16.7816 536.617 17.1055 537.012C17.4294 537.407 17.5833 537.915 17.5331 538.424C17.5331 538.58 16.417 550.761 22.1778 557.12C24.5089 559.691 27.596 560.943 31.6119 560.943C32.1224 560.943 32.6121 561.146 32.9731 561.508C33.3341 561.869 33.5369 562.36 33.5369 562.871C33.5369 563.382 33.3341 563.872 32.9731 564.234C32.6121 564.595 32.1224 564.798 31.6119 564.798V564.798Z" fill="#E2D2CA"/>
<path d="M80.884 479.281C80.8834 481.32 81.3215 483.335 82.1688 485.189C83.016 487.043 84.2523 488.693 85.7936 490.026C85.9561 490.167 86.1221 490.305 86.2916 490.439C86.4823 490.588 86.6766 490.736 86.8744 490.878C88.7858 492.233 91.003 493.092 93.3275 493.379C93.7478 493.428 94.1716 493.463 94.6025 493.478H95.0688C95.5279 493.478 95.9836 493.456 96.4286 493.414C96.9243 493.365 97.417 493.291 97.905 493.191C100.015 492.763 101.999 491.857 103.705 490.542C104.209 490.153 104.687 489.732 105.135 489.279L105.393 489.014C105.711 488.66 106.011 488.307 106.294 487.953C107.673 486.165 108.607 484.073 109.017 481.851C109.427 479.629 109.302 477.34 108.652 475.177C108.002 473.013 106.846 471.035 105.279 469.409C103.712 467.782 101.781 466.553 99.645 465.824C97.509 465.095 95.2301 464.887 92.9976 465.217C90.7651 465.547 88.6435 466.406 86.8089 467.721C84.9743 469.037 83.4797 470.772 82.4492 472.783C81.4188 474.793 80.8822 477.021 80.884 479.281V479.281Z" fill="#EEF0F7"/>
<path d="M85.8289 487.118L86.8885 490.878C88.7998 492.233 91.0171 493.092 93.3415 493.379C93.7618 493.428 94.1857 493.463 94.6166 493.478H95.0828C95.542 493.478 95.9976 493.456 96.4427 493.414C96.9383 493.365 97.4311 493.291 97.9191 493.191C100.029 492.763 102.013 491.857 103.719 490.542C103.917 489.301 104.132 487.925 104.323 486.651C103.281 486.262 99.9606 485.134 97.8696 484.423L97.7813 484.395L97.6436 484.349L97.2904 484.229L96.9654 484.119L96.1248 483.836H96.0824H96.0612L93.2356 484.048L92.7623 484.084H92.6175H92.5539C92.3844 484.13 91.8899 484.257 91.2364 484.459C89.5552 484.971 86.8496 485.944 85.8289 487.118Z" fill="#D9C7C1"/>
<path d="M94.3307 472.228C94.3307 472.228 90.954 472.797 91.5262 478.092C92.0984 483.387 95.0795 482.92 95.2808 482.913C95.4821 482.906 98.2795 482.977 98.4243 476.501C98.4243 476.501 98.4703 471.715 94.3307 472.228Z" fill="#EEA987"/>
<path d="M92.8507 481.367C92.8507 481.367 92.9673 483.546 92.7624 484.02C92.5576 484.494 95.475 485.994 97.287 484.285C97.287 484.285 96.9338 481.905 97.0327 481.063C97.1316 480.221 92.8507 481.367 92.8507 481.367Z" fill="#EEA987"/>
<path d="M91.4591 476.596C91.4591 476.596 91.0847 476.204 90.9505 476.596C90.8163 476.989 91.5509 478.782 91.505 478.863C91.505 478.863 91.5757 479.019 91.6604 478.93C91.7452 478.842 91.4591 476.596 91.4591 476.596Z" fill="#EEA987"/>
<path d="M98.3855 476.451C98.3855 476.451 98.7387 476.044 98.8941 476.451C99.0495 476.858 98.502 478.63 98.4349 478.743C98.4349 478.743 98.3184 478.923 98.2265 478.842C98.1347 478.761 98.3855 476.451 98.3855 476.451Z" fill="#EEA987"/>
<path d="M91.2401 476.147C91.3567 476.854 91.4697 477.41 91.4697 477.41L91.9607 478.05C91.9399 477.501 91.9552 476.952 92.0066 476.405C92.0348 476.32 92.0666 476.172 92.102 476.009C92.1413 475.783 92.1932 475.56 92.2574 475.34C92.3174 475.178 95.1501 474.35 97.672 475.514C97.672 475.514 97.6508 475.73 97.6508 475.974C97.6508 476.218 97.6826 476.575 97.8133 476.624C98.057 476.713 97.9546 478.287 97.9546 478.287L98.3466 477.834C98.3466 477.834 98.4632 477.01 98.5727 476.066C98.6009 475.846 98.6256 475.62 98.6504 475.394C98.7069 474.442 98.6115 472.716 97.3753 471.701C96.5417 471.347 95.2102 471.04 92.9885 471.701C92.7606 471.71 92.5374 471.769 92.3351 471.874C90.954 473.409 91.2401 476.147 91.2401 476.147Z" fill="#E8734D"/>
<path d="M96.8029 482.206C96.5795 482.454 96.3014 482.648 95.9907 482.77C95.6799 482.893 95.345 482.942 95.0122 482.913C94.6822 482.927 94.3528 482.874 94.0438 482.758C93.7348 482.641 93.4527 482.463 93.2144 482.234C93.2144 482.234 93.8077 483.475 95.0157 483.461C96.2237 483.447 96.8029 482.206 96.8029 482.206Z" fill="#C78D71"/>
<path d="M97.6296 484.342C97.6296 484.342 96.7254 485.919 95.0088 486.068C93.9174 486.163 92.9744 484.78 92.5364 484.101C93.3587 483.801 94.2327 483.667 95.1072 483.708C95.9816 483.75 96.8391 483.965 97.6296 484.342V484.342Z" fill="#EEA987"/>
<path d="M92.8471 483.603C93.4671 484.335 94.1962 484.967 95.0087 485.477L94.0939 486.892L92.5327 484.105L92.8471 483.603Z" fill="#EDDAD3"/>
<path d="M97.2163 483.815C96.6129 484.526 95.8588 485.094 95.0088 485.477L96.0119 486.931L97.7779 484.388L97.2163 483.815Z" fill="#EDDAD3"/>
<path d="M95.0124 485.477L94.2283 486.673C94.4741 486.803 94.749 486.868 95.0271 486.863C95.3052 486.857 95.5772 486.781 95.8177 486.641L95.0124 485.477Z" fill="#5073AB"/>
<path d="M84.9248 486.895L84.946 486.973C85.0308 487.281 85.3628 488.459 85.7937 490.026C85.9562 490.167 86.1222 490.305 86.2917 490.439C86.4824 490.588 86.6767 490.736 86.8745 490.878C88.7858 492.233 91.0031 493.092 93.3276 493.379C93.1156 488.462 92.5329 484.101 92.5329 484.101C92.0737 484.222 91.6392 484.342 91.226 484.455C87.6268 485.488 85.8008 486.397 85.1791 486.74C84.999 486.846 84.9248 486.895 84.9248 486.895Z" fill="#323657"/>
<path d="M97.9051 493.198C100.015 492.77 101.999 491.864 103.705 490.549C104.209 490.161 104.687 489.739 105.135 489.286L105.393 489.021C105.64 487.96 105.806 487.274 105.817 487.231C105.817 487.231 104.051 486.075 97.8556 484.402C97.8556 484.551 97.838 488.547 97.9051 493.198Z" fill="#323657"/>
<path d="M94.5601 486.804C94.6166 488.098 94.6237 490.609 94.6025 493.478H95.0688C95.5279 493.478 95.9836 493.456 96.4286 493.414C96.2863 491.186 95.971 488.972 95.4855 486.793C95.4184 486.506 95.376 486.361 95.376 486.361L94.5425 486.499C94.5495 486.598 94.5531 486.694 94.5601 486.804Z" fill="#5073AB"/>
<path d="M84.2078 488.416C84.6929 488.994 85.2232 489.532 85.7937 490.026C85.9561 490.167 86.1221 490.305 86.2917 490.439L85.1755 486.747C85.0926 486.808 85.0199 486.882 84.9601 486.966C84.6538 487.419 84.4013 487.905 84.2078 488.416V488.416Z" fill="#323657"/>
<path d="M105.135 489.286L105.393 489.021C105.711 488.667 106.011 488.314 106.294 487.96C106.206 487.675 106.041 487.421 105.817 487.224V487.224L105.135 489.286Z" fill="#323657"/>
<path d="M492.435 316.086L492.382 315.4C492.224 313.985 492.697 312.422 494.014 310.837C495.201 309.423 495.858 308.411 495.858 307.223C495.858 305.879 495.017 304.98 493.357 304.956C492.408 304.951 491.481 305.236 490.698 305.773L490.065 304.11C490.934 303.477 492.435 303.049 493.831 303.049C496.861 303.049 498.232 304.92 498.232 306.94C498.232 308.733 497.228 310.027 495.964 311.538C494.805 312.91 494.385 314.07 494.463 315.428L494.491 316.114L492.435 316.086ZM491.856 319.779C491.842 319.564 491.872 319.348 491.946 319.146C492.019 318.943 492.133 318.758 492.282 318.602C492.43 318.446 492.609 318.323 492.808 318.24C493.006 318.157 493.22 318.116 493.435 318.12C493.764 318.106 494.089 318.19 494.369 318.363C494.649 318.535 494.872 318.787 495.008 319.087C495.144 319.387 495.187 319.721 495.132 320.046C495.077 320.37 494.927 320.671 494.7 320.91C494.473 321.148 494.18 321.313 493.859 321.383C493.537 321.454 493.202 321.427 492.897 321.305C492.591 321.183 492.329 320.973 492.143 320.701C491.958 320.429 491.858 320.108 491.856 319.779V319.779Z" fill="white"/>
</g>
<defs>
<linearGradient id="paint0_linear_18_27" x1="-41.5122" y1="563.829" x2="529.766" y2="563.829" gradientUnits="userSpaceOnUse">
<stop stop-color="#9A5CFF"/>
<stop offset="0.99" stop-color="#4059BF"/>
</linearGradient>
<linearGradient id="paint1_linear_18_27" x1="56.1809" y1="520.757" x2="88.8312" y2="520.757" gradientUnits="userSpaceOnUse">
<stop stop-color="#FF9F55"/>
<stop offset="1" stop-color="#FFD255"/>
</linearGradient>
<linearGradient id="paint2_linear_18_27" x1="57.9646" y1="481.969" x2="132.173" y2="481.969" gradientUnits="userSpaceOnUse">
<stop stop-color="#FF9F55"/>
<stop offset="1" stop-color="#FFD255"/>
</linearGradient>
<clipPath id="clip0_18_27">
<rect width="643" height="618" fill="white"/>
</clipPath>
</defs>
</svg>
