<svg width="32" height="32" viewBox="0 0 32 32" fill="none" xmlns="http://www.w3.org/2000/svg">
<path d="M7.43327 2.76535C7.77973 2.93187 8.00008 3.28224 8.00008 3.66666C8.00008 4.77311 8.41623 5.41015 8.93759 6.18595L8.97549 6.24231C9.41888 6.90103 10.0001 7.76451 10.0001 8.99999C10.0001 10.2607 9.36384 11.3728 8.39495 12.0327C8.64985 12.2464 8.87571 12.5099 9.06975 12.824C9.70409 13.8506 10.0001 15.4193 10.0001 17.6732C10.0001 19.956 9.69345 22.6973 9.19396 24.8858C8.9456 25.9741 8.63799 26.978 8.27037 27.7325C8.08805 28.1066 7.86605 28.4721 7.58964 28.758C7.31627 29.0405 6.89388 29.3398 6.33341 29.3398C5.77295 29.3398 5.35056 29.0405 5.07719 28.758C4.80077 28.4721 4.57877 28.1066 4.39645 27.7325C4.02884 26.978 3.72123 25.9741 3.47287 24.8858C2.97337 22.6973 2.66675 19.956 2.66675 17.6732C2.66675 15.4193 2.96273 13.8506 3.59708 12.824C3.79112 12.5099 4.01697 12.2464 4.27188 12.0327C3.30299 11.3728 2.66675 10.2607 2.66675 8.99999C2.66675 8.50906 2.6672 7.66516 3.17796 6.57555C3.6778 5.5092 4.62763 4.28399 6.37539 2.88579C6.67556 2.64564 7.0868 2.59883 7.43327 2.76535ZM4.66675 8.99831V8.99999C4.66675 9.92046 5.41293 10.6667 6.33341 10.6667C7.25389 10.6667 8.00008 9.92046 8.00008 8.99999C8.00008 8.4146 7.75365 8.00988 7.2776 7.30151L7.26131 7.27726C6.95615 6.82327 6.59572 6.28707 6.33849 5.59672C5.61412 6.3333 5.21408 6.94397 4.98887 7.42442C4.66675 8.11163 4.66675 8.60064 4.66675 8.99831ZM5.29852 13.8753C4.96771 14.4106 4.66675 15.5086 4.66675 17.6732C4.66675 19.8086 4.95707 22.4006 5.42272 24.4408C5.65693 25.467 5.92393 26.3013 6.1944 26.8565C6.24419 26.9586 6.29083 27.0445 6.33341 27.1158C6.376 27.0445 6.42264 26.9586 6.47243 26.8565C6.74289 26.3013 7.00989 25.467 7.24411 24.4408C7.70976 22.4006 8.00008 19.8086 8.00008 17.6732C8.00008 15.5086 7.69912 14.4106 7.36831 13.8753C7.21777 13.6316 7.06833 13.5162 6.93481 13.4514C6.79104 13.3817 6.60099 13.3398 6.33341 13.3398C6.06584 13.3398 5.87579 13.3817 5.73201 13.4514C5.59849 13.5162 5.44905 13.6316 5.29852 13.8753Z" fill="black"/>
<path d="M13.3333 19.8893C12.6155 19.7689 11.9301 19.5529 11.2907 19.2549C11.3187 18.7132 11.3333 18.1827 11.3333 17.6732C11.3333 17.4388 11.3302 17.2088 11.324 16.9835C11.9255 17.3876 12.6041 17.6859 13.3333 17.8513V14C13.3333 12.8954 14.2287 12 15.3332 12H20.6665C20.6665 8.68629 17.9803 6 14.6665 6C13.2954 6 12.0316 6.45997 11.0211 7.23403C10.7551 6.49747 10.3749 5.93327 10.1103 5.54072L10.0566 5.46096C11.3597 4.54065 12.95 4 14.6665 4C19.0848 4 22.6665 7.58172 22.6665 12H27.3332C28.4379 12 29.3332 12.8954 29.3332 14V26C29.3332 27.1045 28.4379 28 27.3332 28H15.3332C14.2287 28 13.3333 27.1045 13.3333 26V19.8893ZM15.3332 19.9727V26H27.3332V14H22.4145C21.58 17.2427 18.7635 19.6896 15.3332 19.9727ZM20.3252 14H15.3332V17.9633C17.652 17.7071 19.5725 16.1293 20.3252 14Z" fill="black"/>
</svg>
