<svg width="32" height="32" viewBox="0 0 32 32" fill="none" xmlns="http://www.w3.org/2000/svg">
<path d="M29 4H3C1.343 4 0 5.343 0 7V23C0 24.657 1.343 26 3 26H12V29H10.5C10.224 29 10 29.224 10 29.5C10 29.776 10.224 30 10.5 30H21.5C21.776 30 22 29.776 22 29.5C22 29.224 21.776 29 21.5 29H20V26H29C30.657 26 32 24.657 32 23V7C32 5.343 30.657 4 29 4ZM19 29H13V26H19V29ZM31 23C31 24.105 30.105 25 29 25H3C1.895 25 1 24.105 1 23V7C1 5.895 1.895 5 3 5H29C30.105 5 31 5.895 31 7V23ZM25.805 9.03C25.023 8.876 24.33 9.33 24.092 10H18V9H14V10H7.908C7.67 9.33 6.976 8.876 6.195 9.03C5.622 9.143 5.155 9.602 5.035 10.174C4.83 11.145 5.565 12 6.5 12C7.152 12 7.702 11.581 7.908 11H14V11.224C9.612 12.121 6.255 15.882 6.014 20.47C5.999 20.757 6.227 21 6.515 21C6.778 21 6.999 20.796 7.012 20.533C7.221 16.468 10.146 13.123 14 12.244V13H18V12.243C21.854 13.123 24.779 16.468 24.988 20.532C25.002 20.796 25.222 21 25.485 21C25.773 21 26.001 20.757 25.986 20.47C25.745 15.882 22.388 12.121 18 11.224V11H24.092C24.299 11.581 24.848 12 25.5 12C26.435 12 27.17 11.145 26.966 10.174C26.845 9.602 26.378 9.143 25.805 9.03ZM6.5 11C6.224 11 6 10.776 6 10.5C6 10.224 6.224 10 6.5 10C6.776 10 7 10.224 7 10.5C7 10.776 6.776 11 6.5 11ZM17 12H15V10H17V12ZM25.5 11C25.224 11 25 10.776 25 10.5C25 10.224 25.224 10 25.5 10C25.776 10 26 10.224 26 10.5C26 10.776 25.776 11 25.5 11Z" fill="#0B1719"/>
</svg>
