<svg width="32" height="32" viewBox="0 0 32 32" fill="none" xmlns="http://www.w3.org/2000/svg">
<g clip-path="url(#clip0_18_489)">
<path d="M15.288 8.59344C13.6534 8.59344 12.3235 9.92333 12.3235 11.5579C12.3235 13.1925 13.6534 14.5224 15.288 14.5224C16.9226 14.5224 18.2525 13.1925 18.2525 11.5579C18.2524 9.9232 16.9226 8.59344 15.288 8.59344ZM15.288 13.4299C14.2558 13.4299 13.4159 12.5901 13.4159 11.5578C13.4159 10.5256 14.2558 9.68583 15.288 9.68583C16.3202 9.68583 17.16 10.5256 17.16 11.5578C17.16 12.5901 16.3201 13.4299 15.288 13.4299Z" fill="black"/>
<path d="M28.2547 7.69025C27.1834 7.69025 26.3118 8.56188 26.3118 9.6332C26.3118 10.7045 27.1834 11.5762 28.2547 11.5762C29.326 11.5762 30.1977 10.7045 30.1977 9.6332C30.1976 8.56188 29.326 7.69025 28.2547 7.69025ZM28.2547 10.4837C27.7858 10.4837 27.4042 10.1021 27.4042 9.6332C27.4042 9.16426 27.7857 8.78269 28.2547 8.78269C28.7237 8.78269 29.1052 9.16426 29.1052 9.6332C29.1052 10.1022 28.7237 10.4837 28.2547 10.4837Z" fill="black"/>
<path d="M29.7999 2.46246L21.8567 2.46214C20.6435 2.46214 19.6565 3.44946 19.6565 4.66304V7.17068H16.3812C16.3804 7.17068 16.3798 7.17062 16.3791 7.17062H4.45266C4.45128 7.17062 4.44991 7.17068 4.44841 7.17068H2.33439C1.0472 7.17068 0 8.21794 0 9.50507V23.5311C0 24.8183 1.0472 25.8654 2.33439 25.8654H10.698L9.96058 28.861C9.95995 28.8635 9.9597 28.8662 9.95914 28.8687C9.95614 28.8818 9.95377 28.8952 9.9517 28.9087C9.9507 28.9152 9.94952 28.9216 9.9487 28.9282C9.9472 28.9411 9.94652 28.9543 9.94595 28.9677C9.94564 28.9743 9.94502 28.9812 9.94495 28.9879C9.94495 28.9892 9.94477 28.9905 9.94477 28.9917C9.94477 29.008 9.94577 29.0242 9.94714 29.0401C9.94733 29.0422 9.9472 29.0442 9.94745 29.0463C9.94939 29.0663 9.95264 29.086 9.9567 29.1054C9.9572 29.1079 9.95802 29.1103 9.95858 29.1128C9.96239 29.1295 9.96683 29.146 9.97208 29.162C9.97358 29.1666 9.97545 29.1712 9.97708 29.1757C9.98202 29.1895 9.98733 29.203 9.99333 29.2163C9.99583 29.2217 9.99852 29.2272 10.0012 29.2325C10.0072 29.2446 10.0135 29.2565 10.0203 29.268C10.0236 29.2737 10.027 29.2794 10.0305 29.2849C10.0376 29.2961 10.0453 29.3069 10.0533 29.3175C10.056 29.3212 10.0582 29.3251 10.0611 29.3287C10.0623 29.3302 10.0638 29.3317 10.065 29.3332C10.0746 29.3452 10.0848 29.3565 10.0954 29.3677C10.0982 29.3707 10.1008 29.3739 10.1037 29.3768C10.1173 29.3904 10.1315 29.4032 10.1464 29.4153C10.1503 29.4185 10.1545 29.4213 10.1585 29.4244C10.1698 29.4332 10.1814 29.4416 10.1934 29.4495C10.1986 29.4529 10.204 29.4559 10.2093 29.4591C10.2207 29.466 10.2323 29.4727 10.2444 29.4787C10.25 29.4815 10.2555 29.4841 10.2611 29.4867C10.2735 29.4925 10.2859 29.4977 10.2987 29.5025C10.3043 29.5046 10.3099 29.5067 10.3155 29.5087C10.3288 29.5132 10.3423 29.517 10.3559 29.5205C10.3615 29.5219 10.3668 29.5235 10.3723 29.5247C10.3868 29.5279 10.4014 29.5304 10.4163 29.5323C10.4212 29.5329 10.4261 29.534 10.4311 29.5345C10.4508 29.5367 10.4708 29.538 10.491 29.538H17.0759H21.3992C21.7009 29.538 21.9454 29.2934 21.9454 28.9917C21.9454 28.6901 21.7009 28.4455 21.3992 28.4455H17.7728L18.4079 25.8656L27.961 25.8653C29.1127 25.8653 30.0498 24.9287 30.0498 23.7773V19.0523C31.1457 18.9276 32.0001 17.9952 32.0001 16.8665V4.66285C32.0003 3.44946 31.0131 2.46246 29.7999 2.46246ZM22.4966 4.66285C22.4966 4.05197 22.9936 3.55497 23.6045 3.55497H29.7999C30.4108 3.5549 30.9078 4.05191 30.9078 4.66285V5.30679H22.4966V4.66285ZM22.4965 6.39911H30.9077V15.0612H30.6466L27.8978 12.0365C27.7943 11.9226 27.6475 11.8576 27.4936 11.8576C27.3397 11.8576 27.1929 11.9225 27.0893 12.0365L26.309 12.8951L24.3711 10.7634C24.2676 10.6496 24.1208 10.5846 23.9669 10.5846C23.8131 10.5846 23.6662 10.6495 23.5627 10.7635L22.4966 11.9365V6.39911H22.4965ZM29.1704 15.0612H28.2782L27.0472 13.7072L27.4936 13.216L29.1704 15.0612ZM22.4966 13.517L22.5183 13.5367L23.967 11.9429L26.8019 15.0612H22.4966V13.517ZM20.7489 4.6631C20.7489 4.10616 21.162 3.64509 21.6974 3.56747C21.5112 3.89034 21.404 4.26416 21.404 4.66291V16.8664C21.404 17.2648 21.511 17.6386 21.697 17.9613C21.1618 17.8835 20.7489 17.4228 20.7489 16.8664V4.6631H20.7489ZM3.45634 19.4647L7.8505 14.9484L13.6922 21.3737H3.45634V19.4647ZM12.6578 18.6111L13.9702 17.1669L17.793 21.3735H15.1685V21.3736L12.6578 18.6111ZM2.61721 24.7729H2.33439C1.64958 24.773 1.09245 24.2159 1.09245 23.5311V9.50507C1.09245 8.82026 1.64958 8.26313 2.33439 8.26313H2.61721C2.45577 8.55938 2.36389 8.89888 2.36389 9.25926V23.7771C2.36389 24.1374 2.45571 24.4768 2.61721 24.7729ZM16.6479 28.4453H11.188L11.823 25.8654H17.2829L16.6479 28.4453ZM28.9575 23.7772C28.9575 24.3261 28.5106 24.7728 27.9612 24.7728H4.45266C3.90328 24.7728 3.45634 24.3262 3.45634 23.7772V22.4661H28.9575V23.7772ZM28.9575 21.3737H19.2691L14.3746 15.9875C14.271 15.8736 14.1242 15.8086 13.9703 15.8086C13.8164 15.8086 13.6696 15.8736 13.5661 15.9875L11.9196 17.7992L8.26813 13.7839C8.16675 13.6724 8.02388 13.6077 7.87325 13.6052C7.72112 13.6047 7.57756 13.6625 7.47256 13.7705L3.4564 17.8982V9.25932C3.4564 8.71069 3.90222 8.26432 4.4506 8.26319H19.6565V16.8664C19.6565 18.0795 20.6435 19.0665 21.8567 19.0665L28.9576 19.0667V21.3737H28.9575ZM30.9078 16.8663C30.9078 17.4773 30.4108 17.9743 29.7999 17.9743L23.6002 17.9741C22.9912 17.9718 22.4965 17.4758 22.4965 16.8663V16.1537H30.9077V16.8663H30.9078Z" fill="black"/>
</g>
<defs>
<clipPath id="clip0_18_489">
<rect width="32" height="32" fill="white"/>
</clipPath>
</defs>
</svg>
