<svg width="32" height="32" viewBox="0 0 32 32" fill="none" xmlns="http://www.w3.org/2000/svg">
<path d="M27.5 3.5H4.5C3.94687 3.5 3.5 3.94687 3.5 4.5V27.5C3.5 28.0531 3.94687 28.5 4.5 28.5H15.75C15.8875 28.5 16 28.3875 16 28.25V26.5C16 26.3625 15.8875 26.25 15.75 26.25H5.75V5.75H26.25V15.75C26.25 15.8875 26.3625 16 26.5 16H28.25C28.3875 16 28.5 15.8875 28.5 15.75V4.5C28.5 3.94687 28.0531 3.5 27.5 3.5ZM20.4156 18.7313L22.0469 17.1C22.0799 17.0668 22.103 17.025 22.1134 16.9793C22.1239 16.9336 22.1213 16.886 22.106 16.8417C22.0907 16.7974 22.0633 16.7583 22.0269 16.7288C21.9905 16.6994 21.9465 16.6807 21.9 16.675L16.2938 16.0187C16.1344 16 15.9969 16.1344 16.0156 16.2969L16.6719 21.9031C16.6969 22.1094 16.95 22.1969 17.0969 22.05L18.7344 20.4125L26.7406 28.4188C26.8375 28.5156 26.9969 28.5156 27.0938 28.4188L28.4188 27.0938C28.5156 26.9969 28.5156 26.8375 28.4188 26.7406L20.4156 18.7313Z" fill="black"/>
</svg>
