<svg width="61" height="60" viewBox="0 0 61 60" fill="none" xmlns="http://www.w3.org/2000/svg">
<path d="M53.9077 38.8936C54.7519 36.697 55.2839 34.3932 55.4881 32.0496L60.1042 30.2782L59.2181 24.9776L58.3346 19.6794L53.3935 19.5188C52.439 17.3708 51.1891 15.367 49.6799 13.5654L51.7021 9.05303L47.3424 5.94811L42.9698 2.831L39.349 6.22034C37.1536 5.37907 34.8507 4.85019 32.5076 4.64915L30.7426 0.035203L25.4628 0.895477L20.1642 1.80622L19.9995 6.75029C17.8489 7.70576 15.8426 8.95779 14.0389 10.4699L9.52952 8.45362L6.39643 12.8209L3.28578 17.1852L6.66998 20.8017C5.82579 22.9983 5.29381 25.3021 5.08959 27.6457L0.473545 29.4171L1.35703 34.7153L2.24052 40.0135L7.1816 40.174C8.13201 42.3166 9.37589 44.3162 10.8775 46.1154L8.85527 50.6277L13.2278 53.7449L17.5875 56.8498L21.2084 53.4604C23.4037 54.3017 25.7066 54.8306 28.0498 55.0316L29.8148 59.6456L35.1139 58.7548L40.4155 57.8665L40.5802 52.9225C42.7292 51.9645 44.7345 50.7118 46.5382 49.2004L51.0476 51.2167L54.1705 46.8396L57.2933 42.4626L53.9077 38.8936ZM19.3253 45.1769C16.2951 43.0168 13.9746 40.0056 12.6574 36.5242C11.3401 33.0429 11.0853 29.2477 11.925 25.6185C12.7648 21.9893 14.6614 18.6893 17.3751 16.1356C20.0888 13.5818 23.4977 11.8892 27.1707 11.2717C30.8437 10.6542 34.6158 11.1395 38.01 12.6663C41.4043 14.1932 44.2682 16.6929 46.2397 19.8494C48.2112 23.0059 49.2016 26.6775 49.0858 30.3998C48.97 34.1221 47.7531 37.7279 45.589 40.7614C44.1521 42.7755 42.333 44.4875 40.2354 45.7994C38.1379 47.1114 35.8031 47.9977 33.3642 48.4077C30.9254 48.8177 28.4304 48.7435 26.0216 48.1891C23.6128 47.6348 21.3374 46.6112 19.3253 45.1769Z" fill="white"/>
</svg>
