<svg width="592" height="431" viewBox="0 0 592 431" fill="none" xmlns="http://www.w3.org/2000/svg">
<g clip-path="url(#clip0_18_702)">
<path d="M575.855 431H21.8554C21.8554 431 89.7535 376.129 58.4697 327.543C27.1858 278.957 -36.7376 204.881 27.7301 115.73C92.1979 26.5781 191.031 -7.90768 347.799 1.49939C504.567 10.9065 547.467 90.0553 550.374 151.437C554.482 238.011 462.284 240.784 519.367 299.188C590.747 372.216 575.855 431 575.855 431Z" fill="#EAF4F2"/>
<path d="M235.42 286.669C238.097 286.669 240.267 284.499 240.267 281.822C240.267 279.145 238.097 276.975 235.42 276.975C232.742 276.975 230.572 279.145 230.572 281.822C230.572 284.499 232.742 286.669 235.42 286.669Z" fill="#CED8D6"/>
<path d="M555.221 180.223C557.899 180.223 560.069 178.053 560.069 175.376C560.069 172.699 557.899 170.529 555.221 170.529C552.544 170.529 550.374 172.699 550.374 175.376C550.374 178.053 552.544 180.223 555.221 180.223Z" fill="#CED8D6"/>
<path d="M530.819 75.955H407.655V178.909H530.819V75.955Z" fill="white"/>
<path d="M442.02 84.181H417.135V115.73H442.02V84.181Z" fill="#FDD449"/>
<path d="M429.583 92.1195C431.154 92.1195 432.428 90.8459 432.428 89.2748C432.428 87.7037 431.154 86.4301 429.583 86.4301C428.011 86.4301 426.738 87.7037 426.738 89.2748C426.738 90.8459 428.011 92.1195 429.583 92.1195Z" fill="#19888E"/>
<path d="M521.514 124.87H502.452V149.034H521.514V124.87Z" fill="#FC694C"/>
<path d="M514.16 128.772C514.16 129.203 514.032 129.624 513.793 129.982C513.554 130.34 513.214 130.619 512.816 130.784C512.418 130.948 511.98 130.992 511.558 130.908C511.136 130.823 510.748 130.616 510.443 130.312C510.139 130.007 509.931 129.619 509.847 129.197C509.763 128.775 509.806 128.337 509.971 127.939C510.136 127.541 510.415 127.201 510.773 126.962C511.131 126.723 511.552 126.595 511.983 126.595C512.269 126.595 512.552 126.651 512.816 126.761C513.08 126.87 513.32 127.03 513.522 127.233C513.725 127.435 513.885 127.675 513.994 127.939C514.104 128.203 514.16 128.486 514.16 128.772Z" fill="#FDD449"/>
<path d="M453.287 133.856H428.474V165.302H453.287V133.856Z" fill="#FC694C"/>
<path d="M440.88 141.763C442.446 141.763 443.715 140.494 443.715 138.929C443.715 137.364 442.446 136.094 440.88 136.094C439.315 136.094 438.046 137.364 438.046 138.929C438.046 140.494 439.315 141.763 440.88 141.763Z" fill="#FDD449"/>
<g style="mix-blend-mode:multiply" opacity="0.3">
<path d="M383.828 56.7505H148.686V209.318H383.828V56.7505Z" fill="#CED8D6"/>
</g>
<path d="M369.562 81.4903H280.466C279.11 81.4903 278.011 82.5892 278.011 83.9448V84.4274C278.011 85.783 279.11 86.8819 280.466 86.8819H369.562C370.918 86.8819 372.017 85.783 372.017 84.4274V83.9448C372.017 82.5892 370.918 81.4903 369.562 81.4903Z" fill="#CED8D6"/>
<path d="M369.562 99.9553H280.466C279.11 99.9553 278.011 101.054 278.011 102.41V102.892C278.011 104.248 279.11 105.347 280.466 105.347H369.562C370.918 105.347 372.017 104.248 372.017 102.892V102.41C372.017 101.054 370.918 99.9553 369.562 99.9553Z" fill="#CED8D6"/>
<path d="M369.562 118.42H280.466C279.11 118.42 278.011 119.519 278.011 120.875V121.357C278.011 122.713 279.11 123.812 280.466 123.812H369.562C370.918 123.812 372.017 122.713 372.017 121.357V120.875C372.017 119.519 370.918 118.42 369.562 118.42Z" fill="#CED8D6"/>
<path d="M369.562 136.896H280.466C279.11 136.896 278.011 137.994 278.011 139.35V139.833C278.011 141.188 279.11 142.287 280.466 142.287H369.562C370.918 142.287 372.017 141.188 372.017 139.833V139.35C372.017 137.994 370.918 136.896 369.562 136.896Z" fill="#CED8D6"/>
<path d="M369.562 155.36H280.466C279.11 155.36 278.011 156.459 278.011 157.815V158.298C278.011 159.653 279.11 160.752 280.466 160.752H369.562C370.918 160.752 372.017 159.653 372.017 158.298V157.815C372.017 156.459 370.918 155.36 369.562 155.36Z" fill="#CED8D6"/>
<path d="M369.562 173.825H280.466C279.11 173.825 278.011 174.924 278.011 176.28V176.763C278.011 178.118 279.11 179.217 280.466 179.217H369.562C370.918 179.217 372.017 178.118 372.017 176.763V176.28C372.017 174.924 370.918 173.825 369.562 173.825Z" fill="#CED8D6"/>
<path d="M260.931 130.785C260.931 140.128 258.161 149.262 252.969 157.031C247.778 164.799 240.4 170.854 231.767 174.43C223.134 178.005 213.635 178.941 204.47 177.118C195.306 175.295 186.888 170.796 180.281 164.189C173.673 157.583 169.174 149.165 167.351 140.001C165.528 130.837 166.464 121.339 170.039 112.707C173.615 104.075 179.671 96.6966 187.44 91.5058C195.209 86.3149 204.343 83.5443 213.687 83.5443C226.217 83.5443 238.234 88.5214 247.094 97.3808C255.954 106.24 260.931 118.256 260.931 130.785Z" fill="#F4F4F4"/>
<path d="M254.399 130.785C254.399 138.841 252.01 146.716 247.534 153.414C243.058 160.113 236.696 165.333 229.252 168.415C221.809 171.498 213.618 172.304 205.716 170.731C197.815 169.159 190.557 165.279 184.861 159.582C179.165 153.885 175.286 146.626 173.716 138.725C172.145 130.823 172.953 122.634 176.038 115.191C179.122 107.749 184.345 101.389 191.044 96.9145C197.744 92.4403 205.62 90.0533 213.677 90.0553C224.478 90.058 234.836 94.3504 242.473 101.988C250.109 109.626 254.399 119.985 254.399 130.785Z" fill="#19888E"/>
<path d="M254.399 130.785H213.677V90.0553C224.478 90.058 234.836 94.3504 242.473 101.988C250.109 109.626 254.399 119.985 254.399 130.785Z" fill="#FC694C"/>
<path d="M204.012 52.1086L217.344 72.0319L233.263 51.4616L204.012 52.1086Z" fill="#FDD449"/>
<path d="M252.448 183.253L230.264 215.911L262.606 220.512L252.448 183.253Z" fill="white"/>
<path d="M228.354 199.448L238.809 185.502H224.964L228.354 199.448Z" fill="#FDD449"/>
<path d="M359.487 205.846L348.528 219.392L362.363 219.906L359.487 205.846Z" fill="#FDD449"/>
<path d="M372.849 46.563L369.521 67.5338L390.288 58.9072L372.849 46.563Z" fill="white"/>
<path d="M329.672 34.989L349.453 63.3643L364.088 29.772L329.672 34.989Z" fill="#CED8D6"/>
<path d="M147.166 65.2128L161.729 71.6724L146.251 82.4762L147.166 65.2128Z" fill="#CED8D6"/>
<path d="M376.998 182.709L391.562 189.158L376.084 199.972L376.998 182.709Z" fill="#CED8D6"/>
<path d="M197.974 271.963H61.3764C58.3859 271.944 55.5233 270.748 53.4087 268.633C51.294 266.519 50.0977 263.657 50.0789 260.666V183.253H52.0816V260.615C52.0843 263.093 53.0699 265.468 54.822 267.22C56.5742 268.972 58.9498 269.958 61.4277 269.96H198.025C200.503 269.958 202.878 268.972 204.631 267.22C206.383 265.468 207.368 263.093 207.371 260.615V215.87H209.374V260.615C209.371 262.109 209.074 263.587 208.5 264.966C207.925 266.345 207.084 267.597 206.026 268.651C204.967 269.705 203.711 270.54 202.329 271.108C200.948 271.677 199.467 271.967 197.974 271.963Z" fill="#CED8D6"/>
<path d="M80.1815 151.386C80.1721 156.48 78.9951 161.504 76.7409 166.072C73.6818 172.242 69.0832 177.52 63.3893 181.394C57.2989 185.389 59.4968 193.574 59.4968 193.574H42.53C42.53 193.574 44.7278 185.358 38.6374 181.394C33.1907 177.686 28.7395 172.696 25.6761 166.863C23.1678 162.088 21.8501 156.779 21.835 151.386C21.835 135.981 32.5265 123.473 51.0031 123.473C69.4797 123.473 80.1815 136.012 80.1815 151.386Z" fill="#FDD449"/>
<path d="M63.0505 193.574H38.9868C37.9998 193.574 37.1997 194.374 37.1997 195.361V199.623C37.1997 200.61 37.9998 201.41 38.9868 201.41H63.0505C64.0374 201.41 64.8375 200.61 64.8375 199.623V195.361C64.8375 194.374 64.0374 193.574 63.0505 193.574Z" fill="#444C72"/>
<path d="M62.2185 201.41V215.788C62.2185 216.79 61.8203 217.751 61.1115 218.46C60.4027 219.169 59.4414 219.567 58.439 219.567H43.6084C42.6051 219.567 41.6427 219.169 40.9322 218.461C40.2218 217.752 39.8213 216.791 39.8186 215.788V201.41H62.2185Z" fill="#19888E"/>
<path d="M53.8995 224.178H48.1377C47.5376 224.178 46.9432 224.06 46.3887 223.83C45.8342 223.6 45.3304 223.264 44.906 222.839C44.4816 222.415 44.145 221.911 43.9153 221.357C43.6856 220.802 43.5674 220.208 43.5674 219.608H58.4698C58.4698 220.82 57.9883 221.982 57.1312 222.839C56.2741 223.696 55.1116 224.178 53.8995 224.178Z" fill="#444C72"/>
<path d="M56.6621 167.458C56.1019 167.454 55.5466 167.561 55.0278 167.772C54.509 167.983 54.0371 168.295 53.6392 168.689C53.2412 169.083 52.925 169.552 52.7088 170.069C52.4926 170.585 52.3806 171.14 52.3793 171.7V175.345H49.6165V171.7C49.6165 170.575 49.1696 169.496 48.3741 168.701C47.5787 167.905 46.4998 167.458 45.3748 167.458C44.2498 167.458 43.1709 167.905 42.3755 168.701C41.58 169.496 41.1331 170.575 41.1331 171.7V173.404C41.1304 173.963 41.2381 174.517 41.4501 175.034C41.662 175.551 41.974 176.021 42.3682 176.417C42.7623 176.813 43.2309 177.127 43.7468 177.342C44.2628 177.556 44.816 177.666 45.3748 177.666H47.3262V193.595H49.6165V177.666H52.3793V193.595H54.6696V177.666H56.621C57.178 177.666 57.7296 177.557 58.2442 177.343C58.7588 177.13 59.2264 176.818 59.6203 176.424C60.0142 176.03 60.3266 175.563 60.5398 175.048C60.753 174.533 60.8627 173.982 60.8627 173.425V171.72C60.8655 170.6 60.4257 169.523 59.6391 168.725C58.8525 167.927 57.7826 167.472 56.6621 167.458ZM47.3262 175.345H45.3748C44.86 175.345 44.3663 175.141 44.0022 174.777C43.6382 174.413 43.4337 173.919 43.4337 173.404V171.7C43.4694 171.208 43.69 170.748 44.0511 170.412C44.4121 170.076 44.8869 169.89 45.3799 169.89C45.873 169.89 46.3478 170.076 46.7088 170.412C47.0699 170.748 47.2905 171.208 47.3262 171.7V175.345ZM58.6237 173.404C58.621 173.92 58.4142 174.414 58.0485 174.778C57.6829 175.141 57.1881 175.345 56.6723 175.345H54.7209V171.7C54.7209 171.182 54.9265 170.686 55.2925 170.32C55.6584 169.954 56.1548 169.748 56.6723 169.748C57.1899 169.748 57.6862 169.954 58.0522 170.32C58.4181 170.686 58.6237 171.182 58.6237 171.7V173.404Z" fill="white"/>
<path d="M208.316 221.919C210.993 221.919 213.164 219.748 213.164 217.071C213.164 214.394 210.993 212.224 208.316 212.224C205.639 212.224 203.468 214.394 203.468 217.071C203.468 219.748 205.639 221.919 208.316 221.919Z" fill="#CED8D6"/>
<path d="M70.4348 302.289L70.3629 301.365C70.2827 300.242 70.4367 299.114 70.815 298.054C71.1934 296.993 71.7878 296.022 72.5608 295.203C74.163 293.324 75.0463 291.938 75.0463 290.346C75.0463 288.538 73.9063 287.326 71.6776 287.265C70.3985 287.256 69.1475 287.64 68.0932 288.364L67.2407 286.125C68.7599 285.173 70.5218 284.681 72.3143 284.708C76.4225 284.708 78.2404 287.224 78.2404 289.925C78.2404 292.338 76.895 294.033 75.1593 296.087C74.4755 296.767 73.94 297.582 73.5865 298.48C73.233 299.378 73.0691 300.339 73.1052 301.304V302.228L70.4348 302.289ZM69.6543 307.26C69.6262 306.968 69.6609 306.674 69.7561 306.396C69.8513 306.119 70.0047 305.865 70.2061 305.652C70.4075 305.439 70.6522 305.272 70.9237 305.161C71.1952 305.051 71.4873 304.999 71.7803 305.011C72.2216 304.993 72.6584 305.106 73.0347 305.338C73.411 305.569 73.7096 305.908 73.8923 306.31C74.0751 306.712 74.1335 307.159 74.0603 307.595C73.9871 308.031 73.7855 308.434 73.4813 308.755C73.1771 309.075 72.7843 309.297 72.353 309.393C71.9218 309.489 71.4718 309.453 71.0607 309.292C70.6496 309.13 70.2961 308.849 70.0456 308.486C69.795 308.122 69.6588 307.691 69.6543 307.25V307.26Z" fill="#CED8D6"/>
<path d="M551.966 134.729L551.863 133.435C551.565 130.734 552.469 127.786 554.944 124.777C557.193 122.128 558.446 120.187 558.446 117.927C558.446 115.38 556.844 113.686 553.691 113.635C551.891 113.624 550.132 114.166 548.648 115.185L547.447 112.032C549.593 110.664 552.091 109.95 554.636 109.979C560.388 109.979 562.986 113.532 562.986 117.332C562.986 120.731 561.086 123.185 558.683 126.03C556.485 128.628 555.684 130.826 555.838 133.383L555.889 134.677L551.966 134.729ZM550.867 141.722C550.84 141.314 550.898 140.905 551.037 140.521C551.176 140.136 551.393 139.785 551.675 139.488C551.957 139.192 552.297 138.958 552.674 138.799C553.051 138.641 553.457 138.563 553.866 138.569C554.475 138.553 555.076 138.719 555.592 139.044C556.107 139.369 556.515 139.84 556.762 140.398C557.01 140.955 557.087 141.573 556.983 142.174C556.88 142.774 556.6 143.331 556.18 143.773C555.759 144.214 555.218 144.522 554.623 144.655C554.028 144.789 553.406 144.743 552.838 144.524C552.269 144.304 551.778 143.921 551.427 143.422C551.076 142.923 550.881 142.332 550.867 141.722Z" fill="#CED8D6"/>
<path d="M403.896 51.2767L403.835 50.4346C403.765 49.4172 403.907 48.3965 404.252 47.4367C404.597 46.477 405.137 45.599 405.837 44.8582C407.286 43.1431 408.097 41.8902 408.097 40.4319C408.097 38.7888 407.07 37.6899 405.016 37.6591C403.851 37.6601 402.715 38.0186 401.76 38.6861L400.99 36.6321C402.368 35.7609 403.971 35.3111 405.601 35.3381C409.309 35.3381 410.983 37.6283 410.983 40.0827C410.983 42.2702 409.761 43.8517 408.21 45.69C407.596 46.3138 407.117 47.0565 406.8 47.8724C406.484 48.6883 406.338 49.5602 406.371 50.4346V51.2767H403.896ZM403.188 55.7852C403.166 55.5195 403.2 55.2523 403.289 55.0008C403.377 54.7494 403.517 54.5193 403.7 54.3256C403.883 54.1319 404.105 53.9789 404.351 53.8765C404.597 53.774 404.862 53.7246 405.129 53.7312C405.593 53.8255 406.011 54.0774 406.31 54.4442C406.61 54.8111 406.774 55.2703 406.774 55.7441C406.774 56.2179 406.61 56.6771 406.31 57.0439C406.011 57.4108 405.593 57.6627 405.129 57.7569C404.87 57.7627 404.612 57.7155 404.372 57.618C404.132 57.5206 403.914 57.375 403.732 57.1903C403.55 57.0056 403.408 56.7857 403.315 56.544C403.221 56.3024 403.178 56.0441 403.188 55.7852Z" fill="#CED8D6"/>
<path d="M234.043 349.869H167.008V289.442H169.381V347.497H234.043V349.869Z" fill="white"/>
<path d="M228.015 307.712L227.285 302.382L221.955 303.111L220.004 305.679L223.763 305.165L210.442 322.695L196.998 310.536L178.254 337.566L180.103 338.85L197.388 313.915L210.75 326.002L225.55 306.531L226.063 310.29L228.015 307.712Z" fill="white"/>
<g style="mix-blend-mode:multiply" opacity="0.3">
<path d="M31.9103 316.975C19.2263 325.129 38.504 361.207 52.4512 358.598C66.3985 355.99 44.4506 308.903 31.9103 316.975Z" fill="#CED8D6"/>
</g>
<g style="mix-blend-mode:multiply" opacity="0.3">
<path d="M547.467 53.762C560.921 37.1867 493.106 -1.7664 480.38 14.3776C472.267 24.6473 536.334 67.4721 547.467 53.762Z" fill="#CED8D6"/>
</g>
<g style="mix-blend-mode:multiply" opacity="0.3">
<path d="M27.2063 311.758C20.5716 314.839 12.7044 301.643 21.1365 297.781C29.5685 293.92 36.0287 307.64 27.2063 311.758Z" fill="#CED8D6"/>
</g>
<g style="mix-blend-mode:multiply" opacity="0.3">
<path d="M560.059 313.073C548.813 318.588 568.799 353.967 581.74 353.885C594.681 353.802 576.8 304.888 560.059 313.073Z" fill="#CED8D6"/>
</g>
<g style="mix-blend-mode:multiply" opacity="0.3">
<path d="M586.166 359.677C578.515 360.272 582.52 372 588.005 372.216C593.489 372.432 593.736 359.081 586.166 359.677Z" fill="#CED8D6"/>
</g>
<path d="M544.869 282.808H234.844V280.805H544.869C547.347 280.802 549.722 279.817 551.475 278.065C553.227 276.313 554.212 273.937 554.215 271.46V176.3H556.269V271.46C556.266 272.954 555.969 274.432 555.395 275.811C554.82 277.19 553.98 278.442 552.921 279.496C551.862 280.55 550.606 281.385 549.224 281.953C547.843 282.521 546.363 282.812 544.869 282.808Z" fill="#CED8D6"/>
<path d="M187.59 431H146.775C145.091 425.516 146.775 417.824 146.775 417.824L146.118 410.635L145.378 402.584L160.969 400.725L162.191 405.86L164.101 413.921C166.156 415.801 179.764 418.738 183.163 422.137C186.563 425.536 187.59 431 187.59 431Z" fill="#F6B68E"/>
<path d="M162.191 405.808C157.487 409.218 150 410.276 146.118 410.594L145.378 402.543L160.969 400.684L162.191 405.808Z" fill="#C4764B"/>
<path d="M187.59 430.99H146.775C145.091 425.516 146.775 417.824 146.775 417.824C146.775 417.824 159.357 420.165 164.101 413.87C166.156 415.749 179.764 418.687 183.163 422.086C186.563 425.485 187.59 430.99 187.59 430.99Z" fill="#444C72"/>
<path d="M127.734 431H86.919C85.2347 425.516 86.919 417.824 86.919 417.824L87.525 412.36L88.172 406.609L104.605 403.98L104.369 409.742L104.204 413.85C106.258 415.729 119.856 418.666 123.266 422.065C126.676 425.465 127.734 431 127.734 431Z" fill="#F6B68E"/>
<path d="M88.172 406.609L104.605 403.98L104.369 409.742C98.8997 411.44 93.2103 412.322 87.4839 412.36L88.172 406.609Z" fill="#C4764B"/>
<path d="M90.0823 278.546L88.3261 341.479L85.3579 406.887C85.3579 406.887 96.9122 410.43 106.608 405.962L115.183 342.598L122.219 302.957L131.729 342.28L142.914 404.525C142.914 404.525 154.653 406.753 163.033 401.536L156.142 335.379L149.055 274.993L90.0823 278.546Z" fill="#444C72"/>
<path d="M131.801 142.297C131.801 142.297 136.012 139.751 135.57 135.109C135.128 130.467 129.695 129.974 127.806 127.684C125.916 125.393 123.266 120.803 116.159 120.803C109.052 120.803 104.286 125.445 104.759 129.399C104.759 129.399 98.658 128.177 96.1109 132.726C93.5639 137.276 95.885 141.702 94.8887 143.817C93.8925 145.933 93.8617 151.355 96.7785 154.467C99.6953 157.579 97.8056 160.115 100.989 163.997C101.931 165.117 103.137 165.985 104.498 166.523C105.859 167.06 107.332 167.251 108.785 167.078L131.801 142.297Z" fill="#222850"/>
<path d="M208.151 170.241C207.854 171.504 204.043 173.764 200.818 175.499C198.302 176.845 196.094 177.872 196.094 177.872L189.141 172.531L190.681 169.943L191.277 168.916C191.277 168.916 192.838 156.346 194.358 155.217C195.878 154.087 197.039 155.545 197.316 156.983C197.512 158.626 197.604 160.279 197.593 161.933C197.593 161.933 200.274 157.897 200.315 157.825C200.356 157.753 202.862 150.215 204.3 150.092C205.738 149.969 206.046 150.883 206.128 151.807C205.932 153.61 205.613 155.398 205.173 157.158C205.173 157.158 207.566 159.15 207.679 159.982C207.792 160.814 208.686 168.013 208.151 170.241Z" fill="#F6B68E"/>
<path d="M200.818 175.499C198.302 176.845 196.094 177.872 196.094 177.872L189.141 172.531L190.681 169.943C193.167 170.478 198.056 171.864 200.818 175.499Z" fill="#C4764B"/>
<path d="M138.415 176.578L162.766 198.534L187.683 171.505C187.683 171.505 194.574 171.258 197.737 178.899C197.737 178.899 174.824 209.153 164.379 215.87L144.269 209.503C140.308 198.981 138.323 187.819 138.415 176.578Z" fill="#FC694C"/>
<path d="M132.489 162.827C132.207 163.263 131.861 163.654 131.462 163.987C128.905 166.185 124.735 165.928 124.735 165.928L125.084 169.718L125.618 175.469C125.618 175.469 124.283 179.351 118.193 179.238C114.563 179.173 111.102 177.7 108.538 175.13L109.093 157.055C109.093 157.055 106.649 156.274 106.207 154.395C105.765 152.516 104.769 148.839 106.207 148.408C107.645 147.977 109.863 148.511 110.428 150.174L110.972 152.834L112.965 152.731C112.965 152.731 112.534 148.408 113.858 146.734C115.183 145.06 120.175 143.653 120.175 139.638C120.175 139.638 124.951 145.07 131.832 142.297C131.801 142.297 134.687 159.386 132.489 162.827Z" fill="#F6B68E"/>
<path d="M150.339 255.069C149.887 258.027 149.312 260.861 148.86 263.285C148.038 267.28 147.361 270.022 147.361 270.022C131.739 274.081 115.446 274.854 99.5104 272.292C97.3536 271.953 95.1558 271.521 92.9476 271.008C92.9476 271.008 91.6433 268.851 90.1746 266.232C88.2848 262.915 86.0664 258.849 85.974 257.596C85.8199 256.096 89.2913 221.713 91.6227 198.904C92.7935 187.474 93.6768 178.95 93.6768 178.95C97.1694 175.738 101.339 173.351 105.878 171.967C106.751 171.689 107.655 171.422 108.61 171.196C108.61 171.196 112.718 177.636 119.374 176.475C126.029 175.315 125.3 172.737 125.3 172.737L125.104 170.683C125.104 170.683 126.131 171.032 127.723 171.607C130.979 172.798 136.361 174.914 138.384 176.578C138.415 176.578 151.582 247.121 150.339 255.069Z" fill="#FC694C"/>
<path d="M99.1201 237.015L95.5152 258.582L99.1201 267.989L99.5104 272.261L100.291 280.898C96.8309 280.414 93.4188 279.634 90.0924 278.566C90.0924 278.566 86.0458 272.127 90.1848 266.243C88.2951 262.926 86.0766 258.859 85.9842 257.606C85.8301 256.107 89.3016 221.723 91.633 198.914L95.5152 196.86V214.319H124.211V221.148L99.1201 237.015Z" fill="#D64F38"/>
<path d="M149.107 274.951C149.107 274.951 143.129 279.439 125.618 281.062C114.783 282.089 106.7 281.822 100.291 280.887C96.831 280.404 93.4189 279.624 90.0924 278.556C90.0924 278.556 86.0459 272.117 90.1849 266.232C93.0963 267.138 96.0944 267.737 99.1304 268.019C106.292 268.806 113.508 268.978 120.698 268.533C141.938 267.403 148.911 263.285 148.911 263.285C149.863 265.076 150.377 267.067 150.411 269.095C150.445 271.123 149.998 273.13 149.107 274.951Z" fill="#FC694C"/>
<path d="M100.291 280.887C96.831 280.404 93.4189 279.624 90.0924 278.556C90.0924 278.556 86.0459 272.117 90.1849 266.232C93.0963 267.138 96.0944 267.737 99.1304 268.019L99.5207 272.292L100.291 280.887Z" fill="#D64F38"/>
<path d="M133.721 206.832C133.352 207.674 132.89 210.365 132.325 211.865C131.76 213.364 128.689 215.859 127.189 216.712C125.69 217.564 120.914 218.334 118.439 218.376H112.646L109.956 208.219C109.956 208.219 113.489 205.518 114.793 204.491C116.097 203.464 119.178 200.948 120.955 200.67C122.21 200.518 123.48 200.518 124.735 200.67L123.934 202.95C123.934 203.207 123.697 205.004 124.036 205.251C125.611 205.617 127.254 205.564 128.802 205.097C130.106 204.563 133.547 202.519 134.297 203.351C135.046 204.183 134.091 206 133.721 206.832Z" fill="#F6B68E"/>
<path d="M158.288 193.687L143.787 228.604L115.83 225.862L118.48 218.376C120.955 218.376 125.793 217.523 127.231 216.712C128.668 215.901 131.801 213.354 132.366 211.865C132.931 210.375 133.393 207.674 133.763 206.832C134.132 205.99 135.067 204.224 134.327 203.382C133.588 202.54 130.137 204.594 128.833 205.128C127.285 205.595 125.642 205.648 124.067 205.282C123.728 204.994 123.934 203.228 123.965 202.981L124.766 200.701L129.747 186.642L158.288 193.687Z" fill="#F4F4F4"/>
<path d="M93.6873 178.909C93.6873 178.909 75.8577 209.502 75.6626 226.673C75.6626 226.673 76.5972 230.781 83.6838 231.336C90.7705 231.89 113.684 219.598 113.684 219.598C113.684 219.598 114.803 210.273 110.521 206.925L92.9067 212.06C92.9067 212.06 99.0279 187.936 93.6873 178.909Z" fill="#FC694C"/>
<path d="M119.363 180.09C111.476 180.922 105.888 171.874 105.888 171.874C106.751 171.597 107.665 171.33 108.62 171.104C108.62 171.104 112.729 177.543 119.384 176.383C126.039 175.222 125.33 172.706 125.33 172.706L125.135 170.652C125.135 170.652 126.162 171.012 127.754 171.576C129.11 174.729 127.241 179.248 119.363 180.09Z" fill="#D64F38"/>
<path d="M114.926 176.095L109.586 183.941C109.586 183.941 104.368 178.611 103.649 172.737L108.672 169.718L114.926 176.095Z" fill="#F4F4F4"/>
<path d="M123.307 175.274L125.084 170.077L130.075 172.48C130.331 175.065 130.04 177.675 129.223 180.141L123.307 175.274Z" fill="#F4F4F4"/>
<path d="M127.724 430.99H86.919C85.2347 425.516 86.919 417.824 86.919 417.824C86.919 417.824 99.4901 420.165 104.245 413.87C106.299 415.749 119.897 418.687 123.307 422.086C126.717 425.485 127.724 430.99 127.724 430.99Z" fill="#444C72"/>
<path d="M122.26 302.895L130.27 293.951L125.423 315.989L122.26 302.895Z" fill="#222850"/>
<path d="M92.9066 212.049L88.439 218.386L99.11 210.242L92.9066 212.049Z" fill="#D64F38"/>
<path d="M124.704 165.928L125.053 169.718C112.811 169.471 113.437 156.86 113.437 156.86C120.863 167.232 130.897 164.182 131.431 163.987C128.874 166.185 124.704 165.928 124.704 165.928Z" fill="#C4764B"/>
<path d="M137.049 52.5297H27.7507V96.6792H137.049V52.5297Z" fill="#19888E"/>
<path d="M115.8 96.6793V112.166L123.307 96.6793H115.8Z" fill="#19888E"/>
<path d="M128.607 66.2192H36.1724C36.0529 66.2192 35.9345 66.1955 35.8242 66.1495C35.7138 66.1034 35.6137 66.0359 35.5297 65.9509C35.4456 65.8659 35.3793 65.7651 35.3344 65.6542C35.2896 65.5434 35.2673 65.4248 35.2686 65.3052C35.2686 65.0655 35.3638 64.8357 35.5333 64.6662C35.7028 64.4967 35.9327 64.4015 36.1724 64.4015H128.607C128.846 64.4015 129.076 64.4967 129.246 64.6662C129.415 64.8357 129.51 65.0655 129.51 65.3052C129.512 65.4248 129.489 65.5434 129.445 65.6542C129.4 65.7651 129.333 65.8659 129.249 65.9509C129.165 66.0359 129.065 66.1034 128.955 66.1495C128.845 66.1955 128.726 66.2192 128.607 66.2192Z" fill="white"/>
<path d="M128.607 75.5133H36.1724C35.9327 75.5133 35.7028 75.4181 35.5333 75.2486C35.3638 75.0791 35.2686 74.8492 35.2686 74.6096C35.2673 74.49 35.2896 74.3714 35.3344 74.2606C35.3793 74.1497 35.4456 74.0489 35.5297 73.9639C35.6137 73.8789 35.7138 73.8114 35.8242 73.7653C35.9345 73.7193 36.0529 73.6955 36.1724 73.6956H128.607C128.726 73.6955 128.845 73.7193 128.955 73.7653C129.065 73.8114 129.165 73.8789 129.249 73.9639C129.333 74.0489 129.4 74.1497 129.445 74.2606C129.489 74.3714 129.512 74.49 129.51 74.6096C129.51 74.8492 129.415 75.0791 129.246 75.2486C129.076 75.4181 128.846 75.5133 128.607 75.5133Z" fill="white"/>
<path d="M128.607 84.8074H36.1724C36.0533 84.8088 35.9352 84.7864 35.8249 84.7414C35.7146 84.6965 35.6145 84.63 35.5303 84.5458C35.4461 84.4616 35.3795 84.3614 35.3346 84.2511C35.2897 84.1409 35.2672 84.0227 35.2686 83.9037C35.2672 83.7846 35.2897 83.6665 35.3346 83.5562C35.3795 83.4459 35.4461 83.3458 35.5303 83.2616C35.6145 83.1774 35.7146 83.1109 35.8249 83.0659C35.9352 83.021 36.0533 82.9986 36.1724 82.9999H128.607C128.726 82.9986 128.844 83.021 128.954 83.0659C129.064 83.1109 129.165 83.1774 129.249 83.2616C129.333 83.3458 129.399 83.4459 129.444 83.5562C129.489 83.6665 129.512 83.7846 129.51 83.9037C129.512 84.0227 129.489 84.1409 129.444 84.2511C129.399 84.3614 129.333 84.4616 129.249 84.5458C129.165 84.63 129.064 84.6965 128.954 84.7414C128.844 84.7864 128.726 84.8088 128.607 84.8074Z" fill="white"/>
<path d="M480.052 136.957C480.052 136.957 473.263 131.822 476.262 125.989C476.758 124.916 477.486 123.966 478.392 123.208C479.298 122.449 480.361 121.899 481.504 121.599C482.648 121.299 483.843 121.255 485.005 121.471C486.167 121.686 487.268 122.156 488.227 122.846C491.021 124.9 492.048 129.768 497.224 131.34C502.4 132.911 508.142 136.177 508.522 142.441C508.902 148.706 507.361 156.398 501.671 159.807H490.764L480.052 136.957Z" fill="#222850"/>
<path d="M464.636 409.68L463.886 417.824C463.886 417.824 465.571 425.516 463.886 431H423.071C423.071 431 424.098 425.516 427.488 422.106C430.877 418.697 444.485 415.749 446.56 413.891L449.251 402.594L449.59 401.156L449.692 400.735H449.764L465.252 402.573L464.636 409.68Z" fill="#F6B68E"/>
<path d="M423.071 430.99H463.886C465.56 425.516 463.886 417.824 463.886 417.824C463.886 417.824 451.305 420.165 446.55 413.87C444.496 415.749 430.897 418.687 427.498 422.086C424.098 425.485 423.071 430.99 423.071 430.99Z" fill="#444C72"/>
<path d="M523.794 431H482.938C482.938 431 483.965 425.516 487.354 422.106C490.744 418.697 504.352 415.749 506.416 413.891L506.201 408.396L506.016 404.001L522.5 406.63L523.157 412.525L523.743 417.844C523.743 417.844 525.427 425.516 523.794 431Z" fill="#F6B68E"/>
<path d="M465.252 402.573L464.605 409.711C454.591 409.064 450.062 403.693 449.199 402.573L449.045 402.368L449.538 401.136L449.713 400.725L465.252 402.573Z" fill="#C4764B"/>
<path d="M523.157 412.504C514.52 413.244 506.426 408.509 506.2 408.396L506.016 404.001L522.5 406.63L523.157 412.504Z" fill="#C4764B"/>
<path d="M520.579 278.546L522.356 341.479L525.304 406.887C525.304 406.887 513.739 410.43 504.054 405.962L495.478 342.598L488.391 302.957L478.891 342.28L467.707 404.525C467.707 404.525 456.009 406.681 447.577 401.485L454.478 335.327L461.555 274.941L520.579 278.546Z" fill="#444C72"/>
<path d="M421.52 172.531L414.567 177.851C414.567 177.851 412.616 176.947 410.285 175.715C406.947 173.949 402.808 171.535 402.5 170.221C401.965 167.992 402.859 160.803 402.982 159.951C403.105 159.099 405.499 157.127 405.499 157.127C405.055 155.368 404.732 153.58 404.533 151.776C404.615 150.852 404.934 149.948 406.382 150.061C407.83 150.174 410.326 157.671 410.367 157.794C410.408 157.918 413.078 161.902 413.078 161.902C413.067 160.248 413.16 158.595 413.355 156.952C413.633 155.515 414.793 154.077 416.303 155.186C417.813 156.295 419.384 168.886 419.384 168.886L420.411 170.601L421.52 172.531Z" fill="#F6B68E"/>
<path d="M421.521 172.531L414.567 177.851C414.567 177.851 412.616 176.947 410.285 175.715C411.938 174.216 415.79 171.227 420.411 170.662L421.521 172.531Z" fill="#C4764B"/>
<path d="M472.246 176.578L447.895 198.534L422.979 171.505C422.979 171.505 416.087 171.258 412.924 178.899C412.924 178.899 435.837 209.153 446.272 215.87L466.382 209.503C470.349 198.983 472.338 187.82 472.246 176.578Z" fill="#19888E"/>
<path d="M478.193 162.827C478.475 163.263 478.821 163.654 479.22 163.987C481.777 166.185 485.947 165.928 485.947 165.928L485.598 169.718L485.064 175.469C485.064 175.469 486.399 179.351 492.489 179.238C496.119 179.173 499.581 177.7 502.144 175.13L501.589 157.055C501.589 157.055 504.023 156.275 504.475 154.395C504.927 152.516 505.913 148.839 504.475 148.408C503.037 147.977 500.819 148.511 500.254 150.174L499.699 152.834L497.707 152.731C497.707 152.731 500.788 138.354 480.042 136.957C480.052 136.957 475.975 159.386 478.193 162.827Z" fill="#F6B68E"/>
<path d="M482.938 430.99H523.794C525.478 425.516 523.794 417.824 523.794 417.824C523.794 417.824 511.213 420.165 506.468 413.87C504.414 415.749 490.815 418.687 487.406 422.086C483.996 425.485 482.938 430.99 482.938 430.99Z" fill="#444C72"/>
<path d="M488.402 302.895L480.381 293.951L485.228 315.989L488.402 302.895Z" fill="#222850"/>
<path d="M485.957 165.928L485.608 169.718C497.84 169.471 497.214 156.86 497.214 156.86C489.799 167.232 479.805 164.182 479.23 163.987C481.788 166.185 485.957 165.928 485.957 165.928Z" fill="#C4764B"/>
<path d="M523.691 278.679C519.141 279.871 513.02 280.353 506.334 280.405H503.078C482.311 280.169 457.888 276.297 457.888 276.297L466.392 209.503L472.246 176.639L485.31 172.922C485.31 172.922 485.701 176.619 490.764 177.112C494.822 177.408 498.845 176.194 502.061 173.702L502 171.576L514.766 177.933L517.282 206.586L523.691 278.679Z" fill="#19888E"/>
<path d="M506.334 280.364L517.18 241.821L505.235 203.341L517.323 206.555L523.691 278.71C519.141 279.871 513.02 280.364 506.334 280.364Z" fill="#0A5B5B"/>
<path d="M522.839 280.415C522.639 281.85 522.27 283.257 521.74 284.605C520.819 287.011 519.713 289.342 518.433 291.578C512.157 291.291 506.96 284.728 506.96 284.728C507.331 283.51 507.93 282.374 508.727 281.38C509.805 280.271 513.133 277.776 513.133 277.776L522.839 280.415Z" fill="#F6B68E"/>
<path d="M522.839 280.415C522.639 281.85 522.27 283.257 521.74 284.605C514.859 282.952 513.133 277.776 513.133 277.776L522.839 280.415Z" fill="#C4764B"/>
<path d="M514.797 177.872C514.797 177.872 529.689 207.366 533.612 226.653C533.612 226.653 530.85 267.413 523.681 281.165C523.681 281.165 518.063 282.736 512.578 277.252C512.578 277.252 517.94 241.903 517.94 230.617L505.235 203.341C505.235 203.341 503.438 186.529 514.797 177.872Z" fill="#19888E"/>
<path d="M466.392 209.461L469.617 191.335L457.056 212.44L466.392 209.461Z" fill="#0A5B5B"/>
<path d="M524.04 59.1947H439.155V103.344H524.04V59.1947Z" fill="#19888E"/>
<path d="M505.667 103.355V121.357L513.174 103.355H505.667Z" fill="#19888E"/>
<path d="M513.256 69.5158H449.939C449.525 69.5158 449.189 69.8515 449.189 70.2655V70.5736C449.189 70.9876 449.525 71.3233 449.939 71.3233H513.256C513.67 71.3233 514.006 70.9876 514.006 70.5736V70.2655C514.006 69.8515 513.67 69.5158 513.256 69.5158Z" fill="white"/>
<path d="M513.256 78.8099H449.939C449.525 78.8099 449.189 79.1456 449.189 79.5596V79.8677C449.189 80.2818 449.525 80.6174 449.939 80.6174H513.256C513.67 80.6174 514.006 80.2818 514.006 79.8677V79.5596C514.006 79.1456 513.67 78.8099 513.256 78.8099Z" fill="white"/>
<path d="M505.8 88.104H457.405C457.042 88.104 456.748 88.3983 456.748 88.7613V89.2542C456.748 89.6172 457.042 89.9115 457.405 89.9115H505.8C506.163 89.9115 506.457 89.6172 506.457 89.2542V88.7613C506.457 88.3983 506.163 88.104 505.8 88.104Z" fill="white"/>
<path d="M249.5 303.142L245.711 303.173L296.087 431H300.175L249.5 303.142Z" fill="#CED8D6"/>
<path d="M296.426 303.142L300.216 303.173L249.839 431H245.752L296.426 303.142Z" fill="#CED8D6"/>
<path d="M444.177 294.351H235.42V303.132H444.177V294.351Z" fill="#CED8D6"/>
<path d="M444.177 294.351H363.472V303.132H444.177V294.351Z" fill="white"/>
<path d="M289.792 294.351L275.875 246.371H333.687L347.799 294.351H289.792Z" fill="#FC694C"/>
<path d="M347.799 294.361H342.571L328.46 246.371H333.687L347.799 294.361Z" fill="#444C72"/>
<path d="M347.799 294.361H383.818V289.565H346.392L347.799 294.361Z" fill="#444C72"/>
<path d="M313.034 265.811C313.937 269.447 311.719 272.394 308.094 272.394C306.207 272.297 304.398 271.61 302.923 270.428C301.449 269.247 300.383 267.632 299.877 265.811C298.973 262.176 301.182 259.239 304.817 259.239C306.703 259.333 308.512 260.019 309.987 261.199C311.461 262.378 312.527 263.992 313.034 265.811Z" fill="#F4F4F4"/>
<path d="M372.099 303.142L367.128 303.173L433.054 431H438.415L372.099 303.142Z" fill="#CED8D6"/>
<path d="M433.496 303.142L438.467 303.173L372.541 431H367.179L433.496 303.142Z" fill="#CED8D6"/>
<path d="M376.998 187.731C379.736 184.169 381.072 179.727 380.754 175.246C380.436 170.765 378.485 166.557 375.271 163.418C372.058 160.279 367.804 158.428 363.317 158.215C358.829 158.002 354.419 159.442 350.923 162.263C347.426 165.083 345.086 169.088 344.345 173.519C343.604 177.95 344.514 182.498 346.902 186.303C349.291 190.108 352.992 192.904 357.304 194.163C361.617 195.422 366.241 195.055 370.302 193.133L379.483 197.127L376.998 187.731Z" fill="#19888E"/>
<path d="M355.44 177.071C355.44 177.382 355.348 177.686 355.175 177.945C355.002 178.203 354.756 178.405 354.468 178.523C354.18 178.642 353.864 178.672 353.559 178.611C353.254 178.55 352.974 178.399 352.754 178.178C352.535 177.957 352.386 177.676 352.327 177.371C352.267 177.065 352.3 176.749 352.42 176.462C352.541 176.175 352.744 175.931 353.003 175.759C353.263 175.588 353.568 175.497 353.879 175.499C354.294 175.502 354.691 175.669 354.984 175.963C355.276 176.258 355.44 176.656 355.44 177.071Z" fill="white"/>
<path d="M364.068 177.071C364.068 177.381 363.975 177.685 363.803 177.944C363.63 178.202 363.385 178.403 363.098 178.522C362.81 178.641 362.494 178.672 362.19 178.612C361.885 178.551 361.605 178.401 361.385 178.182C361.165 177.962 361.016 177.682 360.955 177.377C360.894 177.072 360.925 176.756 361.044 176.469C361.163 176.182 361.365 175.937 361.623 175.764C361.882 175.592 362.185 175.499 362.496 175.499C362.912 175.502 363.31 175.668 363.604 175.963C363.898 176.257 364.065 176.655 364.068 177.071Z" fill="white"/>
<path d="M372.684 177.071C372.684 177.381 372.592 177.685 372.419 177.944C372.247 178.202 372.001 178.403 371.714 178.522C371.427 178.641 371.111 178.672 370.806 178.612C370.502 178.551 370.222 178.401 370.002 178.182C369.782 177.962 369.632 177.682 369.572 177.377C369.511 177.072 369.542 176.756 369.661 176.469C369.78 176.182 369.981 175.937 370.24 175.764C370.498 175.592 370.802 175.499 371.113 175.499C371.53 175.499 371.929 175.665 372.224 175.96C372.519 176.254 372.684 176.654 372.684 177.071Z" fill="white"/>
</g>
<defs>
<clipPath id="clip0_18_702">
<rect width="592" height="431" fill="white"/>
</clipPath>
</defs>
</svg>
