<svg width="16" height="16" viewBox="0 0 16 16" fill="none" xmlns="http://www.w3.org/2000/svg">
<path d="M9.41476 6.97225C9.09755 6.52816 8.57733 6.23633 7.99367 6.23633C7.41 6.23633 6.88978 6.52816 6.57257 6.97225C6.36956 7.26408 6.24268 7.61936 6.24268 8.00001C6.24268 8.96432 7.02935 9.751 7.99367 9.751C8.95798 9.751 9.74466 8.96432 9.74466 8.00001C9.74466 7.61936 9.61777 7.26408 9.41476 6.97225Z" fill="#A6A6A6"/>
<path d="M10.5186 6.98486C10.6455 7.23863 10.7216 7.64466 10.7216 7.99993C10.7216 9.49715 9.50353 10.7279 7.99362 10.7279C6.48371 10.7279 5.26563 9.50984 5.26563 7.99993C5.26563 7.63197 5.34176 7.23863 5.46864 6.98486H3.93335V11.0578C3.93335 11.5907 4.40282 12.0602 4.93573 12.0602H11.0515C11.5844 12.0602 12.0539 11.5907 12.0539 11.0578V6.98486H10.5186Z" fill="#A6A6A6"/>
<path d="M11.5971 4.16821H10.1252V5.85576H11.8001V4.38391V4.15552L11.5971 4.16821Z" fill="#A6A6A6"/>
<path d="M11.9778 0.00634766H4.00952C1.80174 0.00634766 0 1.80809 0 4.01586V11.9968C0 14.1919 1.80174 15.9937 4.00952 15.9937H11.9905C14.1983 15.9937 16 14.1919 16 11.9841V4.01586C15.9873 1.80809 14.1856 0.00634766 11.9778 0.00634766ZM12.9421 6.97225V11.0579C12.9421 12.1237 12.1174 12.9485 11.0515 12.9485H4.93577C3.86994 12.9485 3.0452 12.1237 3.0452 11.0579V6.97225V4.94211C3.0452 3.87629 3.86994 3.05155 4.93577 3.05155H11.0515C12.1174 3.05155 12.9421 3.87629 12.9421 4.94211V6.97225Z" fill="#A6A6A6"/>
</svg>
