<svg width="83" height="84" viewBox="0 0 83 84" fill="none" xmlns="http://www.w3.org/2000/svg">
<g clip-path="url(#clip0_23_2)" filter="url(#filter0_d_23_2)">
<path d="M4 0.5H79V75.5H4V0.5Z" fill="#F0DB4F"/>
<path d="M72.8616 57.6126C72.3127 54.1906 70.0812 51.3175 63.4724 48.6369C61.1768 47.5818 58.6173 46.8261 57.8545 45.0865C57.5836 44.0742 57.548 43.5038 57.7191 42.8907C58.211 40.9016 60.585 40.2814 62.4672 40.8517C63.6791 41.2581 64.8269 42.1921 65.5185 43.682C68.7552 41.5861 68.748 41.6003 71.008 40.1603C70.181 38.877 69.739 38.2852 69.1972 37.7363C67.2509 35.5619 64.5988 34.4426 60.3569 34.5281C59.6226 34.6208 58.8812 34.7205 58.1468 34.8133C56.0295 35.348 54.0118 36.4602 52.8284 37.9502C49.278 41.9782 50.2903 49.029 54.6107 51.9307C58.8669 55.1246 65.1192 55.8518 65.9177 58.839C66.6948 62.4963 63.2301 63.6797 59.7865 63.2591C57.2485 62.7315 55.837 61.4411 54.3113 59.0956C51.5024 60.7211 51.5024 60.7211 48.615 62.3822C49.2995 63.8794 50.0194 64.5566 51.1673 65.8542C56.5998 71.3651 70.1953 71.0942 72.6336 62.7529C72.7333 62.4677 73.3893 60.557 72.8616 57.6126V57.6126ZM44.7723 34.9701H37.7571C37.7571 41.03 37.7286 47.0471 37.7286 53.1069C37.7286 56.9639 37.9283 60.5 37.3009 61.5837C36.2743 63.7152 33.615 63.4515 32.4031 63.038C31.1697 62.432 30.5423 61.5693 29.8151 60.3503C29.6155 60.001 29.4658 59.73 29.4158 59.7087C27.5124 60.8707 25.6159 62.0399 23.7124 63.202C24.6607 65.1483 26.0579 66.8379 27.8474 67.9358C30.5209 69.5399 34.114 70.0318 37.8712 69.1691C40.3166 68.4562 42.4268 66.9805 43.5318 64.7348C45.1288 61.7904 44.7865 58.2258 44.7723 54.2833C44.8079 47.8527 44.7723 41.4221 44.7723 34.9701Z" fill="#323330"/>
</g>
<defs>
<filter id="filter0_d_23_2" x="0" y="0.5" width="83" height="83" filterUnits="userSpaceOnUse" color-interpolation-filters="sRGB">
<feFlood flood-opacity="0" result="BackgroundImageFix"/>
<feColorMatrix in="SourceAlpha" type="matrix" values="0 0 0 0 0 0 0 0 0 0 0 0 0 0 0 0 0 0 127 0" result="hardAlpha"/>
<feOffset dy="4"/>
<feGaussianBlur stdDeviation="2"/>
<feComposite in2="hardAlpha" operator="out"/>
<feColorMatrix type="matrix" values="0 0 0 0 0 0 0 0 0 0 0 0 0 0 0 0 0 0 0.25 0"/>
<feBlend mode="normal" in2="BackgroundImageFix" result="effect1_dropShadow_23_2"/>
<feBlend mode="normal" in="SourceGraphic" in2="effect1_dropShadow_23_2" result="shape"/>
</filter>
<clipPath id="clip0_23_2">
<rect width="75" height="75" fill="white" transform="translate(4 0.5)"/>
</clipPath>
</defs>
</svg>
