<svg width="63" height="63" viewBox="0 0 63 63" fill="none" xmlns="http://www.w3.org/2000/svg">
<path d="M53.6636 40.381C51.6761 45.4415 47.9953 49.6563 43.2485 52.3073C38.5018 54.9582 32.9827 55.8813 27.6316 54.9192C22.2806 53.957 17.4287 51.1693 13.9026 47.0309C10.3766 42.8925 8.39455 37.6595 8.29424 32.2236C8.19393 26.7877 9.98156 21.4852 13.3525 17.2195C16.7235 12.9538 21.4693 9.98897 26.7812 8.8301C32.0931 7.67122 37.6425 8.39002 42.4838 10.864C47.3251 13.338 51.1589 17.4142 53.3318 22.3979L50.0021 23.8497C48.1651 19.6363 44.9239 16.1902 40.8309 14.0986C36.7379 12.007 32.0463 11.3993 27.5554 12.379C23.0646 13.3588 19.0524 15.8653 16.2025 19.4717C13.3525 23.078 11.8412 27.5609 11.926 32.1566C12.0108 36.7523 13.6865 41.1764 16.6675 44.6751C19.6486 48.1738 23.7505 50.5307 28.2744 51.3441C32.7984 52.1575 37.4644 51.3771 41.4774 49.1359C45.4905 46.8947 48.6023 43.3314 50.2827 39.0531L53.6636 40.381Z" fill="#004E75"/>
<path d="M53.6636 40.381C51.6761 45.4415 47.9953 49.6563 43.2485 52.3073C38.5018 54.9582 32.9827 55.8813 27.6316 54.9192C22.2806 53.957 17.4287 51.1693 13.9026 47.0309C10.3766 42.8925 8.39455 37.6595 8.29424 32.2236C8.19393 26.7877 9.98156 21.4852 13.3525 17.2195C16.7235 12.9538 21.4693 9.98897 26.7812 8.8301C32.0931 7.67122 37.6425 8.39002 42.4838 10.864C47.3251 13.338 51.1589 17.4142 53.3318 22.3979L50.0021 23.8497C48.1651 19.6363 44.9239 16.1902 40.8309 14.0986C36.7379 12.007 32.0463 11.3993 27.5554 12.379C23.0646 13.3588 19.0524 15.8653 16.2025 19.4717C13.3525 23.078 11.8412 27.5609 11.926 32.1566C12.0108 36.7523 13.6865 41.1764 16.6675 44.6751C19.6486 48.1738 23.7505 50.5307 28.2744 51.3441C32.7984 52.1575 37.4644 51.3771 41.4774 49.1359C45.4905 46.8947 48.6023 43.3314 50.2827 39.0531L53.6636 40.381Z" fill="#004E75"/>
<path d="M18.2978 42.9349C15.7194 39.8134 14.303 35.8944 14.2902 31.8457C14.2773 27.797 15.6687 23.8691 18.2272 20.7313C20.7857 17.5934 24.3531 15.4398 28.3215 14.6373C32.2899 13.8348 36.4137 14.4331 39.9904 16.3303C43.5671 18.2275 46.3754 21.3062 47.9366 25.0418C49.4979 28.7773 49.7156 32.9387 48.5526 36.8168C47.3897 40.6949 44.918 44.0498 41.5588 46.3098C38.1996 48.5699 34.1606 49.5952 30.1302 49.2112L30.3867 46.5184C33.7942 46.8431 37.2088 45.9762 40.0488 44.0655C42.8888 42.1548 44.9784 39.3185 45.9616 36.0398C46.9448 32.7612 46.7608 29.243 45.4408 26.0848C44.1209 22.9267 41.7467 20.3239 38.7229 18.7199C35.6991 17.116 32.2126 16.6101 28.8576 17.2886C25.5026 17.967 22.4866 19.7878 20.3236 22.4406C18.1606 25.0935 16.9843 28.4142 16.9951 31.8371C17.006 35.26 18.2034 38.5732 20.3833 41.2123L18.2978 42.9349Z" fill="#004E75"/>
<path d="M36.3598 20.1552C39.0516 21.2124 41.2935 23.1703 42.7036 25.6951C44.1136 28.22 44.6046 31.1557 44.0929 34.002C43.5811 36.8483 42.0983 39.4291 39.897 41.3047C37.6957 43.1802 34.9122 44.2345 32.0208 44.2879C29.1293 44.3412 26.3088 43.3903 24.0398 41.5973C21.7709 39.8042 20.1938 37.2799 19.5774 34.4544C18.961 31.6289 19.3433 28.6771 20.6593 26.1019C21.9752 23.5267 24.1434 21.4875 26.7943 20.3317L27.5665 22.1028C25.3254 23.08 23.4923 24.804 22.3798 26.9811C21.2672 29.1583 20.944 31.6538 21.4651 34.0425C21.9863 36.4313 23.3196 38.5654 25.2378 40.0814C27.1561 41.5973 29.5406 42.4012 31.9851 42.3561C34.4296 42.3109 36.7829 41.4196 38.6439 39.834C40.5049 38.2483 41.7586 36.0664 42.1912 33.6601C42.6239 31.2537 42.2088 28.7718 41.0167 26.6372C39.8246 24.5026 37.9292 22.8474 35.6535 21.9536L36.3598 20.1552Z" fill="#004E75"/>
<path d="M26.3199 25.2841C27.8251 24.0185 29.7226 23.314 31.6889 23.2906C33.6553 23.2672 35.569 23.9263 37.1039 25.1557C38.6388 26.385 39.6999 28.1086 40.1065 30.0326C40.5131 31.9566 40.2399 33.9621 39.3336 35.7073C38.4273 37.4526 36.9439 38.8296 35.1362 39.6037C33.3285 40.3778 31.3082 40.5012 29.4197 39.9528C27.5312 39.4044 25.8913 38.2181 24.7794 36.5962C23.6674 34.9742 23.1523 33.0168 23.3217 31.0576L24.7527 31.1814C24.6119 32.8095 25.04 34.4361 25.9641 35.784C26.8881 37.1319 28.2509 38.1177 29.8203 38.5734C31.3897 39.0292 33.0685 38.9266 34.5708 38.2833C36.073 37.64 37.3058 36.4957 38.0589 35.0454C38.8121 33.5951 39.039 31.9285 38.7012 30.3296C38.3633 28.7307 37.4815 27.2984 36.2059 26.2768C34.9304 25.2551 33.3401 24.7074 31.706 24.7268C30.0719 24.7463 28.4951 25.3318 27.2443 26.3835L26.3199 25.2841Z" fill="#004E75"/>
<path d="M34.3265 35.5073C33.4665 36.0941 32.4297 36.3646 31.3926 36.2726C30.3556 36.1806 29.3826 35.7319 28.6393 35.003C27.896 34.274 27.4284 33.3098 27.3163 32.2748C27.2042 31.2398 27.4544 30.1979 28.0244 29.3266C28.5944 28.4554 29.4488 27.8088 30.4421 27.4969C31.4353 27.185 32.506 27.2272 33.4717 27.6162C34.4374 28.0052 35.2383 28.7171 35.738 29.6304C36.2377 30.5438 36.4052 31.6021 36.212 32.6251L35.3842 32.4688C35.5413 31.6373 35.4051 30.7771 34.999 30.0347C34.5928 29.2924 33.9418 28.7138 33.1569 28.3976C32.372 28.0813 31.5018 28.0471 30.6944 28.3006C29.8871 28.5541 29.1926 29.0797 28.7293 29.7878C28.2661 30.4959 28.0627 31.3428 28.1538 32.1841C28.2449 33.0254 28.625 33.809 29.2291 34.4015C29.8333 34.9941 30.6242 35.3588 31.4671 35.4335C32.31 35.5083 33.1527 35.2884 33.8517 34.8115L34.3265 35.5073Z" fill="#004E75"/>
<path d="M31.9184 29.2934C32.4961 29.3231 33.0455 29.5521 33.4732 29.9415C33.9009 30.3309 34.1803 30.8566 34.2639 31.4289C34.3474 32.0012 34.23 32.5848 33.9315 33.0802C33.633 33.5756 33.172 33.9523 32.627 34.1459C32.0819 34.3395 31.4866 34.3381 30.9425 34.142C30.3984 33.9459 29.9391 33.5672 29.6429 33.0705C29.3466 32.5737 29.2318 31.9896 29.318 31.4176C29.4042 30.8457 29.686 30.3213 30.1154 29.9339L30.7717 30.6613C30.5105 30.8969 30.3391 31.2158 30.2867 31.5636C30.2343 31.9114 30.3041 32.2666 30.4843 32.5687C30.6644 32.8708 30.9437 33.1011 31.2747 33.2204C31.6056 33.3396 31.9676 33.3405 32.299 33.2227C32.6305 33.105 32.9108 32.8759 33.0923 32.5747C33.2739 32.2734 33.3453 31.9185 33.2945 31.5704C33.2437 31.2224 33.0737 30.9027 32.8136 30.6659C32.5536 30.4291 32.2194 30.2898 31.8681 30.2718L31.9184 29.2934Z" fill="#004E75"/>
<circle cx="31.7901" cy="31.7901" r="0.5" transform="rotate(-158.557 31.7901 31.7901)" fill="#004E75"/>
</svg>
