<svg width="62" height="62" viewBox="0 0 62 62" fill="none" xmlns="http://www.w3.org/2000/svg">
<path d="M52.7139 39.4313C50.7264 44.4918 47.0456 48.7066 42.2988 51.3576C37.5521 54.0085 32.033 54.9316 26.6819 53.9694C21.3309 53.0073 16.479 50.2196 12.9529 46.0812C9.42688 41.9428 7.44484 36.7098 7.34453 31.2739C7.24422 25.838 9.03185 20.5354 12.4028 16.2698C15.7738 12.0041 20.5195 9.03927 25.8315 7.88039C31.1434 6.72151 36.6928 7.44032 41.5341 9.91433C46.3754 12.3883 50.2092 16.4645 52.3821 21.4482L49.0524 22.9C47.2154 18.6866 43.9742 15.2405 39.8812 13.1489C35.7882 11.0573 31.0965 10.4496 26.6057 11.4293C22.1149 12.4091 18.1027 14.9156 15.2527 18.522C12.4028 22.1283 10.8915 26.6112 10.9763 31.2069C11.0611 35.8026 12.7368 40.2267 15.7178 43.7254C18.6989 47.2241 22.8008 49.581 27.3247 50.3944C31.8487 51.2078 36.5147 50.4274 40.5277 48.1862C44.5408 45.945 47.6526 42.3817 49.3329 38.1034L52.7139 39.4313Z" fill="white"/>
<path d="M52.7139 39.4313C50.7264 44.4918 47.0456 48.7066 42.2988 51.3576C37.5521 54.0085 32.033 54.9316 26.6819 53.9694C21.3309 53.0073 16.479 50.2196 12.9529 46.0812C9.42688 41.9428 7.44484 36.7098 7.34453 31.2739C7.24422 25.838 9.03185 20.5354 12.4028 16.2698C15.7738 12.0041 20.5195 9.03927 25.8315 7.88039C31.1434 6.72151 36.6928 7.44032 41.5341 9.91433C46.3754 12.3883 50.2092 16.4645 52.3821 21.4482L49.0524 22.9C47.2154 18.6866 43.9742 15.2405 39.8812 13.1489C35.7882 11.0573 31.0965 10.4496 26.6057 11.4293C22.1149 12.4091 18.1027 14.9156 15.2527 18.522C12.4028 22.1283 10.8915 26.6112 10.9763 31.2069C11.0611 35.8026 12.7368 40.2267 15.7178 43.7254C18.6989 47.2241 22.8008 49.581 27.3247 50.3944C31.8487 51.2078 36.5147 50.4274 40.5277 48.1862C44.5408 45.945 47.6526 42.3817 49.3329 38.1034L52.7139 39.4313Z" fill="white"/>
<path d="M17.3481 41.9852C14.7696 38.8637 13.3533 34.9447 13.3405 30.896C13.3276 26.8473 14.719 22.9194 17.2775 19.7816C19.836 16.6437 23.4034 14.4901 27.3718 13.6876C31.3401 12.8851 35.464 13.4834 39.0407 15.3806C42.6174 17.2778 45.4256 20.3565 46.9869 24.092C48.5482 27.8276 48.7659 31.989 47.6029 35.8671C46.4399 39.7452 43.9683 43.1001 40.6091 45.3601C37.2499 47.6202 33.2109 48.6455 29.1805 48.2615L29.437 45.5687C32.8445 45.8934 36.2591 45.0265 39.0991 43.1158C41.9391 41.2051 44.0287 38.3688 45.0119 35.0901C45.9951 31.8115 45.8111 28.2933 44.4911 25.1351C43.1712 21.977 40.797 19.3742 37.7732 17.7702C34.7493 16.1663 31.2629 15.6604 27.9079 16.3389C24.5529 17.0173 21.5369 18.8381 19.3739 21.4909C17.2108 24.1438 16.0346 27.4645 16.0454 30.8874C16.0563 34.3103 17.2537 37.6235 19.4336 40.2626L17.3481 41.9852Z" fill="white"/>
<path d="M35.4101 19.2055C38.1019 20.2627 40.3438 22.2205 41.7539 24.7454C43.1639 27.2703 43.6549 30.206 43.1432 33.0523C42.6314 35.8986 41.1485 38.4794 38.9473 40.355C36.746 42.2305 33.9625 43.2848 31.0711 43.3381C28.1796 43.3915 25.3591 42.4406 23.0901 40.6476C20.8212 38.8545 19.2441 36.3302 18.6277 33.5047C18.0113 30.6792 18.3936 27.7274 19.7096 25.1522C21.0255 22.577 23.1937 20.5378 25.8446 19.382L26.6168 21.1531C24.3757 22.1303 22.5426 23.8543 21.4301 26.0314C20.3175 28.2085 19.9943 30.7041 20.5154 33.0928C21.0366 35.4816 22.3699 37.6157 24.2881 39.1317C26.2064 40.6476 28.5909 41.4515 31.0354 41.4063C33.4799 41.3612 35.8332 40.4699 37.6942 38.8843C39.5552 37.2986 40.8089 35.1167 41.2415 32.7104C41.6742 30.304 41.2591 27.8221 40.067 25.6875C38.8749 23.5529 36.9795 21.8977 34.7038 21.0039L35.4101 19.2055Z" fill="white"/>
<path d="M25.3702 24.3344C26.8754 23.0688 28.7728 22.3643 30.7392 22.3409C32.7056 22.3175 34.6193 22.9766 36.1542 24.206C37.689 25.4353 38.7502 27.1589 39.1568 29.0829C39.5634 31.0069 39.2902 33.0124 38.3839 34.7576C37.4776 36.5029 35.9942 37.8799 34.1865 38.654C32.3788 39.4281 30.3585 39.5515 28.47 39.0031C26.5815 38.4547 24.9416 37.2684 23.8297 35.6464C22.7177 34.0245 22.2026 32.0671 22.372 30.1079L23.803 30.2317C23.6622 31.8598 24.0903 33.4864 25.0144 34.8343C25.9384 36.1822 27.3012 37.168 28.8706 37.6237C30.44 38.0795 32.1188 37.9769 33.6211 37.3336C35.1233 36.6903 36.3561 35.546 37.1092 34.0957C37.8624 32.6454 38.0893 30.9788 37.7515 29.3799C37.4136 27.781 36.5318 26.3487 35.2562 25.3271C33.9807 24.3054 32.3904 23.7577 30.7563 23.7771C29.1222 23.7966 27.5454 24.3821 26.2946 25.4338L25.3702 24.3344Z" fill="white"/>
<path d="M33.3768 34.5576C32.5168 35.1444 31.48 35.4149 30.4429 35.3229C29.4059 35.2309 28.4328 34.7822 27.6896 34.0533C26.9463 33.3243 26.4787 32.3601 26.3666 31.3251C26.2545 30.29 26.5047 29.2482 27.0747 28.3769C27.6447 27.5057 28.4991 26.8591 29.4924 26.5472C30.4856 26.2353 31.5563 26.2774 32.522 26.6665C33.4877 27.0555 34.2886 27.7674 34.7883 28.6807C35.2879 29.5941 35.4555 30.6524 35.2623 31.6754L34.4345 31.5191C34.5915 30.6876 34.4554 29.8274 34.0492 29.085C33.6431 28.3426 32.9921 27.7641 32.2072 27.4479C31.4223 27.1316 30.5521 27.0974 29.7447 27.3509C28.9374 27.6044 28.2429 28.13 27.7796 28.8381C27.3164 29.5462 27.113 30.3931 27.2041 31.2344C27.2952 32.0757 27.6752 32.8593 28.2794 33.4518C28.8835 34.0443 29.6745 34.409 30.5173 34.4838C31.3602 34.5585 32.203 34.3387 32.902 33.8618L33.3768 34.5576Z" fill="white"/>
<path d="M30.9687 28.3437C31.5464 28.3734 32.0958 28.6024 32.5235 28.9918C32.9512 29.3812 33.2306 29.9069 33.3142 30.4792C33.3977 31.0515 33.2803 31.6351 32.9818 32.1305C32.6833 32.6259 32.2223 33.0025 31.6773 33.1962C31.1322 33.3898 30.5369 33.3884 29.9928 33.1923C29.4487 32.9962 28.9894 32.6175 28.6931 32.1208C28.3969 31.624 28.2821 31.0399 28.3683 30.4679C28.4545 29.896 28.7363 29.3716 29.1657 28.9842L29.822 29.7116C29.5608 29.9472 29.3894 30.2661 29.337 30.6139C29.2846 30.9617 29.3544 31.3169 29.5346 31.619C29.7147 31.9211 29.994 32.1514 30.3249 32.2707C30.6559 32.3899 31.0179 32.3908 31.3493 32.273C31.6808 32.1553 31.9611 31.9262 32.1426 31.625C32.3242 31.3237 32.3956 30.9688 32.3448 30.6207C32.2939 30.2727 32.124 29.953 31.8639 29.7162C31.6039 29.4794 31.2697 29.3401 30.9184 29.3221L30.9687 28.3437Z" fill="white"/>
<circle cx="30.8404" cy="30.8403" r="0.5" transform="rotate(-158.557 30.8404 30.8403)" fill="white"/>
</svg>
