<svg width="22" height="20" viewBox="0 0 22 20" fill="none" xmlns="http://www.w3.org/2000/svg">
<path d="M5.59022 0.908824C5.08986 -0.0860873 4.32228 0.00199311 3.54685 0.00199311C2.16103 0.00199311 0.000158261 1.64528 0.000158265 4.70358C0.00015827 7.21003 1.11583 9.95372 4.87529 14.058C8.50345 18.019 13.2706 20.068 17.2283 19.9983C21.1859 19.9285 22.0002 16.557 22.0002 15.4185C22.0002 14.9138 21.6838 14.662 21.4659 14.5936C20.1172 13.9529 17.6298 12.759 17.0638 12.5346C16.4979 12.3103 16.2024 12.6137 16.0187 12.7788C15.5054 13.263 14.488 14.69 14.1397 15.0109C13.7913 15.3319 13.272 15.1695 13.0558 15.0481C12.2605 14.7322 10.1042 13.7827 8.38534 12.1332C6.2596 10.0932 6.13484 9.39138 5.73434 8.76663C5.41395 8.26683 5.64906 7.96018 5.76637 7.82618C6.22438 7.30301 6.85679 6.49531 7.14039 6.09393C7.424 5.69255 7.19886 5.08315 7.06376 4.70359C6.48274 3.07122 5.99051 1.70475 5.59022 0.908824Z" fill="white"/>
</svg>
