<svg width="106" height="72" viewBox="0 0 106 72" fill="none" xmlns="http://www.w3.org/2000/svg">
<g filter="url(#filter0_d_23_8)">
<path d="M4.40601 33C4.40601 50.0133 26.1627 63.8055 52.9998 63.8055C79.837 63.8055 101.594 50.0133 101.594 33C101.594 15.987 79.837 2.19452 52.9998 2.19452C26.1627 2.19452 4.40601 15.987 4.40601 33Z" fill="url(#paint0_radial_23_8)"/>
<path d="M52.9998 61.5183C78.7888 61.5183 99.6955 48.7502 99.6955 32.9999C99.6955 17.2499 78.7888 4.48154 52.9998 4.48154C27.2109 4.48154 6.3042 17.2499 6.3042 32.9999C6.3042 48.7502 27.2109 61.5183 52.9998 61.5183Z" fill="#777BB3"/>
<path d="M30.8076 36.5358C32.9281 36.5358 34.5111 36.0645 35.5128 35.1355C36.5037 34.2161 37.1881 32.623 37.5469 30.4009C37.8813 28.3239 37.7539 26.8737 37.1683 26.091C36.5695 25.2916 35.2748 24.8862 33.3204 24.8862H29.9316L28.0529 36.5358H30.8076ZM19.7237 50.886C19.5664 50.886 19.417 50.8013 19.317 50.6547C19.2168 50.5083 19.1762 50.3156 19.2062 50.1294L24.1851 19.2578C24.2333 18.9594 24.4504 18.7437 24.7027 18.7437H35.4335C38.806 18.7437 41.3162 19.8473 42.894 22.024C44.4802 24.2123 44.97 27.271 44.3498 31.1152C44.0974 32.6813 43.6633 34.1358 43.0595 35.438C42.4551 36.7417 41.6563 37.948 40.6849 39.024C39.522 40.3355 38.206 41.2865 36.7767 41.8461C35.3701 42.3983 33.5636 42.6783 31.4076 42.6783H27.0625L25.8216 50.3717C25.7735 50.6704 25.5566 50.886 25.3042 50.886H19.7237Z" fill="black"/>
<path d="M30.3662 25.5216H33.3203C35.6792 25.5216 36.4986 26.1454 36.777 26.5171C37.2389 27.1343 37.3261 28.4357 37.0292 30.2804C36.6956 32.3455 36.0773 33.8098 35.1911 34.632C34.2839 35.4737 32.8089 35.9003 30.8075 35.9003H28.6924L30.3662 25.5216ZM35.4335 18.1082H24.7025C24.1978 18.1082 23.7638 18.5395 23.6675 19.1366L18.6886 50.0082C18.6285 50.3808 18.7097 50.766 18.9099 51.059C19.1102 51.3519 19.4087 51.5214 19.7236 51.5214H25.304C25.8089 51.5214 26.2429 51.0901 26.3392 50.493L27.4971 43.3137H31.4076C33.619 43.3137 35.4806 43.0231 36.9403 42.4502C38.4414 41.8624 39.8225 40.8658 41.045 39.4882C42.0559 38.3673 42.8887 37.1091 43.5196 35.7483C44.1508 34.3869 44.6042 32.8689 44.8674 31.2363C45.5203 27.1898 44.9899 23.9496 43.291 21.6061C41.6086 19.2851 38.9648 18.1082 35.4335 18.1082ZM27.4131 37.1712H30.8075C33.0574 37.1712 34.7333 36.6605 35.8344 35.639C36.9357 34.6172 37.6785 32.9119 38.0644 30.5223C38.4337 28.2279 38.2655 26.6088 37.5598 25.6656C36.8533 24.7225 35.4404 24.2508 33.3203 24.2508H29.4969L27.4131 37.1712ZM35.4335 19.3791C38.6617 19.3791 41.0167 20.4 42.4969 22.4421C43.977 24.4842 44.4227 27.3345 43.8321 30.994C43.5891 32.5014 43.178 33.8797 42.5992 35.1283C42.0197 36.3778 41.2631 37.5203 40.328 38.5562C39.2137 39.8129 37.9758 40.7084 36.6137 41.2418C35.2516 41.7766 33.5167 42.0428 31.4076 42.0428H26.6276L25.304 50.2505H19.7236L24.7025 19.3791H35.4335Z" fill="white"/>
<path d="M57.1447 42.6783C56.9872 42.6783 56.838 42.5936 56.738 42.447C56.6377 42.3007 56.5971 42.1082 56.6271 41.9218L58.8295 28.2623C59.039 26.9633 58.9874 26.0309 58.6842 25.6369C58.4986 25.3961 57.9411 24.9922 56.2926 24.9922H52.3026L49.5335 42.1641C49.4853 42.4627 49.2683 42.6783 49.0159 42.6783H43.4795C43.322 42.6783 43.1728 42.5936 43.0726 42.447C42.9724 42.3007 42.9318 42.1079 42.9618 41.9218L47.9407 11.0502C47.9889 10.7517 48.206 10.5361 48.4584 10.5361H53.9948C54.1522 10.5361 54.3015 10.6208 54.4016 10.7672C54.5018 10.9138 54.5424 11.1063 54.5124 11.2927L53.3109 18.7438H57.6033C60.8733 18.7438 63.0906 19.4385 64.3821 20.8678C65.6986 22.3259 66.1093 24.6573 65.6031 27.798L63.2866 42.1641C63.2385 42.4627 63.0216 42.6783 62.769 42.6783H57.1447Z" fill="black"/>
<path d="M53.9947 9.9006H48.4583C47.9534 9.9006 47.5194 10.3319 47.4231 10.9289L42.4442 41.8005C42.3841 42.1731 42.4653 42.5584 42.6657 42.8513C42.866 43.1443 43.1645 43.3137 43.4794 43.3137H49.0158C49.5206 43.3137 49.9547 42.8825 50.051 42.2854L52.7372 25.6275H56.2926C57.9382 25.6275 58.2836 26.0512 58.2975 26.0694C58.3973 26.1988 58.5286 26.7982 58.3119 28.1411L56.1095 41.8005C56.0494 42.1731 56.1306 42.5584 56.3309 42.8513C56.5313 43.1443 56.8297 43.3137 57.1447 43.3137H62.769C63.2737 43.3137 63.7079 42.8825 63.8042 42.2854L66.1205 27.9193C66.6641 24.5471 66.1991 22.0174 64.7389 20.4001C63.3455 18.8579 61.0114 18.1083 57.6032 18.1083H53.9503L55.0299 11.414C55.0899 11.0414 55.0089 10.6559 54.8085 10.3632C54.6081 10.0703 54.3097 9.9006 53.9947 9.9006ZM53.9947 11.1715L52.6711 19.3791H57.6032C60.7066 19.3791 62.8472 20.0319 64.0253 21.3358C65.2034 22.6406 65.5563 24.7547 65.0855 27.677L62.769 42.0429H57.1447L59.3471 28.3836C59.5977 26.8298 59.5057 25.7699 59.0705 25.2048C58.6351 24.6397 57.709 24.3567 56.2926 24.3567H51.8677L49.0158 42.0429H43.4794L48.4583 11.1715H53.9947Z" fill="white"/>
<path d="M74.3632 36.5358C76.4837 36.5358 78.0668 36.0645 79.0684 35.1355C80.0594 34.2163 80.7438 32.6233 81.1027 30.4009C81.4371 28.3239 81.3097 26.8737 80.7239 26.091C80.1251 25.2916 78.8305 24.8862 76.876 24.8862H73.4872L71.6085 36.5358H74.3632ZM63.2795 50.886C63.1222 50.886 62.9728 50.8013 62.8728 50.6547C62.7726 50.5083 62.7318 50.3156 62.7619 50.1294L67.7408 19.2578C67.7891 18.9594 68.006 18.7437 68.2586 18.7437H78.9892C82.3618 18.7437 84.8718 19.8473 86.4498 22.024C88.036 24.212 88.5257 27.2708 87.9056 31.1152C87.6529 32.6813 87.2189 34.1358 86.6152 35.438C86.0107 36.7417 85.2119 37.948 84.2405 39.024C83.0777 40.3355 81.7616 41.2865 80.3323 41.8461C78.9257 42.3983 77.1193 42.6783 74.9632 42.6783H70.6179L69.3776 50.3717C69.3293 50.6704 69.1124 50.886 68.8598 50.886H63.2795Z" fill="black"/>
<path d="M73.9219 25.5216H76.8761C79.2349 25.5216 80.0543 26.1454 80.3327 26.5171C80.7948 27.1343 80.882 28.4357 80.5849 30.2802C80.2514 32.3455 79.6329 33.8098 78.7469 34.632C77.8396 35.4737 76.3646 35.9003 74.3633 35.9003H72.2483L73.9219 25.5216ZM78.9892 18.1082H68.2584C67.7537 18.1082 67.3197 18.5395 67.2234 19.1366L62.2445 50.0082C62.1844 50.3808 62.2656 50.766 62.4658 51.059C62.6661 51.3519 62.9646 51.5214 63.2795 51.5214H68.8599C69.3647 51.5214 69.7988 51.0901 69.8951 50.493L71.0528 43.3137H74.9633C77.1747 43.3137 79.0363 43.0231 80.496 42.4502C81.9972 41.8624 83.3786 40.8656 84.601 39.4878C85.612 38.3671 86.4444 37.1091 87.0754 35.7483C87.7065 34.3869 88.16 32.8689 88.4231 31.2363C89.076 27.1896 88.5456 23.9493 86.8467 21.6059C85.1643 19.2851 82.5208 18.1082 78.9892 18.1082ZM70.969 37.1712H74.3633C76.6131 37.1712 78.289 36.6605 79.3901 35.639C80.4916 34.6172 81.2342 32.9119 81.6202 30.5223C81.9896 28.2279 81.8214 26.6088 81.1156 25.6656C80.409 24.7225 78.9961 24.2508 76.8761 24.2508H73.0526L70.969 37.1712ZM78.9892 19.3791C82.2174 19.3791 84.5724 20.4 86.0526 22.4421C87.5329 24.4842 87.9784 27.3345 87.3879 30.994C87.1448 32.5014 86.7337 33.8797 86.1549 35.1283C85.5754 36.3778 84.8188 37.5203 83.8838 38.5562C82.7695 39.8129 81.5316 40.7084 80.1695 41.2418C78.8073 41.7766 77.0724 42.0428 74.9633 42.0428H70.1834L68.8599 50.2505H63.2795L68.2584 19.3791H78.9892Z" fill="white"/>
</g>
<defs>
<filter id="filter0_d_23_8" x="-1" y="0.5" width="108" height="73" filterUnits="userSpaceOnUse" color-interpolation-filters="sRGB">
<feFlood flood-opacity="0" result="BackgroundImageFix"/>
<feColorMatrix in="SourceAlpha" type="matrix" values="0 0 0 0 0 0 0 0 0 0 0 0 0 0 0 0 0 0 127 0" result="hardAlpha"/>
<feOffset dy="4"/>
<feGaussianBlur stdDeviation="2"/>
<feComposite in2="hardAlpha" operator="out"/>
<feColorMatrix type="matrix" values="0 0 0 0 0 0 0 0 0 0 0 0 0 0 0 0 0 0 0.25 0"/>
<feBlend mode="normal" in2="BackgroundImageFix" result="effect1_dropShadow_23_8"/>
<feBlend mode="normal" in="SourceGraphic" in2="effect1_dropShadow_23_8" result="shape"/>
</filter>
<radialGradient id="paint0_radial_23_8" cx="0" cy="0" r="1" gradientUnits="userSpaceOnUse" gradientTransform="translate(33.582 13.0248) scale(63.8107 76.8995)">
<stop stop-color="#AEB2D5"/>
<stop offset="0.3" stop-color="#AEB2D5"/>
<stop offset="0.75" stop-color="#484C89"/>
<stop offset="1" stop-color="#484C89"/>
</radialGradient>
</defs>
</svg>
