<svg width="38" height="38" viewBox="0 0 38 38" fill="none" xmlns="http://www.w3.org/2000/svg">
<path d="M2.86651 15.4019C3.31189 14.9566 3.91587 14.7065 4.54564 14.7065C5.1754 14.7065 5.77938 14.9566 6.22476 15.4019L14.6228 23.7999L31.414 7.00623C31.6345 6.78557 31.8963 6.6105 32.1845 6.49102C32.4727 6.37154 32.7815 6.30999 33.0935 6.30988C33.4054 6.30977 33.7144 6.3711 34.0026 6.49038C34.2909 6.60965 34.5528 6.78454 34.7734 7.00504C34.9941 7.22555 35.1692 7.48736 35.2887 7.77552C35.4081 8.06369 35.4697 8.37256 35.4698 8.68452C35.4699 8.99647 35.4086 9.30539 35.2893 9.59364C35.17 9.88189 34.9951 10.1438 34.7746 10.3645L14.6228 30.5164L2.86651 18.7601C2.42127 18.3147 2.17114 17.7107 2.17114 17.081C2.17114 16.4512 2.42127 15.8472 2.86651 15.4019Z" fill="black"/>
</svg>
