<svg width="15" height="15" viewBox="0 0 15 15" fill="none" xmlns="http://www.w3.org/2000/svg">
<path d="M15 7.5C15 11.6421 11.6421 15 7.5 15C5.9201 15 4.4543 14.5115 3.24541 13.6773L0.681818 14.3182L1.3536 11.799C0.500578 10.5817 0 9.09929 0 7.5C0 3.35786 3.35786 0 7.5 0C11.6421 0 15 3.35786 15 7.5Z" fill="#21D142"/>
<path d="M5.3243 3.3817C5.11626 2.96384 4.79711 3.00084 4.47471 3.00084C3.89851 3.00084 3.00007 3.69101 3.00007 4.9755C3.00007 6.0282 3.46394 7.18054 5.02705 8.90435C6.53556 10.568 8.51765 11.4285 10.1632 11.3992C11.8087 11.3699 12.1472 9.95393 12.1472 9.47573C12.1472 9.26377 12.0157 9.15802 11.9251 9.12929C11.3643 8.86018 10.3301 8.35874 10.0948 8.26453C9.85948 8.17032 9.73661 8.29774 9.66023 8.36707C9.44683 8.57043 9.02382 9.16976 8.87898 9.30457C8.73414 9.43937 8.51821 9.37115 8.42835 9.32019C8.09768 9.18749 7.20111 8.78869 6.48645 8.09592C5.60261 7.23914 5.55074 6.94436 5.38422 6.68197C5.25101 6.47205 5.34876 6.34326 5.39754 6.28698C5.58797 6.06725 5.85091 5.72802 5.96883 5.55944C6.08675 5.39086 5.99314 5.13491 5.93697 4.9755C5.69539 4.28991 5.49073 3.71599 5.3243 3.3817Z" fill="white"/>
</svg>
